<svg xmlns="http://www.w3.org/2000/svg" width="1520" height="1010" viewBox="0 0 1520 1010" font-family="DejaVu Sans, Arial, Helvetica, sans-serif">
<defs>
<marker id="a_i2s" viewBox="0 0 10 10" refX="9" refY="5" markerWidth="7" markerHeight="7" orient="auto"><path d="M0,0 L10,5 L0,10 z" fill="#1f63b0"/></marker>
<marker id="s_i2s" viewBox="0 0 10 10" refX="1" refY="5" markerWidth="7" markerHeight="7" orient="auto"><path d="M10,0 L0,5 L10,10 z" fill="#1f63b0"/></marker>
<marker id="a_ctrl" viewBox="0 0 10 10" refX="9" refY="5" markerWidth="7" markerHeight="7" orient="auto"><path d="M0,0 L10,5 L0,10 z" fill="#7a3fa0"/></marker>
<marker id="s_ctrl" viewBox="0 0 10 10" refX="1" refY="5" markerWidth="7" markerHeight="7" orient="auto"><path d="M10,0 L0,5 L10,10 z" fill="#7a3fa0"/></marker>
<marker id="a_pwr" viewBox="0 0 10 10" refX="9" refY="5" markerWidth="7" markerHeight="7" orient="auto"><path d="M0,0 L10,5 L0,10 z" fill="#c0392b"/></marker>
<marker id="s_pwr" viewBox="0 0 10 10" refX="1" refY="5" markerWidth="7" markerHeight="7" orient="auto"><path d="M10,0 L0,5 L10,10 z" fill="#c0392b"/></marker>
<marker id="a_ana" viewBox="0 0 10 10" refX="9" refY="5" markerWidth="7" markerHeight="7" orient="auto"><path d="M0,0 L10,5 L0,10 z" fill="#2e8b57"/></marker>
<marker id="s_ana" viewBox="0 0 10 10" refX="1" refY="5" markerWidth="7" markerHeight="7" orient="auto"><path d="M10,0 L0,5 L10,10 z" fill="#2e8b57"/></marker>
<marker id="a_ac" viewBox="0 0 10 10" refX="9" refY="5" markerWidth="7" markerHeight="7" orient="auto"><path d="M0,0 L10,5 L0,10 z" fill="#8a8a8a"/></marker>
<marker id="s_ac" viewBox="0 0 10 10" refX="1" refY="5" markerWidth="7" markerHeight="7" orient="auto"><path d="M10,0 L0,5 L10,10 z" fill="#8a8a8a"/></marker>
<marker id="a_text" viewBox="0 0 10 10" refX="9" refY="5" markerWidth="7" markerHeight="7" orient="auto"><path d="M0,0 L10,5 L0,10 z" fill="#1d1d1f"/></marker>
<marker id="s_text" viewBox="0 0 10 10" refX="1" refY="5" markerWidth="7" markerHeight="7" orient="auto"><path d="M10,0 L0,5 L10,10 z" fill="#1d1d1f"/></marker>
<marker id="a_muted" viewBox="0 0 10 10" refX="9" refY="5" markerWidth="7" markerHeight="7" orient="auto"><path d="M0,0 L10,5 L0,10 z" fill="#5b6270"/></marker>
<marker id="s_muted" viewBox="0 0 10 10" refX="1" refY="5" markerWidth="7" markerHeight="7" orient="auto"><path d="M10,0 L0,5 L10,10 z" fill="#5b6270"/></marker>
</defs>
<rect width="1520" height="1010" fill="#ffffff"/>
<text x="760.0" y="38" font-size="24" font-weight="bold" fill="#1d1d1f" text-anchor="middle" >Акустическая ЦАФАР: структурная схема установки</text>
<text x="760.0" y="62" font-size="14" font-weight="normal" fill="#5b6270" text-anchor="middle" >16 приёмопередающих элементов · ПЛИС Lattice ECP5 · шаг 40 мм · 1.5–4.3 кГц</text>
<rect x="30" y="110" width="180" height="80" rx="8" fill="#f3f0f8" stroke="#9aa3b0" stroke-width="1.4"/>
<text x="120.0" y="137.5" font-size="14" font-weight="bold" fill="#1d1d1f" text-anchor="middle" >Планшет</text>
<text x="120.0" y="155.125" font-size="12.5" font-weight="normal" fill="#5b6270" text-anchor="middle" >посетителя: кнопки</text>
<text x="120.0" y="172.0" font-size="12.5" font-weight="normal" fill="#5b6270" text-anchor="middle" >сценариев, «руль» луча</text>
<rect x="30" y="600" width="180" height="96" rx="8" fill="#f3f0f8" stroke="#9aa3b0" stroke-width="1.4"/>
<text x="120.0" y="627.0625" font-size="14" font-weight="bold" fill="#1d1d1f" text-anchor="middle" >Ноутбук</text>
<text x="120.0" y="644.6875" font-size="12.5" font-weight="normal" fill="#5b6270" text-anchor="middle" >отладка, dpaa_ctl.py,</text>
<text x="120.0" y="661.5625" font-size="12.5" font-weight="normal" fill="#5b6270" text-anchor="middle" >прошивка ПЛИС,</text>
<text x="120.0" y="678.4375" font-size="12.5" font-weight="normal" fill="#5b6270" text-anchor="middle" >моделирование</text>
<rect x="250" y="100" width="180" height="110" rx="8" fill="#efe7f6" stroke="#7a3fa0" stroke-width="1.4"/>
<text x="340.0" y="134.0625" font-size="14" font-weight="bold" fill="#1d1d1f" text-anchor="middle" >ESP32-S3 DevKit</text>
<text x="340.0" y="151.6875" font-size="12.5" font-weight="normal" fill="#5b6270" text-anchor="middle" >Wi‑Fi-точка доступа</text>
<text x="340.0" y="168.5625" font-size="12.5" font-weight="normal" fill="#5b6270" text-anchor="middle" >веб-пульт</text>
<text x="340.0" y="185.4375" font-size="12.5" font-weight="normal" fill="#5b6270" text-anchor="middle" >расчёт задержек и весов</text>
<path d="M210,150 L250,150" fill="none" stroke="#7a3fa0" stroke-width="2.2" stroke-linejoin="round" stroke-dasharray="6 4" marker-end="url(#a_ctrl)"/>
<rect x="209.9" y="128.5" width="40.2" height="16.7" rx="3" fill="#ffffff" opacity="0.92"/>
<text x="230" y="140" font-size="11.5" font-weight="bold" fill="#7a3fa0" text-anchor="middle" >Wi‑Fi</text>
<rect x="460" y="90" width="450" height="720" rx="12" fill="#f4f7fb" stroke="#6f7f95" stroke-width="1.8"/>
<text x="685.0" y="114" font-size="15" font-weight="bold" fill="#1d1d1f" text-anchor="middle" >Colorlight i9 + плата расширения</text>
<rect x="475" y="125" width="420" height="585" rx="10" fill="#e6eef8" stroke="#1f63b0" stroke-width="1.6"/>
<text x="685.0" y="147" font-size="14" font-weight="bold" fill="#1f63b0" text-anchor="middle" >ПЛИС Lattice ECP5 LFE5U-45F · 50 МГц</text>
<rect x="490" y="160" width="180" height="62" rx="8" fill="#fff" stroke="#9aa3b0" stroke-width="1.4"/>
<text x="580.0" y="187.1" font-size="14" font-weight="bold" fill="#1d1d1f" text-anchor="middle" >UART-команды</text>
<text x="580.0" y="204.3" font-size="12" font-weight="normal" fill="#5b6270" text-anchor="middle" >регистры, commit</text>
<rect x="700" y="160" width="180" height="62" rx="8" fill="#fff" stroke="#9aa3b0" stroke-width="1.4"/>
<text x="790.0" y="187.1" font-size="14" font-weight="bold" fill="#1d1d1f" text-anchor="middle" >PLL</text>
<text x="790.0" y="204.3" font-size="12" font-weight="normal" fill="#5b6270" text-anchor="middle" >25 → 50 МГц</text>
<rect x="490" y="250" width="180" height="72" rx="8" fill="#fff" stroke="#9aa3b0" stroke-width="1.4"/>
<text x="580.0" y="274.0" font-size="14" font-weight="bold" fill="#1d1d1f" text-anchor="middle" >Генераторы ×2</text>
<text x="580.0" y="291.2" font-size="12" font-weight="normal" fill="#5b6270" text-anchor="middle" >синус · шум · ЛЧМ</text>
<text x="580.0" y="307.4" font-size="12" font-weight="normal" fill="#5b6270" text-anchor="middle" >пачки · огибающая</text>
<rect x="700" y="250" width="180" height="72" rx="8" fill="#fff" stroke="#9aa3b0" stroke-width="1.4"/>
<text x="790.0" y="274.0" font-size="14" font-weight="bold" fill="#1d1d1f" text-anchor="middle" >ДОС передачи</text>
<text x="790.0" y="291.2" font-size="12" font-weight="normal" fill="#5b6270" text-anchor="middle" >2 луча → 16 каналов</text>
<text x="790.0" y="307.4" font-size="12" font-weight="normal" fill="#5b6270" text-anchor="middle" >дробн. задержка + вес</text>
<rect x="490" y="350" width="180" height="84" rx="8" fill="#fff" stroke="#9aa3b0" stroke-width="1.4"/>
<text x="580.0" y="372.73749999999995" font-size="14" font-weight="bold" fill="#1d1d1f" text-anchor="middle" >Общий такт I2S</text>
<text x="580.0" y="389.51249999999993" font-size="11.5" font-weight="normal" fill="#5b6270" text-anchor="middle" >BCLK 3.125 МГц</text>
<text x="580.0" y="405.0374999999999" font-size="11.5" font-weight="normal" fill="#5b6270" text-anchor="middle" >LRCLK 48 828 Гц</text>
<text x="580.0" y="420.5624999999999" font-size="11.5" font-weight="normal" fill="#5b6270" text-anchor="middle" >для всех 33 каналов</text>
<rect x="700" y="424" width="180" height="58" rx="8" fill="#fff" stroke="#9aa3b0" stroke-width="1.4"/>
<text x="790.0" y="449.09999999999997" font-size="14" font-weight="bold" fill="#1d1d1f" text-anchor="middle" >I2S-передатчик</text>
<text x="790.0" y="466.29999999999995" font-size="12" font-weight="normal" fill="#5b6270" text-anchor="middle" >16 линий → усилители</text>
<rect x="490" y="512" width="180" height="72" rx="8" fill="#fff" stroke="#9aa3b0" stroke-width="1.4"/>
<text x="580.0" y="536.0" font-size="14" font-weight="bold" fill="#1d1d1f" text-anchor="middle" >ДОС приёма</text>
<text x="580.0" y="553.2" font-size="12" font-weight="normal" fill="#5b6270" text-anchor="middle" >16 микрофонов → 2 луча</text>
<text x="580.0" y="569.4000000000001" font-size="12" font-weight="normal" fill="#5b6270" text-anchor="middle" >дробн. задержка + вес</text>
<rect x="700" y="512" width="180" height="58" rx="8" fill="#fff" stroke="#9aa3b0" stroke-width="1.4"/>
<text x="790.0" y="537.1" font-size="14" font-weight="bold" fill="#1d1d1f" text-anchor="middle" >I2S-приёмник</text>
<text x="790.0" y="554.3000000000001" font-size="12" font-weight="normal" fill="#5b6270" text-anchor="middle" >16 микрофонов + зонд</text>
<rect x="490" y="612" width="180" height="58" rx="8" fill="#fff" stroke="#9aa3b0" stroke-width="1.4"/>
<text x="580.0" y="637.1" font-size="14" font-weight="bold" fill="#1d1d1f" text-anchor="middle" >I2S монитора</text>
<text x="580.0" y="654.3000000000001" font-size="12" font-weight="normal" fill="#5b6270" text-anchor="middle" >луч 0 → Л, луч 1 → П</text>
<rect x="700" y="612" width="180" height="58" rx="8" fill="#fff" stroke="#9aa3b0" stroke-width="1.4"/>
<text x="790.0" y="637.1" font-size="14" font-weight="bold" fill="#1d1d1f" text-anchor="middle" >Измерители уровня</text>
<text x="790.0" y="654.3000000000001" font-size="12" font-weight="normal" fill="#5b6270" text-anchor="middle" >17 каналов, по UART</text>
<rect x="560" y="730" width="250" height="58" rx="8" fill="#ffffff" stroke="#7a3fa0" stroke-width="1.4"/>
<text x="685.0" y="755.1" font-size="13" font-weight="bold" fill="#1d1d1f" text-anchor="middle" >DAPLink (плата расширения)</text>
<text x="685.0" y="771.8000000000001" font-size="12" font-weight="normal" fill="#5b6270" text-anchor="middle" >USB: JTAG-прошивка + UART</text>
<path d="M580,222 L580,248" fill="none" stroke="#7a3fa0" stroke-width="1.6" stroke-linejoin="round" marker-end="url(#a_ctrl)"/>
<path d="M670,206 L690,206 L690,272 L700,272" fill="none" stroke="#7a3fa0" stroke-width="1.6" stroke-linejoin="round" marker-end="url(#a_ctrl)"/>
<path d="M490,206 L482,206 L482,548 L490,548" fill="none" stroke="#7a3fa0" stroke-width="1.6" stroke-linejoin="round" marker-end="url(#a_ctrl)"/>
<rect x="600.5" y="227.5" width="55.0" height="15.2" rx="3" fill="#ffffff" opacity="0.92"/>
<text x="628" y="238" font-size="10.5" font-weight="bold" fill="#7a3fa0" text-anchor="middle" >регистры</text>
<path d="M670,300 L700,300" fill="none" stroke="#1f63b0" stroke-width="2.2" stroke-linejoin="round" marker-end="url(#a_i2s)"/>
<path d="M790,322 L790,422" fill="none" stroke="#1f63b0" stroke-width="2.2" stroke-linejoin="round" marker-end="url(#a_i2s)"/>
<path d="M670,392 L692,392 L692,641" fill="none" stroke="#1f63b0" stroke-width="1.4" stroke-linejoin="round"/>
<path d="M692,446 L700,446" fill="none" stroke="#1f63b0" stroke-width="1.4" stroke-linejoin="round" marker-end="url(#a_i2s)"/>
<path d="M692,527 L700,527" fill="none" stroke="#1f63b0" stroke-width="1.4" stroke-linejoin="round" marker-end="url(#a_i2s)"/>
<path d="M692,641 L670,641" fill="none" stroke="#1f63b0" stroke-width="1.4" stroke-linejoin="round" marker-end="url(#a_i2s)"/>
<path d="M700,556 L670,556" fill="none" stroke="#1f63b0" stroke-width="2.2" stroke-linejoin="round" marker-end="url(#a_i2s)"/>
<path d="M790,570 L790,610" fill="none" stroke="#1f63b0" stroke-width="1.6" stroke-linejoin="round" marker-end="url(#a_i2s)"/>
<path d="M580,584 L580,610" fill="none" stroke="#1f63b0" stroke-width="2.2" stroke-linejoin="round" marker-end="url(#a_i2s)"/>
<path d="M430,155 L455,155 L455,191 L490,191" fill="none" stroke="#7a3fa0" stroke-width="2.2" stroke-linejoin="round" marker-end="url(#a_ctrl)" marker-start="url(#s_ctrl)"/>
<rect x="380.6" y="220.5" width="78.8" height="16.7" rx="3" fill="#ffffff" opacity="0.92"/>
<text x="420" y="232" font-size="11.5" font-weight="bold" fill="#7a3fa0" text-anchor="middle" >UART 1 Мбод</text>
<path d="M210,648 L380,648 L380,759 L560,759" fill="none" stroke="#7a3fa0" stroke-width="2.2" stroke-linejoin="round" marker-end="url(#a_ctrl)" marker-start="url(#s_ctrl)"/>
<rect x="286.3" y="626.5" width="27.3" height="16.7" rx="3" fill="#ffffff" opacity="0.92"/>
<text x="300" y="638" font-size="11.5" font-weight="bold" fill="#7a3fa0" text-anchor="middle" >USB</text>
<path d="M685,730 L685,712" fill="none" stroke="#7a3fa0" stroke-width="2.2" stroke-linejoin="round" stroke-dasharray="5 3" marker-end="url(#a_ctrl)"/>
<rect x="723.7" y="711.5" width="72.7" height="15.2" rx="3" fill="#ffffff" opacity="0.92"/>
<text x="760" y="722" font-size="10.5" font-weight="bold" fill="#7a3fa0" text-anchor="middle" >JTAG + UART</text>
<rect x="955" y="90" width="200" height="720" rx="12" fill="#f6f4ee" stroke="#9c8f6a" stroke-width="1.8"/>
<text x="1055.0" y="114" font-size="15" font-weight="bold" fill="#1d1d1f" text-anchor="middle" >Распределительная</text>
<text x="1055.0" y="132" font-size="15" font-weight="bold" fill="#1d1d1f" text-anchor="middle" >плата</text>
<rect x="968" y="170" width="174" height="70" rx="8" fill="#fff" stroke="#9aa3b0" stroke-width="1.4"/>
<text x="1055.0" y="193.5" font-size="14" font-weight="bold" fill="#1d1d1f" text-anchor="middle" >Буферы тактов</text>
<text x="1055.0" y="210.275" font-size="11.5" font-weight="normal" fill="#5b6270" text-anchor="middle" >74LVC244 ×4</text>
<text x="1055.0" y="225.8" font-size="11.5" font-weight="normal" fill="#5b6270" text-anchor="middle" >BCLK, LRCLK → 16 шлейфов</text>
<rect x="968" y="258" width="174" height="56" rx="8" fill="#fff" stroke="#9aa3b0" stroke-width="1.4"/>
<text x="1055.0" y="282.2625" font-size="14" font-weight="bold" fill="#1d1d1f" text-anchor="middle" >Буферы TXD</text>
<text x="1055.0" y="299.03749999999997" font-size="11.5" font-weight="normal" fill="#5b6270" text-anchor="middle" >74LVC244 ×2, 33 Ом</text>
<rect x="968" y="332" width="174" height="56" rx="8" fill="#fff" stroke="#9aa3b0" stroke-width="1.4"/>
<text x="1055.0" y="356.2625" font-size="14" font-weight="bold" fill="#1d1d1f" text-anchor="middle" >Буферы RXD</text>
<text x="1055.0" y="373.03749999999997" font-size="11.5" font-weight="normal" fill="#5b6270" text-anchor="middle" >74LVC244 ×2, 100 кОм↓</text>
<rect x="968" y="406" width="174" height="56" rx="8" fill="#fff" stroke="#9aa3b0" stroke-width="1.4"/>
<text x="1055.0" y="430.2625" font-size="14" font-weight="bold" fill="#1d1d1f" text-anchor="middle" >16 разъёмов IDC</text>
<text x="1055.0" y="447.03749999999997" font-size="11.5" font-weight="normal" fill="#5b6270" text-anchor="middle" >2×5 к элементам</text>
<rect x="968" y="480" width="174" height="70" rx="8" fill="#fbecea" stroke="#c0392b" stroke-width="1.4"/>
<text x="1055.0" y="503.5" font-size="14" font-weight="bold" fill="#1d1d1f" text-anchor="middle" >Питание 5 В</text>
<text x="1055.0" y="520.275" font-size="11.5" font-weight="normal" fill="#5b6270" text-anchor="middle" >защита, TVS, 1000 мкФ</text>
<text x="1055.0" y="535.8" font-size="11.5" font-weight="normal" fill="#5b6270" text-anchor="middle" >PTC 1.5 А ×4 группы</text>
<rect x="968" y="570" width="174" height="64" rx="8" fill="#eaf5ee" stroke="#2e8b57" stroke-width="1.4"/>
<text x="1055.0" y="598.2624999999999" font-size="14" font-weight="bold" fill="#1d1d1f" text-anchor="middle" >ЦАП PCM5102A</text>
<text x="1055.0" y="615.0374999999999" font-size="11.5" font-weight="normal" fill="#5b6270" text-anchor="middle" >→ усилитель наушников</text>
<rect x="968" y="652" width="174" height="56" rx="8" fill="#fff" stroke="#9aa3b0" stroke-width="1.4"/>
<text x="1055.0" y="676.2624999999999" font-size="14" font-weight="bold" fill="#1d1d1f" text-anchor="middle" >Разъём зонда</text>
<text x="1055.0" y="693.0374999999999" font-size="11.5" font-weight="normal" fill="#5b6270" text-anchor="middle" >RJ45 + буфер 74LVC244</text>
<path d="M1149,205 L1149,430 L1142,430" fill="none" stroke="#1f63b0" stroke-width="1.6" stroke-linejoin="round" marker-end="url(#a_i2s)"/>
<path d="M1142,205 L1149,205" fill="none" stroke="#1f63b0" stroke-width="1.6" stroke-linejoin="round"/>
<path d="M1142,286 L1149,286" fill="none" stroke="#1f63b0" stroke-width="1.6" stroke-linejoin="round"/>
<path d="M1142,360 L1149,360" fill="none" stroke="#1f63b0" stroke-width="1.6" stroke-linejoin="round" marker-start="url(#s_i2s)"/>
<path d="M1055,480 L1055,464" fill="none" stroke="#c0392b" stroke-width="2.4" stroke-linejoin="round" marker-end="url(#a_pwr)"/>
<path d="M880,453 L938,453 L938,205 L968,205" fill="none" stroke="#1f63b0" stroke-width="3" stroke-linejoin="round" marker-end="url(#a_i2s)"/>
<path d="M938,286 L968,286" fill="none" stroke="#1f63b0" stroke-width="3" stroke-linejoin="round" marker-end="url(#a_i2s)"/>
<path d="M968,360 L924,360 L924,534 L880,534" fill="none" stroke="#1f63b0" stroke-width="3" stroke-linejoin="round" marker-end="url(#a_i2s)"/>
<path d="M968,680 L914,680 L914,560 L880,560" fill="none" stroke="#1f63b0" stroke-width="1.8" stroke-linejoin="round" marker-end="url(#a_i2s)"/>
<rect x="888.1" y="139" width="75.8" height="15.9" rx="3" fill="#ffffff" opacity="0.92"/>
<text x="926" y="150" font-size="11" font-weight="bold" fill="#1f63b0" text-anchor="middle" >шлейфы PMOD</text>
<path d="M580,670 L580,700 L948,700 L948,598 L968,598" fill="none" stroke="#1f63b0" stroke-width="2.2" stroke-linejoin="round" marker-end="url(#a_i2s)"/>
<rect x="849.6" y="690" width="24.8" height="14.5" rx="3" fill="#ffffff" opacity="0.92"/>
<text x="862" y="700" font-size="10" font-weight="bold" fill="#1f63b0" text-anchor="middle" >MON</text>
<rect x="1200" y="100" width="215" height="250" rx="10" fill="#eef6f0" stroke="#2e8b57" stroke-width="1.6"/>
<text x="1307.5" y="124" font-size="14" font-weight="bold" fill="#1d1d1f" text-anchor="middle" >Элемент 1 («ППМ»)</text>
<text x="1307.5" y="142" font-size="11.5" font-weight="normal" fill="#5b6270" text-anchor="middle" >3D-печатная плитка 40×40 мм</text>
<rect x="1212" y="154" width="191" height="78" rx="8" fill="#fff" stroke="#9aa3b0" stroke-width="1.4"/>
<text x="1307.5" y="182.0" font-size="12.5" font-weight="bold" fill="#1d1d1f" text-anchor="middle" >Плата усилителя</text>
<text x="1307.5" y="197.6" font-size="11" font-weight="normal" fill="#5b6270" text-anchor="middle" >74LVC1G17 ×2, LDO 3.3 В</text>
<text x="1307.5" y="212.45" font-size="11" font-weight="normal" fill="#5b6270" text-anchor="middle" >MAX98357A: ЦАП + класс D</text>
<rect x="1212" y="246" width="88" height="44" rx="8" fill="#eaf5ee" stroke="#2e8b57" stroke-width="1.4"/>
<text x="1256.0" y="264.425" font-size="12" font-weight="bold" fill="#1d1d1f" text-anchor="middle" >Динамик</text>
<text x="1256.0" y="279.77500000000003" font-size="11" font-weight="normal" fill="#5b6270" text-anchor="middle" >CE32A-8</text>
<rect x="1310" y="246" width="93" height="44" rx="8" fill="#fff" stroke="#9aa3b0" stroke-width="1.4"/>
<text x="1356.5" y="264.425" font-size="12" font-weight="bold" fill="#1d1d1f" text-anchor="middle" >Микрофон</text>
<text x="1356.5" y="279.77500000000003" font-size="11" font-weight="normal" fill="#5b6270" text-anchor="middle" >ICS-43434</text>
<text x="1307.5" y="312" font-size="11" font-weight="normal" fill="#5b6270" text-anchor="middle" >микрофон: АЦП 24 бит внутри</text>
<text x="1307.5" y="330" font-size="11" font-weight="normal" fill="#5b6270" text-anchor="middle" >динамик: 2 Вт, 8 Ом</text>
<path d="M1256,232 L1256,244" fill="none" stroke="#2e8b57" stroke-width="2" stroke-linejoin="round" marker-end="url(#a_ana)"/>
<path d="M1350,246 L1350,234" fill="none" stroke="#1f63b0" stroke-width="1.6" stroke-linejoin="round" marker-end="url(#a_i2s)"/>
<rect x="1200" y="362" width="215" height="28" rx="6" fill="#eef6f0" stroke="#2e8b57" stroke-width="1.4"/>
<text x="1307.5" y="379.85" font-size="12" font-weight="bold" fill="#1d1d1f" text-anchor="middle" >Элемент 2</text>
<rect x="1200" y="396" width="215" height="28" rx="6" fill="#eef6f0" stroke="#2e8b57" stroke-width="1.4"/>
<text x="1307.5" y="413.85" font-size="12" font-weight="bold" fill="#1d1d1f" text-anchor="middle" >…  элементы 3–15  …</text>
<rect x="1200" y="430" width="215" height="28" rx="6" fill="#eef6f0" stroke="#2e8b57" stroke-width="1.4"/>
<text x="1307.5" y="447.85" font-size="12" font-weight="bold" fill="#1d1d1f" text-anchor="middle" >Элемент 16</text>
<path d="M1142,434 L1178,434" fill="none" stroke="#1f63b0" stroke-width="3" stroke-linejoin="round"/>
<path d="M1178,444 L1178,190 L1200,190" fill="none" stroke="#1f63b0" stroke-width="3" stroke-linejoin="round" marker-end="url(#a_i2s)"/>
<path d="M1178,376 L1200,376" fill="none" stroke="#1f63b0" stroke-width="1.8" stroke-linejoin="round" marker-end="url(#a_i2s)"/>
<path d="M1178,410 L1200,410" fill="none" stroke="#1f63b0" stroke-width="1.8" stroke-linejoin="round" marker-end="url(#a_i2s)"/>
<path d="M1178,444 L1200,444" fill="none" stroke="#1f63b0" stroke-width="1.8" stroke-linejoin="round" marker-end="url(#a_i2s)"/>
<text x="1307.5" y="476" font-size="11" font-weight="bold" fill="#1f63b0" text-anchor="middle" >×16 шлейфов IDC 10 жил:</text>
<text x="1307.5" y="491" font-size="11" font-weight="normal" fill="#1f63b0" text-anchor="middle" >5 В, GND, BCLK, LRCLK, TXD, RXD</text>
<path d="M 1423,178 A 22 35.2 0 0 1 1423,222" fill="none" stroke="#8a8a8a" stroke-width="2" opacity="0.76"/>
<path d="M 1423,160 A 40 64.0 0 0 1 1423,240" fill="none" stroke="#8a8a8a" stroke-width="2" opacity="0.56"/>
<path d="M 1423,142 A 58 92.80000000000001 0 0 1 1423,258" fill="none" stroke="#8a8a8a" stroke-width="2" opacity="0.36"/>
<text x="1470" y="285" font-size="12" font-weight="bold" fill="#8a8a8a" text-anchor="middle" >луч</text>
<text x="1470" y="300" font-size="11" font-weight="normal" fill="#8a8a8a" text-anchor="middle" >(слышат</text>
<text x="1470" y="314" font-size="11" font-weight="normal" fill="#8a8a8a" text-anchor="middle" >зрители)</text>
<rect x="1200" y="566" width="215" height="64" rx="8" fill="#eaf5ee" stroke="#2e8b57" stroke-width="1.4"/>
<text x="1307.5" y="587.0" font-size="13" font-weight="bold" fill="#1d1d1f" text-anchor="middle" >Наушники ×2</text>
<text x="1307.5" y="602.85" font-size="11" font-weight="normal" fill="#5b6270" text-anchor="middle" >левое ухо — луч приёма 0</text>
<text x="1307.5" y="617.7" font-size="11" font-weight="normal" fill="#5b6270" text-anchor="middle" >правое ухо — луч приёма 1</text>
<path d="M1142,598 L1200,598" fill="none" stroke="#2e8b57" stroke-width="2.2" stroke-linejoin="round" marker-end="url(#a_ana)"/>
<rect x="1200" y="646" width="215" height="84" rx="8" fill="#ffffff" stroke="#9aa3b0" stroke-width="1.4"/>
<text x="1307.5" y="669.575" font-size="13" font-weight="bold" fill="#1d1d1f" text-anchor="middle" >Калибровочный зонд</text>
<text x="1307.5" y="685.4250000000001" font-size="11" font-weight="normal" fill="#5b6270" text-anchor="middle" >ICS-43434 на стойке</text>
<text x="1307.5" y="700.2750000000001" font-size="11" font-weight="normal" fill="#5b6270" text-anchor="middle" >в 2–3 м от решётки</text>
<text x="1307.5" y="715.1250000000001" font-size="11" font-weight="normal" fill="#5b6270" text-anchor="middle" >кабель CAT5</text>
<path d="M1142,680 L1200,680" fill="none" stroke="#1f63b0" stroke-width="2.2" stroke-linejoin="round" marker-end="url(#a_i2s)" marker-start="url(#s_i2s)"/>
<rect x="968" y="850" width="174" height="64" rx="8" fill="#fbecea" stroke="#c0392b" stroke-width="1.4"/>
<text x="1055.0" y="878.2624999999999" font-size="14" font-weight="bold" fill="#1d1d1f" text-anchor="middle" >БП 5 В 6 А</text>
<text x="1055.0" y="895.0374999999999" font-size="11.5" font-weight="normal" fill="#5b6270" text-anchor="middle" >закрытый, настольный</text>
<path d="M1142,882 L1150,882 L1150,515 L1142,515" fill="none" stroke="#c0392b" stroke-width="2.6" stroke-linejoin="round" marker-end="url(#a_pwr)"/>
<rect x="983.4" y="825.5" width="143.2" height="15.2" rx="3" fill="#ffffff" opacity="0.92"/>
<text x="1055" y="836" font-size="10.5" font-weight="bold" fill="#c0392b" text-anchor="middle" >до 5 А на 16 усилителей</text>
<rect x="560" y="850" width="250" height="64" rx="8" fill="#fbecea" stroke="#c0392b" stroke-width="1.4"/>
<text x="685.0" y="878.2624999999999" font-size="14" font-weight="bold" fill="#1d1d1f" text-anchor="middle" >USB-зарядник 5 В 2 А</text>
<text x="685.0" y="895.0374999999999" font-size="11.5" font-weight="normal" fill="#5b6270" text-anchor="middle" >плата ПЛИС и ESP32</text>
<path d="M685,850 L685,812" fill="none" stroke="#c0392b" stroke-width="2.2" stroke-linejoin="round" marker-end="url(#a_pwr)"/>
<path d="M560,882 L340,882 L340,212" fill="none" stroke="#c0392b" stroke-width="2.2" stroke-linejoin="round" marker-end="url(#a_pwr)"/>
<text x="30" y="760" font-size="14" font-weight="bold" fill="#1d1d1f" text-anchor="start" >Обозначения</text>
<path d="M30,780 L74,780" fill="none" stroke="#1f63b0" stroke-width="2.6" stroke-linejoin="round" marker-end="url(#a_i2s)"/>
<text x="84" y="784" font-size="12.5" font-weight="normal" fill="#1d1d1f" text-anchor="start" >цифровые сигналы I2S (3.3 В)</text>
<path d="M30,804 L74,804" fill="none" stroke="#7a3fa0" stroke-width="2.6" stroke-linejoin="round" stroke-dasharray="6 4" marker-end="url(#a_ctrl)"/>
<text x="84" y="808" font-size="12.5" font-weight="normal" fill="#1d1d1f" text-anchor="start" >управление и прошивка</text>
<path d="M30,828 L74,828" fill="none" stroke="#c0392b" stroke-width="2.6" stroke-linejoin="round" marker-end="url(#a_pwr)"/>
<text x="84" y="832" font-size="12.5" font-weight="normal" fill="#1d1d1f" text-anchor="start" >питание 5 В</text>
<path d="M30,852 L74,852" fill="none" stroke="#2e8b57" stroke-width="2.6" stroke-linejoin="round" marker-end="url(#a_ana)"/>
<text x="84" y="856" font-size="12.5" font-weight="normal" fill="#1d1d1f" text-anchor="start" >аналоговый звук</text>
<path d="M30,876 L74,876" fill="none" stroke="#8a8a8a" stroke-width="2.6" stroke-linejoin="round" marker-end="url(#a_ac)"/>
<text x="84" y="880" font-size="12.5" font-weight="normal" fill="#1d1d1f" text-anchor="start" >звуковое поле</text>
<text x="30" y="930" font-size="11.5" font-weight="normal" fill="#5b6270" text-anchor="start" >ДОС — диаграммообразующая схема (цифровая)</text>
<text x="30" y="948" font-size="11.5" font-weight="normal" fill="#5b6270" text-anchor="start" >ППМ — приёмопередающий модуль</text>
<text x="30" y="966" font-size="11.5" font-weight="normal" fill="#5b6270" text-anchor="start" >Подробности: docs/hardware/</text>
</svg>