  0
SECTION
  2
BLOCKS
  0
ENDSEC
  0
SECTION
  2
ENTITIES
  0
LINE
  8
0
 10
680
 20
80
 11
0
 21
80
  0
LINE
  8
0
 10
0
 20
80
 11
0
 21
0
  0
LINE
  8
0
 10
0
 20
0
 11
680
 21
0
  0
LINE
  8
0
 10
680
 20
0
 11
680
 21
80
  0
LINE
  8
0
 10
7.76031
 20
69.2605
 11
7.52246
 21
69.2918
  0
LINE
  8
0
 10
7.52246
 20
69.2918
 11
7.28824
 21
69.3437
  0
LINE
  8
0
 10
7.28824
 20
69.3437
 11
7.05943
 21
69.4158
  0
LINE
  8
0
 10
7.05943
 20
69.4158
 11
6.8378
 21
69.5076
  0
LINE
  8
0
 10
6.8378
 20
69.5076
 11
6.625
 21
69.6184
  0
LINE
  8
0
 10
6.625
 20
69.6184
 11
6.42265
 21
69.7473
  0
LINE
  8
0
 10
6.42265
 20
69.7473
 11
6.23233
 21
69.8934
  0
LINE
  8
0
 10
6.23233
 20
69.8934
 11
6.05545
 21
70.0555
  0
LINE
  8
0
 10
6.05545
 20
70.0555
 11
5.89337
 21
70.2323
  0
LINE
  8
0
 10
5.89337
 20
70.2323
 11
5.74733
 21
70.4227
  0
LINE
  8
0
 10
5.74733
 20
70.4227
 11
5.61842
 21
70.625
  0
LINE
  8
0
 10
5.61842
 20
70.625
 11
5.50764
 21
70.8378
  0
LINE
  8
0
 10
5.50764
 20
70.8378
 11
5.41583
 21
71.0594
  0
LINE
  8
0
 10
5.41583
 20
71.0594
 11
5.34369
 21
71.2882
  0
LINE
  8
0
 10
5.34369
 20
71.2882
 11
5.29178
 21
71.5225
  0
LINE
  8
0
 10
5.29178
 20
71.5225
 11
5.26045
 21
71.7603
  0
LINE
  8
0
 10
5.26045
 20
71.7603
 11
5.25
 21
72
  0
LINE
  8
0
 10
5.25
 20
72
 11
5.26045
 21
72.2397
  0
LINE
  8
0
 10
5.26045
 20
72.2397
 11
5.29178
 21
72.4775
  0
LINE
  8
0
 10
5.29178
 20
72.4775
 11
5.34369
 21
72.7117
  0
LINE
  8
0
 10
5.34369
 20
72.7117
 11
5.41583
 21
72.9406
  0
LINE
  8
0
 10
5.41583
 20
72.9406
 11
5.50764
 21
73.1622
  0
LINE
  8
0
 10
5.50764
 20
73.1622
 11
5.61842
 21
73.375
  0
LINE
  8
0
 10
5.61842
 20
73.375
 11
5.74733
 21
73.5773
  0
LINE
  8
0
 10
5.74733
 20
73.5773
 11
5.89337
 21
73.7677
  0
LINE
  8
0
 10
5.89337
 20
73.7677
 11
6.05545
 21
73.9445
  0
LINE
  8
0
 10
6.05545
 20
73.9445
 11
6.23233
 21
74.1066
  0
LINE
  8
0
 10
6.23233
 20
74.1066
 11
6.42265
 21
74.2527
  0
LINE
  8
0
 10
6.42265
 20
74.2527
 11
6.625
 21
74.3816
  0
LINE
  8
0
 10
6.625
 20
74.3816
 11
6.8378
 21
74.4923
  0
LINE
  8
0
 10
6.8378
 20
74.4923
 11
7.05943
 21
74.5842
  0
LINE
  8
0
 10
7.05943
 20
74.5842
 11
7.28824
 21
74.6563
  0
LINE
  8
0
 10
7.28824
 20
74.6563
 11
7.52246
 21
74.7082
  0
LINE
  8
0
 10
7.52246
 20
74.7082
 11
7.76031
 21
74.7395
  0
LINE
  8
0
 10
7.76031
 20
74.7395
 11
8
 21
74.75
  0
LINE
  8
0
 10
8
 20
74.75
 11
8.23967
 21
74.7395
  0
LINE
  8
0
 10
8.23967
 20
74.7395
 11
8.47752
 21
74.7082
  0
LINE
  8
0
 10
8.47752
 20
74.7082
 11
8.71175
 21
74.6563
  0
LINE
  8
0
 10
8.71175
 20
74.6563
 11
8.94055
 21
74.5842
  0
LINE
  8
0
 10
8.94055
 20
74.5842
 11
9.16219
 21
74.4923
  0
LINE
  8
0
 10
9.16219
 20
74.4923
 11
9.375
 21
74.3816
  0
LINE
  8
0
 10
9.375
 20
74.3816
 11
9.57733
 21
74.2527
  0
LINE
  8
0
 10
9.57733
 20
74.2527
 11
9.76765
 21
74.1066
  0
LINE
  8
0
 10
9.76765
 20
74.1066
 11
9.94453
 21
73.9445
  0
LINE
  8
0
 10
9.94453
 20
73.9445
 11
10.1066
 21
73.7677
  0
LINE
  8
0
 10
10.1066
 20
73.7677
 11
10.2527
 21
73.5773
  0
LINE
  8
0
 10
10.2527
 20
73.5773
 11
10.3816
 21
73.375
  0
LINE
  8
0
 10
10.3816
 20
73.375
 11
10.4923
 21
73.1622
  0
LINE
  8
0
 10
10.4923
 20
73.1622
 11
10.5842
 21
72.9406
  0
LINE
  8
0
 10
10.5842
 20
72.9406
 11
10.6563
 21
72.7117
  0
LINE
  8
0
 10
10.6563
 20
72.7117
 11
10.7082
 21
72.4775
  0
LINE
  8
0
 10
10.7082
 20
72.4775
 11
10.7395
 21
72.2397
  0
LINE
  8
0
 10
10.7395
 20
72.2397
 11
10.75
 21
72
  0
LINE
  8
0
 10
10.75
 20
72
 11
10.7395
 21
71.7603
  0
LINE
  8
0
 10
10.7395
 20
71.7603
 11
10.7082
 21
71.5225
  0
LINE
  8
0
 10
10.7082
 20
71.5225
 11
10.6563
 21
71.2882
  0
LINE
  8
0
 10
10.6563
 20
71.2882
 11
10.5842
 21
71.0594
  0
LINE
  8
0
 10
10.5842
 20
71.0594
 11
10.4923
 21
70.8378
  0
LINE
  8
0
 10
10.4923
 20
70.8378
 11
10.3816
 21
70.625
  0
LINE
  8
0
 10
10.3816
 20
70.625
 11
10.2527
 21
70.4227
  0
LINE
  8
0
 10
10.2527
 20
70.4227
 11
10.1066
 21
70.2323
  0
LINE
  8
0
 10
10.1066
 20
70.2323
 11
9.94453
 21
70.0555
  0
LINE
  8
0
 10
9.94453
 20
70.0555
 11
9.76765
 21
69.8934
  0
LINE
  8
0
 10
9.76765
 20
69.8934
 11
9.57733
 21
69.7473
  0
LINE
  8
0
 10
9.57733
 20
69.7473
 11
9.375
 21
69.6184
  0
LINE
  8
0
 10
9.375
 20
69.6184
 11
9.16219
 21
69.5076
  0
LINE
  8
0
 10
9.16219
 20
69.5076
 11
8.94055
 21
69.4158
  0
LINE
  8
0
 10
8.94055
 20
69.4158
 11
8.71175
 21
69.3437
  0
LINE
  8
0
 10
8.71175
 20
69.3437
 11
8.47752
 21
69.2918
  0
LINE
  8
0
 10
8.47752
 20
69.2918
 11
8.23967
 21
69.2605
  0
LINE
  8
0
 10
8.23967
 20
69.2605
 11
8
 21
69.25
  0
LINE
  8
0
 10
8
 20
69.25
 11
7.76031
 21
69.2605
  0
LINE
  8
0
 10
671.76
 20
69.2605
 11
671.522
 21
69.2918
  0
LINE
  8
0
 10
671.522
 20
69.2918
 11
671.288
 21
69.3437
  0
LINE
  8
0
 10
671.288
 20
69.3437
 11
671.059
 21
69.4158
  0
LINE
  8
0
 10
671.059
 20
69.4158
 11
670.838
 21
69.5076
  0
LINE
  8
0
 10
670.838
 20
69.5076
 11
670.625
 21
69.6184
  0
LINE
  8
0
 10
670.625
 20
69.6184
 11
670.423
 21
69.7473
  0
LINE
  8
0
 10
670.423
 20
69.7473
 11
670.232
 21
69.8934
  0
LINE
  8
0
 10
670.232
 20
69.8934
 11
670.055
 21
70.0555
  0
LINE
  8
0
 10
670.055
 20
70.0555
 11
669.893
 21
70.2323
  0
LINE
  8
0
 10
669.893
 20
70.2323
 11
669.747
 21
70.4227
  0
LINE
  8
0
 10
669.747
 20
70.4227
 11
669.618
 21
70.625
  0
LINE
  8
0
 10
669.618
 20
70.625
 11
669.508
 21
70.8378
  0
LINE
  8
0
 10
669.508
 20
70.8378
 11
669.416
 21
71.0594
  0
LINE
  8
0
 10
669.416
 20
71.0594
 11
669.344
 21
71.2882
  0
LINE
  8
0
 10
669.344
 20
71.2882
 11
669.292
 21
71.5225
  0
LINE
  8
0
 10
669.292
 20
71.5225
 11
669.26
 21
71.7603
  0
LINE
  8
0
 10
669.26
 20
71.7603
 11
669.25
 21
72
  0
LINE
  8
0
 10
669.25
 20
72
 11
669.26
 21
72.2397
  0
LINE
  8
0
 10
669.26
 20
72.2397
 11
669.292
 21
72.4775
  0
LINE
  8
0
 10
669.292
 20
72.4775
 11
669.344
 21
72.7117
  0
LINE
  8
0
 10
669.344
 20
72.7117
 11
669.416
 21
72.9406
  0
LINE
  8
0
 10
669.416
 20
72.9406
 11
669.508
 21
73.1622
  0
LINE
  8
0
 10
669.508
 20
73.1622
 11
669.618
 21
73.375
  0
LINE
  8
0
 10
669.618
 20
73.375
 11
669.747
 21
73.5773
  0
LINE
  8
0
 10
669.747
 20
73.5773
 11
669.893
 21
73.7677
  0
LINE
  8
0
 10
669.893
 20
73.7677
 11
670.055
 21
73.9445
  0
LINE
  8
0
 10
670.055
 20
73.9445
 11
670.232
 21
74.1066
  0
LINE
  8
0
 10
670.232
 20
74.1066
 11
670.423
 21
74.2527
  0
LINE
  8
0
 10
670.423
 20
74.2527
 11
670.625
 21
74.3816
  0
LINE
  8
0
 10
670.625
 20
74.3816
 11
670.838
 21
74.4923
  0
LINE
  8
0
 10
670.838
 20
74.4923
 11
671.059
 21
74.5842
  0
LINE
  8
0
 10
671.059
 20
74.5842
 11
671.288
 21
74.6563
  0
LINE
  8
0
 10
671.288
 20
74.6563
 11
671.522
 21
74.7082
  0
LINE
  8
0
 10
671.522
 20
74.7082
 11
671.76
 21
74.7395
  0
LINE
  8
0
 10
671.76
 20
74.7395
 11
672
 21
74.75
  0
LINE
  8
0
 10
672
 20
74.75
 11
672.24
 21
74.7395
  0
LINE
  8
0
 10
672.24
 20
74.7395
 11
672.478
 21
74.7082
  0
LINE
  8
0
 10
672.478
 20
74.7082
 11
672.712
 21
74.6563
  0
LINE
  8
0
 10
672.712
 20
74.6563
 11
672.941
 21
74.5842
  0
LINE
  8
0
 10
672.941
 20
74.5842
 11
673.162
 21
74.4923
  0
LINE
  8
0
 10
673.162
 20
74.4923
 11
673.375
 21
74.3816
  0
LINE
  8
0
 10
673.375
 20
74.3816
 11
673.577
 21
74.2527
  0
LINE
  8
0
 10
673.577
 20
74.2527
 11
673.768
 21
74.1066
  0
LINE
  8
0
 10
673.768
 20
74.1066
 11
673.945
 21
73.9445
  0
LINE
  8
0
 10
673.945
 20
73.9445
 11
674.107
 21
73.7677
  0
LINE
  8
0
 10
674.107
 20
73.7677
 11
674.253
 21
73.5773
  0
LINE
  8
0
 10
674.253
 20
73.5773
 11
674.382
 21
73.375
  0
LINE
  8
0
 10
674.382
 20
73.375
 11
674.492
 21
73.1622
  0
LINE
  8
0
 10
674.492
 20
73.1622
 11
674.584
 21
72.9406
  0
LINE
  8
0
 10
674.584
 20
72.9406
 11
674.656
 21
72.7117
  0
LINE
  8
0
 10
674.656
 20
72.7117
 11
674.708
 21
72.4775
  0
LINE
  8
0
 10
674.708
 20
72.4775
 11
674.74
 21
72.2397
  0
LINE
  8
0
 10
674.74
 20
72.2397
 11
674.75
 21
72
  0
LINE
  8
0
 10
674.75
 20
72
 11
674.74
 21
71.7603
  0
LINE
  8
0
 10
674.74
 20
71.7603
 11
674.708
 21
71.5225
  0
LINE
  8
0
 10
674.708
 20
71.5225
 11
674.656
 21
71.2882
  0
LINE
  8
0
 10
674.656
 20
71.2882
 11
674.584
 21
71.0594
  0
LINE
  8
0
 10
674.584
 20
71.0594
 11
674.492
 21
70.8378
  0
LINE
  8
0
 10
674.492
 20
70.8378
 11
674.382
 21
70.625
  0
LINE
  8
0
 10
674.382
 20
70.625
 11
674.253
 21
70.4227
  0
LINE
  8
0
 10
674.253
 20
70.4227
 11
674.107
 21
70.2323
  0
LINE
  8
0
 10
674.107
 20
70.2323
 11
673.945
 21
70.0555
  0
LINE
  8
0
 10
673.945
 20
70.0555
 11
673.768
 21
69.8934
  0
LINE
  8
0
 10
673.768
 20
69.8934
 11
673.577
 21
69.7473
  0
LINE
  8
0
 10
673.577
 20
69.7473
 11
673.375
 21
69.6184
  0
LINE
  8
0
 10
673.375
 20
69.6184
 11
673.162
 21
69.5076
  0
LINE
  8
0
 10
673.162
 20
69.5076
 11
672.941
 21
69.4158
  0
LINE
  8
0
 10
672.941
 20
69.4158
 11
672.712
 21
69.3437
  0
LINE
  8
0
 10
672.712
 20
69.3437
 11
672.478
 21
69.2918
  0
LINE
  8
0
 10
672.478
 20
69.2918
 11
672.24
 21
69.2605
  0
LINE
  8
0
 10
672.24
 20
69.2605
 11
672
 21
69.25
  0
LINE
  8
0
 10
672
 20
69.25
 11
671.76
 21
69.2605
  0
LINE
  8
0
 10
33
 20
22
 11
33
 21
58
  0
LINE
  8
0
 10
33
 20
58
 11
47
 21
58
  0
LINE
  8
0
 10
47
 20
58
 11
47
 21
22
  0
LINE
  8
0
 10
47
 20
22
 11
33
 21
22
  0
LINE
  8
0
 10
73
 20
22
 11
73
 21
58
  0
LINE
  8
0
 10
73
 20
58
 11
87
 21
58
  0
LINE
  8
0
 10
87
 20
58
 11
87
 21
22
  0
LINE
  8
0
 10
87
 20
22
 11
73
 21
22
  0
LINE
  8
0
 10
633
 20
22
 11
633
 21
58
  0
LINE
  8
0
 10
633
 20
58
 11
647
 21
58
  0
LINE
  8
0
 10
647
 20
58
 11
647
 21
22
  0
LINE
  8
0
 10
647
 20
22
 11
633
 21
22
  0
LINE
  8
0
 10
393
 20
22
 11
393
 21
58
  0
LINE
  8
0
 10
393
 20
58
 11
407
 21
58
  0
LINE
  8
0
 10
407
 20
58
 11
407
 21
22
  0
LINE
  8
0
 10
407
 20
22
 11
393
 21
22
  0
LINE
  8
0
 10
113
 20
22
 11
113
 21
58
  0
LINE
  8
0
 10
113
 20
58
 11
127
 21
58
  0
LINE
  8
0
 10
127
 20
58
 11
127
 21
22
  0
LINE
  8
0
 10
127
 20
22
 11
113
 21
22
  0
LINE
  8
0
 10
433
 20
22
 11
433
 21
58
  0
LINE
  8
0
 10
433
 20
58
 11
447
 21
58
  0
LINE
  8
0
 10
447
 20
58
 11
447
 21
22
  0
LINE
  8
0
 10
447
 20
22
 11
433
 21
22
  0
LINE
  8
0
 10
593
 20
22
 11
593
 21
58
  0
LINE
  8
0
 10
593
 20
58
 11
607
 21
58
  0
LINE
  8
0
 10
607
 20
58
 11
607
 21
22
  0
LINE
  8
0
 10
607
 20
22
 11
593
 21
22
  0
LINE
  8
0
 10
353
 20
22
 11
353
 21
58
  0
LINE
  8
0
 10
353
 20
58
 11
367
 21
58
  0
LINE
  8
0
 10
367
 20
58
 11
367
 21
22
  0
LINE
  8
0
 10
367
 20
22
 11
353
 21
22
  0
LINE
  8
0
 10
193
 20
22
 11
193
 21
58
  0
LINE
  8
0
 10
193
 20
58
 11
207
 21
58
  0
LINE
  8
0
 10
207
 20
58
 11
207
 21
22
  0
LINE
  8
0
 10
207
 20
22
 11
193
 21
22
  0
LINE
  8
0
 10
553
 20
22
 11
553
 21
58
  0
LINE
  8
0
 10
553
 20
58
 11
567
 21
58
  0
LINE
  8
0
 10
567
 20
58
 11
567
 21
22
  0
LINE
  8
0
 10
567
 20
22
 11
553
 21
22
  0
LINE
  8
0
 10
233
 20
22
 11
233
 21
58
  0
LINE
  8
0
 10
233
 20
58
 11
247
 21
58
  0
LINE
  8
0
 10
247
 20
58
 11
247
 21
22
  0
LINE
  8
0
 10
247
 20
22
 11
233
 21
22
  0
LINE
  8
0
 10
473
 20
22
 11
473
 21
58
  0
LINE
  8
0
 10
473
 20
58
 11
487
 21
58
  0
LINE
  8
0
 10
487
 20
58
 11
487
 21
22
  0
LINE
  8
0
 10
487
 20
22
 11
473
 21
22
  0
LINE
  8
0
 10
513
 20
22
 11
513
 21
58
  0
LINE
  8
0
 10
513
 20
58
 11
527
 21
58
  0
LINE
  8
0
 10
527
 20
58
 11
527
 21
22
  0
LINE
  8
0
 10
527
 20
22
 11
513
 21
22
  0
LINE
  8
0
 10
273
 20
22
 11
273
 21
58
  0
LINE
  8
0
 10
273
 20
58
 11
287
 21
58
  0
LINE
  8
0
 10
287
 20
58
 11
287
 21
22
  0
LINE
  8
0
 10
287
 20
22
 11
273
 21
22
  0
LINE
  8
0
 10
313
 20
22
 11
313
 21
58
  0
LINE
  8
0
 10
313
 20
58
 11
327
 21
58
  0
LINE
  8
0
 10
327
 20
58
 11
327
 21
22
  0
LINE
  8
0
 10
327
 20
22
 11
313
 21
22
  0
LINE
  8
0
 10
153
 20
22
 11
153
 21
58
  0
LINE
  8
0
 10
153
 20
58
 11
167
 21
58
  0
LINE
  8
0
 10
167
 20
58
 11
167
 21
22
  0
LINE
  8
0
 10
167
 20
22
 11
153
 21
22
  0
LINE
  8
0
 10
107.852
 20
38.3065
 11
107.705
 21
38.3258
  0
LINE
  8
0
 10
107.705
 20
38.3258
 11
107.56
 21
38.3579
  0
LINE
  8
0
 10
107.56
 20
38.3579
 11
107.419
 21
38.4025
  0
LINE
  8
0
 10
107.419
 20
38.4025
 11
107.282
 21
38.4593
  0
LINE
  8
0
 10
107.282
 20
38.4593
 11
107.15
 21
38.5278
  0
LINE
  8
0
 10
107.15
 20
38.5278
 11
107.025
 21
38.6075
  0
LINE
  8
0
 10
107.025
 20
38.6075
 11
106.907
 21
38.6977
  0
LINE
  8
0
 10
106.907
 20
38.6977
 11
106.798
 21
38.7979
  0
LINE
  8
0
 10
106.798
 20
38.7979
 11
106.698
 21
38.9073
  0
LINE
  8
0
 10
106.698
 20
38.9073
 11
106.607
 21
39.0249
  0
LINE
  8
0
 10
106.607
 20
39.0249
 11
106.528
 21
39.15
  0
LINE
  8
0
 10
106.528
 20
39.15
 11
106.459
 21
39.2816
  0
LINE
  8
0
 10
106.459
 20
39.2816
 11
106.403
 21
39.4186
  0
LINE
  8
0
 10
106.403
 20
39.4186
 11
106.358
 21
39.56
  0
LINE
  8
0
 10
106.358
 20
39.56
 11
106.326
 21
39.7048
  0
LINE
  8
0
 10
106.326
 20
39.7048
 11
106.306
 21
39.8518
  0
LINE
  8
0
 10
106.306
 20
39.8518
 11
106.3
 21
40
  0
LINE
  8
0
 10
106.3
 20
40
 11
106.306
 21
40.1482
  0
LINE
  8
0
 10
106.306
 20
40.1482
 11
106.326
 21
40.2952
  0
LINE
  8
0
 10
106.326
 20
40.2952
 11
106.358
 21
40.44
  0
LINE
  8
0
 10
106.358
 20
40.44
 11
106.403
 21
40.5814
  0
LINE
  8
0
 10
106.403
 20
40.5814
 11
106.459
 21
40.7184
  0
LINE
  8
0
 10
106.459
 20
40.7184
 11
106.528
 21
40.85
  0
LINE
  8
0
 10
106.528
 20
40.85
 11
106.607
 21
40.9751
  0
LINE
  8
0
 10
106.607
 20
40.9751
 11
106.698
 21
41.0927
  0
LINE
  8
0
 10
106.698
 20
41.0927
 11
106.798
 21
41.2021
  0
LINE
  8
0
 10
106.798
 20
41.2021
 11
106.907
 21
41.3023
  0
LINE
  8
0
 10
106.907
 20
41.3023
 11
107.025
 21
41.3925
  0
LINE
  8
0
 10
107.025
 20
41.3925
 11
107.15
 21
41.4722
  0
LINE
  8
0
 10
107.15
 20
41.4722
 11
107.282
 21
41.5407
  0
LINE
  8
0
 10
107.282
 20
41.5407
 11
107.419
 21
41.5975
  0
LINE
  8
0
 10
107.419
 20
41.5975
 11
107.56
 21
41.6421
  0
LINE
  8
0
 10
107.56
 20
41.6421
 11
107.705
 21
41.6742
  0
LINE
  8
0
 10
107.705
 20
41.6742
 11
107.852
 21
41.6935
  0
LINE
  8
0
 10
107.852
 20
41.6935
 11
108
 21
41.7
  0
LINE
  8
0
 10
108
 20
41.7
 11
108.148
 21
41.6935
  0
LINE
  8
0
 10
108.148
 20
41.6935
 11
108.295
 21
41.6742
  0
LINE
  8
0
 10
108.295
 20
41.6742
 11
108.44
 21
41.6421
  0
LINE
  8
0
 10
108.44
 20
41.6421
 11
108.581
 21
41.5975
  0
LINE
  8
0
 10
108.581
 20
41.5975
 11
108.718
 21
41.5407
  0
LINE
  8
0
 10
108.718
 20
41.5407
 11
108.85
 21
41.4722
  0
LINE
  8
0
 10
108.85
 20
41.4722
 11
108.975
 21
41.3925
  0
LINE
  8
0
 10
108.975
 20
41.3925
 11
109.093
 21
41.3023
  0
LINE
  8
0
 10
109.093
 20
41.3023
 11
109.202
 21
41.2021
  0
LINE
  8
0
 10
109.202
 20
41.2021
 11
109.302
 21
41.0927
  0
LINE
  8
0
 10
109.302
 20
41.0927
 11
109.393
 21
40.9751
  0
LINE
  8
0
 10
109.393
 20
40.9751
 11
109.472
 21
40.85
  0
LINE
  8
0
 10
109.472
 20
40.85
 11
109.541
 21
40.7184
  0
LINE
  8
0
 10
109.541
 20
40.7184
 11
109.597
 21
40.5814
  0
LINE
  8
0
 10
109.597
 20
40.5814
 11
109.642
 21
40.44
  0
LINE
  8
0
 10
109.642
 20
40.44
 11
109.674
 21
40.2952
  0
LINE
  8
0
 10
109.674
 20
40.2952
 11
109.694
 21
40.1482
  0
LINE
  8
0
 10
109.694
 20
40.1482
 11
109.7
 21
40
  0
LINE
  8
0
 10
109.7
 20
40
 11
109.694
 21
39.8518
  0
LINE
  8
0
 10
109.694
 20
39.8518
 11
109.674
 21
39.7048
  0
LINE
  8
0
 10
109.674
 20
39.7048
 11
109.642
 21
39.56
  0
LINE
  8
0
 10
109.642
 20
39.56
 11
109.597
 21
39.4186
  0
LINE
  8
0
 10
109.597
 20
39.4186
 11
109.541
 21
39.2816
  0
LINE
  8
0
 10
109.541
 20
39.2816
 11
109.472
 21
39.15
  0
LINE
  8
0
 10
109.472
 20
39.15
 11
109.393
 21
39.0249
  0
LINE
  8
0
 10
109.393
 20
39.0249
 11
109.302
 21
38.9073
  0
LINE
  8
0
 10
109.302
 20
38.9073
 11
109.202
 21
38.7979
  0
LINE
  8
0
 10
109.202
 20
38.7979
 11
109.093
 21
38.6977
  0
LINE
  8
0
 10
109.093
 20
38.6977
 11
108.975
 21
38.6075
  0
LINE
  8
0
 10
108.975
 20
38.6075
 11
108.85
 21
38.5278
  0
LINE
  8
0
 10
108.85
 20
38.5278
 11
108.718
 21
38.4593
  0
LINE
  8
0
 10
108.718
 20
38.4593
 11
108.581
 21
38.4025
  0
LINE
  8
0
 10
108.581
 20
38.4025
 11
108.44
 21
38.3579
  0
LINE
  8
0
 10
108.44
 20
38.3579
 11
108.295
 21
38.3258
  0
LINE
  8
0
 10
108.295
 20
38.3258
 11
108.148
 21
38.3065
  0
LINE
  8
0
 10
108.148
 20
38.3065
 11
108
 21
38.3
  0
LINE
  8
0
 10
108
 20
38.3
 11
107.852
 21
38.3065
  0
LINE
  8
0
 10
131.852
 20
38.3065
 11
131.705
 21
38.3258
  0
LINE
  8
0
 10
131.705
 20
38.3258
 11
131.56
 21
38.3579
  0
LINE
  8
0
 10
131.56
 20
38.3579
 11
131.419
 21
38.4025
  0
LINE
  8
0
 10
131.419
 20
38.4025
 11
131.282
 21
38.4593
  0
LINE
  8
0
 10
131.282
 20
38.4593
 11
131.15
 21
38.5278
  0
LINE
  8
0
 10
131.15
 20
38.5278
 11
131.025
 21
38.6075
  0
LINE
  8
0
 10
131.025
 20
38.6075
 11
130.907
 21
38.6977
  0
LINE
  8
0
 10
130.907
 20
38.6977
 11
130.798
 21
38.7979
  0
LINE
  8
0
 10
130.798
 20
38.7979
 11
130.698
 21
38.9073
  0
LINE
  8
0
 10
130.698
 20
38.9073
 11
130.607
 21
39.0249
  0
LINE
  8
0
 10
130.607
 20
39.0249
 11
130.528
 21
39.15
  0
LINE
  8
0
 10
130.528
 20
39.15
 11
130.459
 21
39.2816
  0
LINE
  8
0
 10
130.459
 20
39.2816
 11
130.403
 21
39.4186
  0
LINE
  8
0
 10
130.403
 20
39.4186
 11
130.358
 21
39.56
  0
LINE
  8
0
 10
130.358
 20
39.56
 11
130.326
 21
39.7048
  0
LINE
  8
0
 10
130.326
 20
39.7048
 11
130.306
 21
39.8518
  0
LINE
  8
0
 10
130.306
 20
39.8518
 11
130.3
 21
40
  0
LINE
  8
0
 10
130.3
 20
40
 11
130.306
 21
40.1482
  0
LINE
  8
0
 10
130.306
 20
40.1482
 11
130.326
 21
40.2952
  0
LINE
  8
0
 10
130.326
 20
40.2952
 11
130.358
 21
40.44
  0
LINE
  8
0
 10
130.358
 20
40.44
 11
130.403
 21
40.5814
  0
LINE
  8
0
 10
130.403
 20
40.5814
 11
130.459
 21
40.7184
  0
LINE
  8
0
 10
130.459
 20
40.7184
 11
130.528
 21
40.85
  0
LINE
  8
0
 10
130.528
 20
40.85
 11
130.607
 21
40.9751
  0
LINE
  8
0
 10
130.607
 20
40.9751
 11
130.698
 21
41.0927
  0
LINE
  8
0
 10
130.698
 20
41.0927
 11
130.798
 21
41.2021
  0
LINE
  8
0
 10
130.798
 20
41.2021
 11
130.907
 21
41.3023
  0
LINE
  8
0
 10
130.907
 20
41.3023
 11
131.025
 21
41.3925
  0
LINE
  8
0
 10
131.025
 20
41.3925
 11
131.15
 21
41.4722
  0
LINE
  8
0
 10
131.15
 20
41.4722
 11
131.282
 21
41.5407
  0
LINE
  8
0
 10
131.282
 20
41.5407
 11
131.419
 21
41.5975
  0
LINE
  8
0
 10
131.419
 20
41.5975
 11
131.56
 21
41.6421
  0
LINE
  8
0
 10
131.56
 20
41.6421
 11
131.705
 21
41.6742
  0
LINE
  8
0
 10
131.705
 20
41.6742
 11
131.852
 21
41.6935
  0
LINE
  8
0
 10
131.852
 20
41.6935
 11
132
 21
41.7
  0
LINE
  8
0
 10
132
 20
41.7
 11
132.148
 21
41.6935
  0
LINE
  8
0
 10
132.148
 20
41.6935
 11
132.295
 21
41.6742
  0
LINE
  8
0
 10
132.295
 20
41.6742
 11
132.44
 21
41.6421
  0
LINE
  8
0
 10
132.44
 20
41.6421
 11
132.581
 21
41.5975
  0
LINE
  8
0
 10
132.581
 20
41.5975
 11
132.718
 21
41.5407
  0
LINE
  8
0
 10
132.718
 20
41.5407
 11
132.85
 21
41.4722
  0
LINE
  8
0
 10
132.85
 20
41.4722
 11
132.975
 21
41.3925
  0
LINE
  8
0
 10
132.975
 20
41.3925
 11
133.093
 21
41.3023
  0
LINE
  8
0
 10
133.093
 20
41.3023
 11
133.202
 21
41.2021
  0
LINE
  8
0
 10
133.202
 20
41.2021
 11
133.302
 21
41.0927
  0
LINE
  8
0
 10
133.302
 20
41.0927
 11
133.393
 21
40.9751
  0
LINE
  8
0
 10
133.393
 20
40.9751
 11
133.472
 21
40.85
  0
LINE
  8
0
 10
133.472
 20
40.85
 11
133.541
 21
40.7184
  0
LINE
  8
0
 10
133.541
 20
40.7184
 11
133.597
 21
40.5814
  0
LINE
  8
0
 10
133.597
 20
40.5814
 11
133.642
 21
40.44
  0
LINE
  8
0
 10
133.642
 20
40.44
 11
133.674
 21
40.2952
  0
LINE
  8
0
 10
133.674
 20
40.2952
 11
133.694
 21
40.1482
  0
LINE
  8
0
 10
133.694
 20
40.1482
 11
133.7
 21
40
  0
LINE
  8
0
 10
133.7
 20
40
 11
133.694
 21
39.8518
  0
LINE
  8
0
 10
133.694
 20
39.8518
 11
133.674
 21
39.7048
  0
LINE
  8
0
 10
133.674
 20
39.7048
 11
133.642
 21
39.56
  0
LINE
  8
0
 10
133.642
 20
39.56
 11
133.597
 21
39.4186
  0
LINE
  8
0
 10
133.597
 20
39.4186
 11
133.541
 21
39.2816
  0
LINE
  8
0
 10
133.541
 20
39.2816
 11
133.472
 21
39.15
  0
LINE
  8
0
 10
133.472
 20
39.15
 11
133.393
 21
39.0249
  0
LINE
  8
0
 10
133.393
 20
39.0249
 11
133.302
 21
38.9073
  0
LINE
  8
0
 10
133.302
 20
38.9073
 11
133.202
 21
38.7979
  0
LINE
  8
0
 10
133.202
 20
38.7979
 11
133.093
 21
38.6977
  0
LINE
  8
0
 10
133.093
 20
38.6977
 11
132.975
 21
38.6075
  0
LINE
  8
0
 10
132.975
 20
38.6075
 11
132.85
 21
38.5278
  0
LINE
  8
0
 10
132.85
 20
38.5278
 11
132.718
 21
38.4593
  0
LINE
  8
0
 10
132.718
 20
38.4593
 11
132.581
 21
38.4025
  0
LINE
  8
0
 10
132.581
 20
38.4025
 11
132.44
 21
38.3579
  0
LINE
  8
0
 10
132.44
 20
38.3579
 11
132.295
 21
38.3258
  0
LINE
  8
0
 10
132.295
 20
38.3258
 11
132.148
 21
38.3065
  0
LINE
  8
0
 10
132.148
 20
38.3065
 11
132
 21
38.3
  0
LINE
  8
0
 10
132
 20
38.3
 11
131.852
 21
38.3065
  0
LINE
  8
0
 10
147.852
 20
38.3065
 11
147.705
 21
38.3258
  0
LINE
  8
0
 10
147.705
 20
38.3258
 11
147.56
 21
38.3579
  0
LINE
  8
0
 10
147.56
 20
38.3579
 11
147.419
 21
38.4025
  0
LINE
  8
0
 10
147.419
 20
38.4025
 11
147.282
 21
38.4593
  0
LINE
  8
0
 10
147.282
 20
38.4593
 11
147.15
 21
38.5278
  0
LINE
  8
0
 10
147.15
 20
38.5278
 11
147.025
 21
38.6075
  0
LINE
  8
0
 10
147.025
 20
38.6075
 11
146.907
 21
38.6977
  0
LINE
  8
0
 10
146.907
 20
38.6977
 11
146.798
 21
38.7979
  0
LINE
  8
0
 10
146.798
 20
38.7979
 11
146.698
 21
38.9073
  0
LINE
  8
0
 10
146.698
 20
38.9073
 11
146.607
 21
39.0249
  0
LINE
  8
0
 10
146.607
 20
39.0249
 11
146.528
 21
39.15
  0
LINE
  8
0
 10
146.528
 20
39.15
 11
146.459
 21
39.2816
  0
LINE
  8
0
 10
146.459
 20
39.2816
 11
146.403
 21
39.4186
  0
LINE
  8
0
 10
146.403
 20
39.4186
 11
146.358
 21
39.56
  0
LINE
  8
0
 10
146.358
 20
39.56
 11
146.326
 21
39.7048
  0
LINE
  8
0
 10
146.326
 20
39.7048
 11
146.306
 21
39.8518
  0
LINE
  8
0
 10
146.306
 20
39.8518
 11
146.3
 21
40
  0
LINE
  8
0
 10
146.3
 20
40
 11
146.306
 21
40.1482
  0
LINE
  8
0
 10
146.306
 20
40.1482
 11
146.326
 21
40.2952
  0
LINE
  8
0
 10
146.326
 20
40.2952
 11
146.358
 21
40.44
  0
LINE
  8
0
 10
146.358
 20
40.44
 11
146.403
 21
40.5814
  0
LINE
  8
0
 10
146.403
 20
40.5814
 11
146.459
 21
40.7184
  0
LINE
  8
0
 10
146.459
 20
40.7184
 11
146.528
 21
40.85
  0
LINE
  8
0
 10
146.528
 20
40.85
 11
146.607
 21
40.9751
  0
LINE
  8
0
 10
146.607
 20
40.9751
 11
146.698
 21
41.0927
  0
LINE
  8
0
 10
146.698
 20
41.0927
 11
146.798
 21
41.2021
  0
LINE
  8
0
 10
146.798
 20
41.2021
 11
146.907
 21
41.3023
  0
LINE
  8
0
 10
146.907
 20
41.3023
 11
147.025
 21
41.3925
  0
LINE
  8
0
 10
147.025
 20
41.3925
 11
147.15
 21
41.4722
  0
LINE
  8
0
 10
147.15
 20
41.4722
 11
147.282
 21
41.5407
  0
LINE
  8
0
 10
147.282
 20
41.5407
 11
147.419
 21
41.5975
  0
LINE
  8
0
 10
147.419
 20
41.5975
 11
147.56
 21
41.6421
  0
LINE
  8
0
 10
147.56
 20
41.6421
 11
147.705
 21
41.6742
  0
LINE
  8
0
 10
147.705
 20
41.6742
 11
147.852
 21
41.6935
  0
LINE
  8
0
 10
147.852
 20
41.6935
 11
148
 21
41.7
  0
LINE
  8
0
 10
148
 20
41.7
 11
148.148
 21
41.6935
  0
LINE
  8
0
 10
148.148
 20
41.6935
 11
148.295
 21
41.6742
  0
LINE
  8
0
 10
148.295
 20
41.6742
 11
148.44
 21
41.6421
  0
LINE
  8
0
 10
148.44
 20
41.6421
 11
148.581
 21
41.5975
  0
LINE
  8
0
 10
148.581
 20
41.5975
 11
148.718
 21
41.5407
  0
LINE
  8
0
 10
148.718
 20
41.5407
 11
148.85
 21
41.4722
  0
LINE
  8
0
 10
148.85
 20
41.4722
 11
148.975
 21
41.3925
  0
LINE
  8
0
 10
148.975
 20
41.3925
 11
149.093
 21
41.3023
  0
LINE
  8
0
 10
149.093
 20
41.3023
 11
149.202
 21
41.2021
  0
LINE
  8
0
 10
149.202
 20
41.2021
 11
149.302
 21
41.0927
  0
LINE
  8
0
 10
149.302
 20
41.0927
 11
149.393
 21
40.9751
  0
LINE
  8
0
 10
149.393
 20
40.9751
 11
149.472
 21
40.85
  0
LINE
  8
0
 10
149.472
 20
40.85
 11
149.541
 21
40.7184
  0
LINE
  8
0
 10
149.541
 20
40.7184
 11
149.597
 21
40.5814
  0
LINE
  8
0
 10
149.597
 20
40.5814
 11
149.642
 21
40.44
  0
LINE
  8
0
 10
149.642
 20
40.44
 11
149.674
 21
40.2952
  0
LINE
  8
0
 10
149.674
 20
40.2952
 11
149.694
 21
40.1482
  0
LINE
  8
0
 10
149.694
 20
40.1482
 11
149.7
 21
40
  0
LINE
  8
0
 10
149.7
 20
40
 11
149.694
 21
39.8518
  0
LINE
  8
0
 10
149.694
 20
39.8518
 11
149.674
 21
39.7048
  0
LINE
  8
0
 10
149.674
 20
39.7048
 11
149.642
 21
39.56
  0
LINE
  8
0
 10
149.642
 20
39.56
 11
149.597
 21
39.4186
  0
LINE
  8
0
 10
149.597
 20
39.4186
 11
149.541
 21
39.2816
  0
LINE
  8
0
 10
149.541
 20
39.2816
 11
149.472
 21
39.15
  0
LINE
  8
0
 10
149.472
 20
39.15
 11
149.393
 21
39.0249
  0
LINE
  8
0
 10
149.393
 20
39.0249
 11
149.302
 21
38.9073
  0
LINE
  8
0
 10
149.302
 20
38.9073
 11
149.202
 21
38.7979
  0
LINE
  8
0
 10
149.202
 20
38.7979
 11
149.093
 21
38.6977
  0
LINE
  8
0
 10
149.093
 20
38.6977
 11
148.975
 21
38.6075
  0
LINE
  8
0
 10
148.975
 20
38.6075
 11
148.85
 21
38.5278
  0
LINE
  8
0
 10
148.85
 20
38.5278
 11
148.718
 21
38.4593
  0
LINE
  8
0
 10
148.718
 20
38.4593
 11
148.581
 21
38.4025
  0
LINE
  8
0
 10
148.581
 20
38.4025
 11
148.44
 21
38.3579
  0
LINE
  8
0
 10
148.44
 20
38.3579
 11
148.295
 21
38.3258
  0
LINE
  8
0
 10
148.295
 20
38.3258
 11
148.148
 21
38.3065
  0
LINE
  8
0
 10
148.148
 20
38.3065
 11
148
 21
38.3
  0
LINE
  8
0
 10
148
 20
38.3
 11
147.852
 21
38.3065
  0
LINE
  8
0
 10
171.852
 20
38.3065
 11
171.705
 21
38.3258
  0
LINE
  8
0
 10
171.705
 20
38.3258
 11
171.56
 21
38.3579
  0
LINE
  8
0
 10
171.56
 20
38.3579
 11
171.419
 21
38.4025
  0
LINE
  8
0
 10
171.419
 20
38.4025
 11
171.282
 21
38.4593
  0
LINE
  8
0
 10
171.282
 20
38.4593
 11
171.15
 21
38.5278
  0
LINE
  8
0
 10
171.15
 20
38.5278
 11
171.025
 21
38.6075
  0
LINE
  8
0
 10
171.025
 20
38.6075
 11
170.907
 21
38.6977
  0
LINE
  8
0
 10
170.907
 20
38.6977
 11
170.798
 21
38.7979
  0
LINE
  8
0
 10
170.798
 20
38.7979
 11
170.698
 21
38.9073
  0
LINE
  8
0
 10
170.698
 20
38.9073
 11
170.607
 21
39.0249
  0
LINE
  8
0
 10
170.607
 20
39.0249
 11
170.528
 21
39.15
  0
LINE
  8
0
 10
170.528
 20
39.15
 11
170.459
 21
39.2816
  0
LINE
  8
0
 10
170.459
 20
39.2816
 11
170.403
 21
39.4186
  0
LINE
  8
0
 10
170.403
 20
39.4186
 11
170.358
 21
39.56
  0
LINE
  8
0
 10
170.358
 20
39.56
 11
170.326
 21
39.7048
  0
LINE
  8
0
 10
170.326
 20
39.7048
 11
170.306
 21
39.8518
  0
LINE
  8
0
 10
170.306
 20
39.8518
 11
170.3
 21
40
  0
LINE
  8
0
 10
170.3
 20
40
 11
170.306
 21
40.1482
  0
LINE
  8
0
 10
170.306
 20
40.1482
 11
170.326
 21
40.2952
  0
LINE
  8
0
 10
170.326
 20
40.2952
 11
170.358
 21
40.44
  0
LINE
  8
0
 10
170.358
 20
40.44
 11
170.403
 21
40.5814
  0
LINE
  8
0
 10
170.403
 20
40.5814
 11
170.459
 21
40.7184
  0
LINE
  8
0
 10
170.459
 20
40.7184
 11
170.528
 21
40.85
  0
LINE
  8
0
 10
170.528
 20
40.85
 11
170.607
 21
40.9751
  0
LINE
  8
0
 10
170.607
 20
40.9751
 11
170.698
 21
41.0927
  0
LINE
  8
0
 10
170.698
 20
41.0927
 11
170.798
 21
41.2021
  0
LINE
  8
0
 10
170.798
 20
41.2021
 11
170.907
 21
41.3023
  0
LINE
  8
0
 10
170.907
 20
41.3023
 11
171.025
 21
41.3925
  0
LINE
  8
0
 10
171.025
 20
41.3925
 11
171.15
 21
41.4722
  0
LINE
  8
0
 10
171.15
 20
41.4722
 11
171.282
 21
41.5407
  0
LINE
  8
0
 10
171.282
 20
41.5407
 11
171.419
 21
41.5975
  0
LINE
  8
0
 10
171.419
 20
41.5975
 11
171.56
 21
41.6421
  0
LINE
  8
0
 10
171.56
 20
41.6421
 11
171.705
 21
41.6742
  0
LINE
  8
0
 10
171.705
 20
41.6742
 11
171.852
 21
41.6935
  0
LINE
  8
0
 10
171.852
 20
41.6935
 11
172
 21
41.7
  0
LINE
  8
0
 10
172
 20
41.7
 11
172.148
 21
41.6935
  0
LINE
  8
0
 10
172.148
 20
41.6935
 11
172.295
 21
41.6742
  0
LINE
  8
0
 10
172.295
 20
41.6742
 11
172.44
 21
41.6421
  0
LINE
  8
0
 10
172.44
 20
41.6421
 11
172.581
 21
41.5975
  0
LINE
  8
0
 10
172.581
 20
41.5975
 11
172.718
 21
41.5407
  0
LINE
  8
0
 10
172.718
 20
41.5407
 11
172.85
 21
41.4722
  0
LINE
  8
0
 10
172.85
 20
41.4722
 11
172.975
 21
41.3925
  0
LINE
  8
0
 10
172.975
 20
41.3925
 11
173.093
 21
41.3023
  0
LINE
  8
0
 10
173.093
 20
41.3023
 11
173.202
 21
41.2021
  0
LINE
  8
0
 10
173.202
 20
41.2021
 11
173.302
 21
41.0927
  0
LINE
  8
0
 10
173.302
 20
41.0927
 11
173.393
 21
40.9751
  0
LINE
  8
0
 10
173.393
 20
40.9751
 11
173.472
 21
40.85
  0
LINE
  8
0
 10
173.472
 20
40.85
 11
173.541
 21
40.7184
  0
LINE
  8
0
 10
173.541
 20
40.7184
 11
173.597
 21
40.5814
  0
LINE
  8
0
 10
173.597
 20
40.5814
 11
173.642
 21
40.44
  0
LINE
  8
0
 10
173.642
 20
40.44
 11
173.674
 21
40.2952
  0
LINE
  8
0
 10
173.674
 20
40.2952
 11
173.694
 21
40.1482
  0
LINE
  8
0
 10
173.694
 20
40.1482
 11
173.7
 21
40
  0
LINE
  8
0
 10
173.7
 20
40
 11
173.694
 21
39.8518
  0
LINE
  8
0
 10
173.694
 20
39.8518
 11
173.674
 21
39.7048
  0
LINE
  8
0
 10
173.674
 20
39.7048
 11
173.642
 21
39.56
  0
LINE
  8
0
 10
173.642
 20
39.56
 11
173.597
 21
39.4186
  0
LINE
  8
0
 10
173.597
 20
39.4186
 11
173.541
 21
39.2816
  0
LINE
  8
0
 10
173.541
 20
39.2816
 11
173.472
 21
39.15
  0
LINE
  8
0
 10
173.472
 20
39.15
 11
173.393
 21
39.0249
  0
LINE
  8
0
 10
173.393
 20
39.0249
 11
173.302
 21
38.9073
  0
LINE
  8
0
 10
173.302
 20
38.9073
 11
173.202
 21
38.7979
  0
LINE
  8
0
 10
173.202
 20
38.7979
 11
173.093
 21
38.6977
  0
LINE
  8
0
 10
173.093
 20
38.6977
 11
172.975
 21
38.6075
  0
LINE
  8
0
 10
172.975
 20
38.6075
 11
172.85
 21
38.5278
  0
LINE
  8
0
 10
172.85
 20
38.5278
 11
172.718
 21
38.4593
  0
LINE
  8
0
 10
172.718
 20
38.4593
 11
172.581
 21
38.4025
  0
LINE
  8
0
 10
172.581
 20
38.4025
 11
172.44
 21
38.3579
  0
LINE
  8
0
 10
172.44
 20
38.3579
 11
172.295
 21
38.3258
  0
LINE
  8
0
 10
172.295
 20
38.3258
 11
172.148
 21
38.3065
  0
LINE
  8
0
 10
172.148
 20
38.3065
 11
172
 21
38.3
  0
LINE
  8
0
 10
172
 20
38.3
 11
171.852
 21
38.3065
  0
LINE
  8
0
 10
187.852
 20
38.3065
 11
187.705
 21
38.3258
  0
LINE
  8
0
 10
187.705
 20
38.3258
 11
187.56
 21
38.3579
  0
LINE
  8
0
 10
187.56
 20
38.3579
 11
187.419
 21
38.4025
  0
LINE
  8
0
 10
187.419
 20
38.4025
 11
187.282
 21
38.4593
  0
LINE
  8
0
 10
187.282
 20
38.4593
 11
187.15
 21
38.5278
  0
LINE
  8
0
 10
187.15
 20
38.5278
 11
187.025
 21
38.6075
  0
LINE
  8
0
 10
187.025
 20
38.6075
 11
186.907
 21
38.6977
  0
LINE
  8
0
 10
186.907
 20
38.6977
 11
186.798
 21
38.7979
  0
LINE
  8
0
 10
186.798
 20
38.7979
 11
186.698
 21
38.9073
  0
LINE
  8
0
 10
186.698
 20
38.9073
 11
186.607
 21
39.0249
  0
LINE
  8
0
 10
186.607
 20
39.0249
 11
186.528
 21
39.15
  0
LINE
  8
0
 10
186.528
 20
39.15
 11
186.459
 21
39.2816
  0
LINE
  8
0
 10
186.459
 20
39.2816
 11
186.403
 21
39.4186
  0
LINE
  8
0
 10
186.403
 20
39.4186
 11
186.358
 21
39.56
  0
LINE
  8
0
 10
186.358
 20
39.56
 11
186.326
 21
39.7048
  0
LINE
  8
0
 10
186.326
 20
39.7048
 11
186.306
 21
39.8518
  0
LINE
  8
0
 10
186.306
 20
39.8518
 11
186.3
 21
40
  0
LINE
  8
0
 10
186.3
 20
40
 11
186.306
 21
40.1482
  0
LINE
  8
0
 10
186.306
 20
40.1482
 11
186.326
 21
40.2952
  0
LINE
  8
0
 10
186.326
 20
40.2952
 11
186.358
 21
40.44
  0
LINE
  8
0
 10
186.358
 20
40.44
 11
186.403
 21
40.5814
  0
LINE
  8
0
 10
186.403
 20
40.5814
 11
186.459
 21
40.7184
  0
LINE
  8
0
 10
186.459
 20
40.7184
 11
186.528
 21
40.85
  0
LINE
  8
0
 10
186.528
 20
40.85
 11
186.607
 21
40.9751
  0
LINE
  8
0
 10
186.607
 20
40.9751
 11
186.698
 21
41.0927
  0
LINE
  8
0
 10
186.698
 20
41.0927
 11
186.798
 21
41.2021
  0
LINE
  8
0
 10
186.798
 20
41.2021
 11
186.907
 21
41.3023
  0
LINE
  8
0
 10
186.907
 20
41.3023
 11
187.025
 21
41.3925
  0
LINE
  8
0
 10
187.025
 20
41.3925
 11
187.15
 21
41.4722
  0
LINE
  8
0
 10
187.15
 20
41.4722
 11
187.282
 21
41.5407
  0
LINE
  8
0
 10
187.282
 20
41.5407
 11
187.419
 21
41.5975
  0
LINE
  8
0
 10
187.419
 20
41.5975
 11
187.56
 21
41.6421
  0
LINE
  8
0
 10
187.56
 20
41.6421
 11
187.705
 21
41.6742
  0
LINE
  8
0
 10
187.705
 20
41.6742
 11
187.852
 21
41.6935
  0
LINE
  8
0
 10
187.852
 20
41.6935
 11
188
 21
41.7
  0
LINE
  8
0
 10
188
 20
41.7
 11
188.148
 21
41.6935
  0
LINE
  8
0
 10
188.148
 20
41.6935
 11
188.295
 21
41.6742
  0
LINE
  8
0
 10
188.295
 20
41.6742
 11
188.44
 21
41.6421
  0
LINE
  8
0
 10
188.44
 20
41.6421
 11
188.581
 21
41.5975
  0
LINE
  8
0
 10
188.581
 20
41.5975
 11
188.718
 21
41.5407
  0
LINE
  8
0
 10
188.718
 20
41.5407
 11
188.85
 21
41.4722
  0
LINE
  8
0
 10
188.85
 20
41.4722
 11
188.975
 21
41.3925
  0
LINE
  8
0
 10
188.975
 20
41.3925
 11
189.093
 21
41.3023
  0
LINE
  8
0
 10
189.093
 20
41.3023
 11
189.202
 21
41.2021
  0
LINE
  8
0
 10
189.202
 20
41.2021
 11
189.302
 21
41.0927
  0
LINE
  8
0
 10
189.302
 20
41.0927
 11
189.393
 21
40.9751
  0
LINE
  8
0
 10
189.393
 20
40.9751
 11
189.472
 21
40.85
  0
LINE
  8
0
 10
189.472
 20
40.85
 11
189.541
 21
40.7184
  0
LINE
  8
0
 10
189.541
 20
40.7184
 11
189.597
 21
40.5814
  0
LINE
  8
0
 10
189.597
 20
40.5814
 11
189.642
 21
40.44
  0
LINE
  8
0
 10
189.642
 20
40.44
 11
189.674
 21
40.2952
  0
LINE
  8
0
 10
189.674
 20
40.2952
 11
189.694
 21
40.1482
  0
LINE
  8
0
 10
189.694
 20
40.1482
 11
189.7
 21
40
  0
LINE
  8
0
 10
189.7
 20
40
 11
189.694
 21
39.8518
  0
LINE
  8
0
 10
189.694
 20
39.8518
 11
189.674
 21
39.7048
  0
LINE
  8
0
 10
189.674
 20
39.7048
 11
189.642
 21
39.56
  0
LINE
  8
0
 10
189.642
 20
39.56
 11
189.597
 21
39.4186
  0
LINE
  8
0
 10
189.597
 20
39.4186
 11
189.541
 21
39.2816
  0
LINE
  8
0
 10
189.541
 20
39.2816
 11
189.472
 21
39.15
  0
LINE
  8
0
 10
189.472
 20
39.15
 11
189.393
 21
39.0249
  0
LINE
  8
0
 10
189.393
 20
39.0249
 11
189.302
 21
38.9073
  0
LINE
  8
0
 10
189.302
 20
38.9073
 11
189.202
 21
38.7979
  0
LINE
  8
0
 10
189.202
 20
38.7979
 11
189.093
 21
38.6977
  0
LINE
  8
0
 10
189.093
 20
38.6977
 11
188.975
 21
38.6075
  0
LINE
  8
0
 10
188.975
 20
38.6075
 11
188.85
 21
38.5278
  0
LINE
  8
0
 10
188.85
 20
38.5278
 11
188.718
 21
38.4593
  0
LINE
  8
0
 10
188.718
 20
38.4593
 11
188.581
 21
38.4025
  0
LINE
  8
0
 10
188.581
 20
38.4025
 11
188.44
 21
38.3579
  0
LINE
  8
0
 10
188.44
 20
38.3579
 11
188.295
 21
38.3258
  0
LINE
  8
0
 10
188.295
 20
38.3258
 11
188.148
 21
38.3065
  0
LINE
  8
0
 10
188.148
 20
38.3065
 11
188
 21
38.3
  0
LINE
  8
0
 10
188
 20
38.3
 11
187.852
 21
38.3065
  0
LINE
  8
0
 10
387.852
 20
38.3065
 11
387.705
 21
38.3258
  0
LINE
  8
0
 10
387.705
 20
38.3258
 11
387.56
 21
38.3579
  0
LINE
  8
0
 10
387.56
 20
38.3579
 11
387.419
 21
38.4025
  0
LINE
  8
0
 10
387.419
 20
38.4025
 11
387.282
 21
38.4593
  0
LINE
  8
0
 10
387.282
 20
38.4593
 11
387.15
 21
38.5278
  0
LINE
  8
0
 10
387.15
 20
38.5278
 11
387.025
 21
38.6075
  0
LINE
  8
0
 10
387.025
 20
38.6075
 11
386.907
 21
38.6977
  0
LINE
  8
0
 10
386.907
 20
38.6977
 11
386.798
 21
38.7979
  0
LINE
  8
0
 10
386.798
 20
38.7979
 11
386.698
 21
38.9073
  0
LINE
  8
0
 10
386.698
 20
38.9073
 11
386.607
 21
39.0249
  0
LINE
  8
0
 10
386.607
 20
39.0249
 11
386.528
 21
39.15
  0
LINE
  8
0
 10
386.528
 20
39.15
 11
386.459
 21
39.2816
  0
LINE
  8
0
 10
386.459
 20
39.2816
 11
386.403
 21
39.4186
  0
LINE
  8
0
 10
386.403
 20
39.4186
 11
386.358
 21
39.56
  0
LINE
  8
0
 10
386.358
 20
39.56
 11
386.326
 21
39.7048
  0
LINE
  8
0
 10
386.326
 20
39.7048
 11
386.306
 21
39.8518
  0
LINE
  8
0
 10
386.306
 20
39.8518
 11
386.3
 21
40
  0
LINE
  8
0
 10
386.3
 20
40
 11
386.306
 21
40.1482
  0
LINE
  8
0
 10
386.306
 20
40.1482
 11
386.326
 21
40.2952
  0
LINE
  8
0
 10
386.326
 20
40.2952
 11
386.358
 21
40.44
  0
LINE
  8
0
 10
386.358
 20
40.44
 11
386.403
 21
40.5814
  0
LINE
  8
0
 10
386.403
 20
40.5814
 11
386.459
 21
40.7184
  0
LINE
  8
0
 10
386.459
 20
40.7184
 11
386.528
 21
40.85
  0
LINE
  8
0
 10
386.528
 20
40.85
 11
386.607
 21
40.9751
  0
LINE
  8
0
 10
386.607
 20
40.9751
 11
386.698
 21
41.0927
  0
LINE
  8
0
 10
386.698
 20
41.0927
 11
386.798
 21
41.2021
  0
LINE
  8
0
 10
386.798
 20
41.2021
 11
386.907
 21
41.3023
  0
LINE
  8
0
 10
386.907
 20
41.3023
 11
387.025
 21
41.3925
  0
LINE
  8
0
 10
387.025
 20
41.3925
 11
387.15
 21
41.4722
  0
LINE
  8
0
 10
387.15
 20
41.4722
 11
387.282
 21
41.5407
  0
LINE
  8
0
 10
387.282
 20
41.5407
 11
387.419
 21
41.5975
  0
LINE
  8
0
 10
387.419
 20
41.5975
 11
387.56
 21
41.6421
  0
LINE
  8
0
 10
387.56
 20
41.6421
 11
387.705
 21
41.6742
  0
LINE
  8
0
 10
387.705
 20
41.6742
 11
387.852
 21
41.6935
  0
LINE
  8
0
 10
387.852
 20
41.6935
 11
388
 21
41.7
  0
LINE
  8
0
 10
388
 20
41.7
 11
388.148
 21
41.6935
  0
LINE
  8
0
 10
388.148
 20
41.6935
 11
388.295
 21
41.6742
  0
LINE
  8
0
 10
388.295
 20
41.6742
 11
388.44
 21
41.6421
  0
LINE
  8
0
 10
388.44
 20
41.6421
 11
388.581
 21
41.5975
  0
LINE
  8
0
 10
388.581
 20
41.5975
 11
388.718
 21
41.5407
  0
LINE
  8
0
 10
388.718
 20
41.5407
 11
388.85
 21
41.4722
  0
LINE
  8
0
 10
388.85
 20
41.4722
 11
388.975
 21
41.3925
  0
LINE
  8
0
 10
388.975
 20
41.3925
 11
389.093
 21
41.3023
  0
LINE
  8
0
 10
389.093
 20
41.3023
 11
389.202
 21
41.2021
  0
LINE
  8
0
 10
389.202
 20
41.2021
 11
389.302
 21
41.0927
  0
LINE
  8
0
 10
389.302
 20
41.0927
 11
389.393
 21
40.9751
  0
LINE
  8
0
 10
389.393
 20
40.9751
 11
389.472
 21
40.85
  0
LINE
  8
0
 10
389.472
 20
40.85
 11
389.541
 21
40.7184
  0
LINE
  8
0
 10
389.541
 20
40.7184
 11
389.597
 21
40.5814
  0
LINE
  8
0
 10
389.597
 20
40.5814
 11
389.642
 21
40.44
  0
LINE
  8
0
 10
389.642
 20
40.44
 11
389.674
 21
40.2952
  0
LINE
  8
0
 10
389.674
 20
40.2952
 11
389.694
 21
40.1482
  0
LINE
  8
0
 10
389.694
 20
40.1482
 11
389.7
 21
40
  0
LINE
  8
0
 10
389.7
 20
40
 11
389.694
 21
39.8518
  0
LINE
  8
0
 10
389.694
 20
39.8518
 11
389.674
 21
39.7048
  0
LINE
  8
0
 10
389.674
 20
39.7048
 11
389.642
 21
39.56
  0
LINE
  8
0
 10
389.642
 20
39.56
 11
389.597
 21
39.4186
  0
LINE
  8
0
 10
389.597
 20
39.4186
 11
389.541
 21
39.2816
  0
LINE
  8
0
 10
389.541
 20
39.2816
 11
389.472
 21
39.15
  0
LINE
  8
0
 10
389.472
 20
39.15
 11
389.393
 21
39.0249
  0
LINE
  8
0
 10
389.393
 20
39.0249
 11
389.302
 21
38.9073
  0
LINE
  8
0
 10
389.302
 20
38.9073
 11
389.202
 21
38.7979
  0
LINE
  8
0
 10
389.202
 20
38.7979
 11
389.093
 21
38.6977
  0
LINE
  8
0
 10
389.093
 20
38.6977
 11
388.975
 21
38.6075
  0
LINE
  8
0
 10
388.975
 20
38.6075
 11
388.85
 21
38.5278
  0
LINE
  8
0
 10
388.85
 20
38.5278
 11
388.718
 21
38.4593
  0
LINE
  8
0
 10
388.718
 20
38.4593
 11
388.581
 21
38.4025
  0
LINE
  8
0
 10
388.581
 20
38.4025
 11
388.44
 21
38.3579
  0
LINE
  8
0
 10
388.44
 20
38.3579
 11
388.295
 21
38.3258
  0
LINE
  8
0
 10
388.295
 20
38.3258
 11
388.148
 21
38.3065
  0
LINE
  8
0
 10
388.148
 20
38.3065
 11
388
 21
38.3
  0
LINE
  8
0
 10
388
 20
38.3
 11
387.852
 21
38.3065
  0
LINE
  8
0
 10
227.852
 20
38.3065
 11
227.705
 21
38.3258
  0
LINE
  8
0
 10
227.705
 20
38.3258
 11
227.56
 21
38.3579
  0
LINE
  8
0
 10
227.56
 20
38.3579
 11
227.419
 21
38.4025
  0
LINE
  8
0
 10
227.419
 20
38.4025
 11
227.282
 21
38.4593
  0
LINE
  8
0
 10
227.282
 20
38.4593
 11
227.15
 21
38.5278
  0
LINE
  8
0
 10
227.15
 20
38.5278
 11
227.025
 21
38.6075
  0
LINE
  8
0
 10
227.025
 20
38.6075
 11
226.907
 21
38.6977
  0
LINE
  8
0
 10
226.907
 20
38.6977
 11
226.798
 21
38.7979
  0
LINE
  8
0
 10
226.798
 20
38.7979
 11
226.698
 21
38.9073
  0
LINE
  8
0
 10
226.698
 20
38.9073
 11
226.607
 21
39.0249
  0
LINE
  8
0
 10
226.607
 20
39.0249
 11
226.528
 21
39.15
  0
LINE
  8
0
 10
226.528
 20
39.15
 11
226.459
 21
39.2816
  0
LINE
  8
0
 10
226.459
 20
39.2816
 11
226.403
 21
39.4186
  0
LINE
  8
0
 10
226.403
 20
39.4186
 11
226.358
 21
39.56
  0
LINE
  8
0
 10
226.358
 20
39.56
 11
226.326
 21
39.7048
  0
LINE
  8
0
 10
226.326
 20
39.7048
 11
226.306
 21
39.8518
  0
LINE
  8
0
 10
226.306
 20
39.8518
 11
226.3
 21
40
  0
LINE
  8
0
 10
226.3
 20
40
 11
226.306
 21
40.1482
  0
LINE
  8
0
 10
226.306
 20
40.1482
 11
226.326
 21
40.2952
  0
LINE
  8
0
 10
226.326
 20
40.2952
 11
226.358
 21
40.44
  0
LINE
  8
0
 10
226.358
 20
40.44
 11
226.403
 21
40.5814
  0
LINE
  8
0
 10
226.403
 20
40.5814
 11
226.459
 21
40.7184
  0
LINE
  8
0
 10
226.459
 20
40.7184
 11
226.528
 21
40.85
  0
LINE
  8
0
 10
226.528
 20
40.85
 11
226.607
 21
40.9751
  0
LINE
  8
0
 10
226.607
 20
40.9751
 11
226.698
 21
41.0927
  0
LINE
  8
0
 10
226.698
 20
41.0927
 11
226.798
 21
41.2021
  0
LINE
  8
0
 10
226.798
 20
41.2021
 11
226.907
 21
41.3023
  0
LINE
  8
0
 10
226.907
 20
41.3023
 11
227.025
 21
41.3925
  0
LINE
  8
0
 10
227.025
 20
41.3925
 11
227.15
 21
41.4722
  0
LINE
  8
0
 10
227.15
 20
41.4722
 11
227.282
 21
41.5407
  0
LINE
  8
0
 10
227.282
 20
41.5407
 11
227.419
 21
41.5975
  0
LINE
  8
0
 10
227.419
 20
41.5975
 11
227.56
 21
41.6421
  0
LINE
  8
0
 10
227.56
 20
41.6421
 11
227.705
 21
41.6742
  0
LINE
  8
0
 10
227.705
 20
41.6742
 11
227.852
 21
41.6935
  0
LINE
  8
0
 10
227.852
 20
41.6935
 11
228
 21
41.7
  0
LINE
  8
0
 10
228
 20
41.7
 11
228.148
 21
41.6935
  0
LINE
  8
0
 10
228.148
 20
41.6935
 11
228.295
 21
41.6742
  0
LINE
  8
0
 10
228.295
 20
41.6742
 11
228.44
 21
41.6421
  0
LINE
  8
0
 10
228.44
 20
41.6421
 11
228.581
 21
41.5975
  0
LINE
  8
0
 10
228.581
 20
41.5975
 11
228.718
 21
41.5407
  0
LINE
  8
0
 10
228.718
 20
41.5407
 11
228.85
 21
41.4722
  0
LINE
  8
0
 10
228.85
 20
41.4722
 11
228.975
 21
41.3925
  0
LINE
  8
0
 10
228.975
 20
41.3925
 11
229.093
 21
41.3023
  0
LINE
  8
0
 10
229.093
 20
41.3023
 11
229.202
 21
41.2021
  0
LINE
  8
0
 10
229.202
 20
41.2021
 11
229.302
 21
41.0927
  0
LINE
  8
0
 10
229.302
 20
41.0927
 11
229.393
 21
40.9751
  0
LINE
  8
0
 10
229.393
 20
40.9751
 11
229.472
 21
40.85
  0
LINE
  8
0
 10
229.472
 20
40.85
 11
229.541
 21
40.7184
  0
LINE
  8
0
 10
229.541
 20
40.7184
 11
229.597
 21
40.5814
  0
LINE
  8
0
 10
229.597
 20
40.5814
 11
229.642
 21
40.44
  0
LINE
  8
0
 10
229.642
 20
40.44
 11
229.674
 21
40.2952
  0
LINE
  8
0
 10
229.674
 20
40.2952
 11
229.694
 21
40.1482
  0
LINE
  8
0
 10
229.694
 20
40.1482
 11
229.7
 21
40
  0
LINE
  8
0
 10
229.7
 20
40
 11
229.694
 21
39.8518
  0
LINE
  8
0
 10
229.694
 20
39.8518
 11
229.674
 21
39.7048
  0
LINE
  8
0
 10
229.674
 20
39.7048
 11
229.642
 21
39.56
  0
LINE
  8
0
 10
229.642
 20
39.56
 11
229.597
 21
39.4186
  0
LINE
  8
0
 10
229.597
 20
39.4186
 11
229.541
 21
39.2816
  0
LINE
  8
0
 10
229.541
 20
39.2816
 11
229.472
 21
39.15
  0
LINE
  8
0
 10
229.472
 20
39.15
 11
229.393
 21
39.0249
  0
LINE
  8
0
 10
229.393
 20
39.0249
 11
229.302
 21
38.9073
  0
LINE
  8
0
 10
229.302
 20
38.9073
 11
229.202
 21
38.7979
  0
LINE
  8
0
 10
229.202
 20
38.7979
 11
229.093
 21
38.6977
  0
LINE
  8
0
 10
229.093
 20
38.6977
 11
228.975
 21
38.6075
  0
LINE
  8
0
 10
228.975
 20
38.6075
 11
228.85
 21
38.5278
  0
LINE
  8
0
 10
228.85
 20
38.5278
 11
228.718
 21
38.4593
  0
LINE
  8
0
 10
228.718
 20
38.4593
 11
228.581
 21
38.4025
  0
LINE
  8
0
 10
228.581
 20
38.4025
 11
228.44
 21
38.3579
  0
LINE
  8
0
 10
228.44
 20
38.3579
 11
228.295
 21
38.3258
  0
LINE
  8
0
 10
228.295
 20
38.3258
 11
228.148
 21
38.3065
  0
LINE
  8
0
 10
228.148
 20
38.3065
 11
228
 21
38.3
  0
LINE
  8
0
 10
228
 20
38.3
 11
227.852
 21
38.3065
  0
LINE
  8
0
 10
571.852
 20
38.3065
 11
571.705
 21
38.3258
  0
LINE
  8
0
 10
571.705
 20
38.3258
 11
571.56
 21
38.3579
  0
LINE
  8
0
 10
571.56
 20
38.3579
 11
571.419
 21
38.4025
  0
LINE
  8
0
 10
571.419
 20
38.4025
 11
571.282
 21
38.4593
  0
LINE
  8
0
 10
571.282
 20
38.4593
 11
571.15
 21
38.5278
  0
LINE
  8
0
 10
571.15
 20
38.5278
 11
571.025
 21
38.6075
  0
LINE
  8
0
 10
571.025
 20
38.6075
 11
570.907
 21
38.6977
  0
LINE
  8
0
 10
570.907
 20
38.6977
 11
570.798
 21
38.7979
  0
LINE
  8
0
 10
570.798
 20
38.7979
 11
570.698
 21
38.9073
  0
LINE
  8
0
 10
570.698
 20
38.9073
 11
570.607
 21
39.0249
  0
LINE
  8
0
 10
570.607
 20
39.0249
 11
570.528
 21
39.15
  0
LINE
  8
0
 10
570.528
 20
39.15
 11
570.459
 21
39.2816
  0
LINE
  8
0
 10
570.459
 20
39.2816
 11
570.403
 21
39.4186
  0
LINE
  8
0
 10
570.403
 20
39.4186
 11
570.358
 21
39.56
  0
LINE
  8
0
 10
570.358
 20
39.56
 11
570.326
 21
39.7048
  0
LINE
  8
0
 10
570.326
 20
39.7048
 11
570.306
 21
39.8518
  0
LINE
  8
0
 10
570.306
 20
39.8518
 11
570.3
 21
40
  0
LINE
  8
0
 10
570.3
 20
40
 11
570.306
 21
40.1482
  0
LINE
  8
0
 10
570.306
 20
40.1482
 11
570.326
 21
40.2952
  0
LINE
  8
0
 10
570.326
 20
40.2952
 11
570.358
 21
40.44
  0
LINE
  8
0
 10
570.358
 20
40.44
 11
570.403
 21
40.5814
  0
LINE
  8
0
 10
570.403
 20
40.5814
 11
570.459
 21
40.7184
  0
LINE
  8
0
 10
570.459
 20
40.7184
 11
570.528
 21
40.85
  0
LINE
  8
0
 10
570.528
 20
40.85
 11
570.607
 21
40.9751
  0
LINE
  8
0
 10
570.607
 20
40.9751
 11
570.698
 21
41.0927
  0
LINE
  8
0
 10
570.698
 20
41.0927
 11
570.798
 21
41.2021
  0
LINE
  8
0
 10
570.798
 20
41.2021
 11
570.907
 21
41.3023
  0
LINE
  8
0
 10
570.907
 20
41.3023
 11
571.025
 21
41.3925
  0
LINE
  8
0
 10
571.025
 20
41.3925
 11
571.15
 21
41.4722
  0
LINE
  8
0
 10
571.15
 20
41.4722
 11
571.282
 21
41.5407
  0
LINE
  8
0
 10
571.282
 20
41.5407
 11
571.419
 21
41.5975
  0
LINE
  8
0
 10
571.419
 20
41.5975
 11
571.56
 21
41.6421
  0
LINE
  8
0
 10
571.56
 20
41.6421
 11
571.705
 21
41.6742
  0
LINE
  8
0
 10
571.705
 20
41.6742
 11
571.852
 21
41.6935
  0
LINE
  8
0
 10
571.852
 20
41.6935
 11
572
 21
41.7
  0
LINE
  8
0
 10
572
 20
41.7
 11
572.148
 21
41.6935
  0
LINE
  8
0
 10
572.148
 20
41.6935
 11
572.295
 21
41.6742
  0
LINE
  8
0
 10
572.295
 20
41.6742
 11
572.44
 21
41.6421
  0
LINE
  8
0
 10
572.44
 20
41.6421
 11
572.581
 21
41.5975
  0
LINE
  8
0
 10
572.581
 20
41.5975
 11
572.718
 21
41.5407
  0
LINE
  8
0
 10
572.718
 20
41.5407
 11
572.85
 21
41.4722
  0
LINE
  8
0
 10
572.85
 20
41.4722
 11
572.975
 21
41.3925
  0
LINE
  8
0
 10
572.975
 20
41.3925
 11
573.093
 21
41.3023
  0
LINE
  8
0
 10
573.093
 20
41.3023
 11
573.202
 21
41.2021
  0
LINE
  8
0
 10
573.202
 20
41.2021
 11
573.302
 21
41.0927
  0
LINE
  8
0
 10
573.302
 20
41.0927
 11
573.393
 21
40.9751
  0
LINE
  8
0
 10
573.393
 20
40.9751
 11
573.472
 21
40.85
  0
LINE
  8
0
 10
573.472
 20
40.85
 11
573.541
 21
40.7184
  0
LINE
  8
0
 10
573.541
 20
40.7184
 11
573.597
 21
40.5814
  0
LINE
  8
0
 10
573.597
 20
40.5814
 11
573.642
 21
40.44
  0
LINE
  8
0
 10
573.642
 20
40.44
 11
573.674
 21
40.2952
  0
LINE
  8
0
 10
573.674
 20
40.2952
 11
573.694
 21
40.1482
  0
LINE
  8
0
 10
573.694
 20
40.1482
 11
573.7
 21
40
  0
LINE
  8
0
 10
573.7
 20
40
 11
573.694
 21
39.8518
  0
LINE
  8
0
 10
573.694
 20
39.8518
 11
573.674
 21
39.7048
  0
LINE
  8
0
 10
573.674
 20
39.7048
 11
573.642
 21
39.56
  0
LINE
  8
0
 10
573.642
 20
39.56
 11
573.597
 21
39.4186
  0
LINE
  8
0
 10
573.597
 20
39.4186
 11
573.541
 21
39.2816
  0
LINE
  8
0
 10
573.541
 20
39.2816
 11
573.472
 21
39.15
  0
LINE
  8
0
 10
573.472
 20
39.15
 11
573.393
 21
39.0249
  0
LINE
  8
0
 10
573.393
 20
39.0249
 11
573.302
 21
38.9073
  0
LINE
  8
0
 10
573.302
 20
38.9073
 11
573.202
 21
38.7979
  0
LINE
  8
0
 10
573.202
 20
38.7979
 11
573.093
 21
38.6977
  0
LINE
  8
0
 10
573.093
 20
38.6977
 11
572.975
 21
38.6075
  0
LINE
  8
0
 10
572.975
 20
38.6075
 11
572.85
 21
38.5278
  0
LINE
  8
0
 10
572.85
 20
38.5278
 11
572.718
 21
38.4593
  0
LINE
  8
0
 10
572.718
 20
38.4593
 11
572.581
 21
38.4025
  0
LINE
  8
0
 10
572.581
 20
38.4025
 11
572.44
 21
38.3579
  0
LINE
  8
0
 10
572.44
 20
38.3579
 11
572.295
 21
38.3258
  0
LINE
  8
0
 10
572.295
 20
38.3258
 11
572.148
 21
38.3065
  0
LINE
  8
0
 10
572.148
 20
38.3065
 11
572
 21
38.3
  0
LINE
  8
0
 10
572
 20
38.3
 11
571.852
 21
38.3065
  0
LINE
  8
0
 10
251.852
 20
38.3065
 11
251.705
 21
38.3258
  0
LINE
  8
0
 10
251.705
 20
38.3258
 11
251.56
 21
38.3579
  0
LINE
  8
0
 10
251.56
 20
38.3579
 11
251.419
 21
38.4025
  0
LINE
  8
0
 10
251.419
 20
38.4025
 11
251.282
 21
38.4593
  0
LINE
  8
0
 10
251.282
 20
38.4593
 11
251.15
 21
38.5278
  0
LINE
  8
0
 10
251.15
 20
38.5278
 11
251.025
 21
38.6075
  0
LINE
  8
0
 10
251.025
 20
38.6075
 11
250.907
 21
38.6977
  0
LINE
  8
0
 10
250.907
 20
38.6977
 11
250.798
 21
38.7979
  0
LINE
  8
0
 10
250.798
 20
38.7979
 11
250.698
 21
38.9073
  0
LINE
  8
0
 10
250.698
 20
38.9073
 11
250.607
 21
39.0249
  0
LINE
  8
0
 10
250.607
 20
39.0249
 11
250.528
 21
39.15
  0
LINE
  8
0
 10
250.528
 20
39.15
 11
250.459
 21
39.2816
  0
LINE
  8
0
 10
250.459
 20
39.2816
 11
250.403
 21
39.4186
  0
LINE
  8
0
 10
250.403
 20
39.4186
 11
250.358
 21
39.56
  0
LINE
  8
0
 10
250.358
 20
39.56
 11
250.326
 21
39.7048
  0
LINE
  8
0
 10
250.326
 20
39.7048
 11
250.306
 21
39.8518
  0
LINE
  8
0
 10
250.306
 20
39.8518
 11
250.3
 21
40
  0
LINE
  8
0
 10
250.3
 20
40
 11
250.306
 21
40.1482
  0
LINE
  8
0
 10
250.306
 20
40.1482
 11
250.326
 21
40.2952
  0
LINE
  8
0
 10
250.326
 20
40.2952
 11
250.358
 21
40.44
  0
LINE
  8
0
 10
250.358
 20
40.44
 11
250.403
 21
40.5814
  0
LINE
  8
0
 10
250.403
 20
40.5814
 11
250.459
 21
40.7184
  0
LINE
  8
0
 10
250.459
 20
40.7184
 11
250.528
 21
40.85
  0
LINE
  8
0
 10
250.528
 20
40.85
 11
250.607
 21
40.9751
  0
LINE
  8
0
 10
250.607
 20
40.9751
 11
250.698
 21
41.0927
  0
LINE
  8
0
 10
250.698
 20
41.0927
 11
250.798
 21
41.2021
  0
LINE
  8
0
 10
250.798
 20
41.2021
 11
250.907
 21
41.3023
  0
LINE
  8
0
 10
250.907
 20
41.3023
 11
251.025
 21
41.3925
  0
LINE
  8
0
 10
251.025
 20
41.3925
 11
251.15
 21
41.4722
  0
LINE
  8
0
 10
251.15
 20
41.4722
 11
251.282
 21
41.5407
  0
LINE
  8
0
 10
251.282
 20
41.5407
 11
251.419
 21
41.5975
  0
LINE
  8
0
 10
251.419
 20
41.5975
 11
251.56
 21
41.6421
  0
LINE
  8
0
 10
251.56
 20
41.6421
 11
251.705
 21
41.6742
  0
LINE
  8
0
 10
251.705
 20
41.6742
 11
251.852
 21
41.6935
  0
LINE
  8
0
 10
251.852
 20
41.6935
 11
252
 21
41.7
  0
LINE
  8
0
 10
252
 20
41.7
 11
252.148
 21
41.6935
  0
LINE
  8
0
 10
252.148
 20
41.6935
 11
252.295
 21
41.6742
  0
LINE
  8
0
 10
252.295
 20
41.6742
 11
252.44
 21
41.6421
  0
LINE
  8
0
 10
252.44
 20
41.6421
 11
252.581
 21
41.5975
  0
LINE
  8
0
 10
252.581
 20
41.5975
 11
252.718
 21
41.5407
  0
LINE
  8
0
 10
252.718
 20
41.5407
 11
252.85
 21
41.4722
  0
LINE
  8
0
 10
252.85
 20
41.4722
 11
252.975
 21
41.3925
  0
LINE
  8
0
 10
252.975
 20
41.3925
 11
253.093
 21
41.3023
  0
LINE
  8
0
 10
253.093
 20
41.3023
 11
253.202
 21
41.2021
  0
LINE
  8
0
 10
253.202
 20
41.2021
 11
253.302
 21
41.0927
  0
LINE
  8
0
 10
253.302
 20
41.0927
 11
253.393
 21
40.9751
  0
LINE
  8
0
 10
253.393
 20
40.9751
 11
253.472
 21
40.85
  0
LINE
  8
0
 10
253.472
 20
40.85
 11
253.541
 21
40.7184
  0
LINE
  8
0
 10
253.541
 20
40.7184
 11
253.597
 21
40.5814
  0
LINE
  8
0
 10
253.597
 20
40.5814
 11
253.642
 21
40.44
  0
LINE
  8
0
 10
253.642
 20
40.44
 11
253.674
 21
40.2952
  0
LINE
  8
0
 10
253.674
 20
40.2952
 11
253.694
 21
40.1482
  0
LINE
  8
0
 10
253.694
 20
40.1482
 11
253.7
 21
40
  0
LINE
  8
0
 10
253.7
 20
40
 11
253.694
 21
39.8518
  0
LINE
  8
0
 10
253.694
 20
39.8518
 11
253.674
 21
39.7048
  0
LINE
  8
0
 10
253.674
 20
39.7048
 11
253.642
 21
39.56
  0
LINE
  8
0
 10
253.642
 20
39.56
 11
253.597
 21
39.4186
  0
LINE
  8
0
 10
253.597
 20
39.4186
 11
253.541
 21
39.2816
  0
LINE
  8
0
 10
253.541
 20
39.2816
 11
253.472
 21
39.15
  0
LINE
  8
0
 10
253.472
 20
39.15
 11
253.393
 21
39.0249
  0
LINE
  8
0
 10
253.393
 20
39.0249
 11
253.302
 21
38.9073
  0
LINE
  8
0
 10
253.302
 20
38.9073
 11
253.202
 21
38.7979
  0
LINE
  8
0
 10
253.202
 20
38.7979
 11
253.093
 21
38.6977
  0
LINE
  8
0
 10
253.093
 20
38.6977
 11
252.975
 21
38.6075
  0
LINE
  8
0
 10
252.975
 20
38.6075
 11
252.85
 21
38.5278
  0
LINE
  8
0
 10
252.85
 20
38.5278
 11
252.718
 21
38.4593
  0
LINE
  8
0
 10
252.718
 20
38.4593
 11
252.581
 21
38.4025
  0
LINE
  8
0
 10
252.581
 20
38.4025
 11
252.44
 21
38.3579
  0
LINE
  8
0
 10
252.44
 20
38.3579
 11
252.295
 21
38.3258
  0
LINE
  8
0
 10
252.295
 20
38.3258
 11
252.148
 21
38.3065
  0
LINE
  8
0
 10
252.148
 20
38.3065
 11
252
 21
38.3
  0
LINE
  8
0
 10
252
 20
38.3
 11
251.852
 21
38.3065
  0
LINE
  8
0
 10
267.852
 20
38.3065
 11
267.705
 21
38.3258
  0
LINE
  8
0
 10
267.705
 20
38.3258
 11
267.56
 21
38.3579
  0
LINE
  8
0
 10
267.56
 20
38.3579
 11
267.419
 21
38.4025
  0
LINE
  8
0
 10
267.419
 20
38.4025
 11
267.282
 21
38.4593
  0
LINE
  8
0
 10
267.282
 20
38.4593
 11
267.15
 21
38.5278
  0
LINE
  8
0
 10
267.15
 20
38.5278
 11
267.025
 21
38.6075
  0
LINE
  8
0
 10
267.025
 20
38.6075
 11
266.907
 21
38.6977
  0
LINE
  8
0
 10
266.907
 20
38.6977
 11
266.798
 21
38.7979
  0
LINE
  8
0
 10
266.798
 20
38.7979
 11
266.698
 21
38.9073
  0
LINE
  8
0
 10
266.698
 20
38.9073
 11
266.607
 21
39.0249
  0
LINE
  8
0
 10
266.607
 20
39.0249
 11
266.528
 21
39.15
  0
LINE
  8
0
 10
266.528
 20
39.15
 11
266.459
 21
39.2816
  0
LINE
  8
0
 10
266.459
 20
39.2816
 11
266.403
 21
39.4186
  0
LINE
  8
0
 10
266.403
 20
39.4186
 11
266.358
 21
39.56
  0
LINE
  8
0
 10
266.358
 20
39.56
 11
266.326
 21
39.7048
  0
LINE
  8
0
 10
266.326
 20
39.7048
 11
266.306
 21
39.8518
  0
LINE
  8
0
 10
266.306
 20
39.8518
 11
266.3
 21
40
  0
LINE
  8
0
 10
266.3
 20
40
 11
266.306
 21
40.1482
  0
LINE
  8
0
 10
266.306
 20
40.1482
 11
266.326
 21
40.2952
  0
LINE
  8
0
 10
266.326
 20
40.2952
 11
266.358
 21
40.44
  0
LINE
  8
0
 10
266.358
 20
40.44
 11
266.403
 21
40.5814
  0
LINE
  8
0
 10
266.403
 20
40.5814
 11
266.459
 21
40.7184
  0
LINE
  8
0
 10
266.459
 20
40.7184
 11
266.528
 21
40.85
  0
LINE
  8
0
 10
266.528
 20
40.85
 11
266.607
 21
40.9751
  0
LINE
  8
0
 10
266.607
 20
40.9751
 11
266.698
 21
41.0927
  0
LINE
  8
0
 10
266.698
 20
41.0927
 11
266.798
 21
41.2021
  0
LINE
  8
0
 10
266.798
 20
41.2021
 11
266.907
 21
41.3023
  0
LINE
  8
0
 10
266.907
 20
41.3023
 11
267.025
 21
41.3925
  0
LINE
  8
0
 10
267.025
 20
41.3925
 11
267.15
 21
41.4722
  0
LINE
  8
0
 10
267.15
 20
41.4722
 11
267.282
 21
41.5407
  0
LINE
  8
0
 10
267.282
 20
41.5407
 11
267.419
 21
41.5975
  0
LINE
  8
0
 10
267.419
 20
41.5975
 11
267.56
 21
41.6421
  0
LINE
  8
0
 10
267.56
 20
41.6421
 11
267.705
 21
41.6742
  0
LINE
  8
0
 10
267.705
 20
41.6742
 11
267.852
 21
41.6935
  0
LINE
  8
0
 10
267.852
 20
41.6935
 11
268
 21
41.7
  0
LINE
  8
0
 10
268
 20
41.7
 11
268.148
 21
41.6935
  0
LINE
  8
0
 10
268.148
 20
41.6935
 11
268.295
 21
41.6742
  0
LINE
  8
0
 10
268.295
 20
41.6742
 11
268.44
 21
41.6421
  0
LINE
  8
0
 10
268.44
 20
41.6421
 11
268.581
 21
41.5975
  0
LINE
  8
0
 10
268.581
 20
41.5975
 11
268.718
 21
41.5407
  0
LINE
  8
0
 10
268.718
 20
41.5407
 11
268.85
 21
41.4722
  0
LINE
  8
0
 10
268.85
 20
41.4722
 11
268.975
 21
41.3925
  0
LINE
  8
0
 10
268.975
 20
41.3925
 11
269.093
 21
41.3023
  0
LINE
  8
0
 10
269.093
 20
41.3023
 11
269.202
 21
41.2021
  0
LINE
  8
0
 10
269.202
 20
41.2021
 11
269.302
 21
41.0927
  0
LINE
  8
0
 10
269.302
 20
41.0927
 11
269.393
 21
40.9751
  0
LINE
  8
0
 10
269.393
 20
40.9751
 11
269.472
 21
40.85
  0
LINE
  8
0
 10
269.472
 20
40.85
 11
269.541
 21
40.7184
  0
LINE
  8
0
 10
269.541
 20
40.7184
 11
269.597
 21
40.5814
  0
LINE
  8
0
 10
269.597
 20
40.5814
 11
269.642
 21
40.44
  0
LINE
  8
0
 10
269.642
 20
40.44
 11
269.674
 21
40.2952
  0
LINE
  8
0
 10
269.674
 20
40.2952
 11
269.694
 21
40.1482
  0
LINE
  8
0
 10
269.694
 20
40.1482
 11
269.7
 21
40
  0
LINE
  8
0
 10
269.7
 20
40
 11
269.694
 21
39.8518
  0
LINE
  8
0
 10
269.694
 20
39.8518
 11
269.674
 21
39.7048
  0
LINE
  8
0
 10
269.674
 20
39.7048
 11
269.642
 21
39.56
  0
LINE
  8
0
 10
269.642
 20
39.56
 11
269.597
 21
39.4186
  0
LINE
  8
0
 10
269.597
 20
39.4186
 11
269.541
 21
39.2816
  0
LINE
  8
0
 10
269.541
 20
39.2816
 11
269.472
 21
39.15
  0
LINE
  8
0
 10
269.472
 20
39.15
 11
269.393
 21
39.0249
  0
LINE
  8
0
 10
269.393
 20
39.0249
 11
269.302
 21
38.9073
  0
LINE
  8
0
 10
269.302
 20
38.9073
 11
269.202
 21
38.7979
  0
LINE
  8
0
 10
269.202
 20
38.7979
 11
269.093
 21
38.6977
  0
LINE
  8
0
 10
269.093
 20
38.6977
 11
268.975
 21
38.6075
  0
LINE
  8
0
 10
268.975
 20
38.6075
 11
268.85
 21
38.5278
  0
LINE
  8
0
 10
268.85
 20
38.5278
 11
268.718
 21
38.4593
  0
LINE
  8
0
 10
268.718
 20
38.4593
 11
268.581
 21
38.4025
  0
LINE
  8
0
 10
268.581
 20
38.4025
 11
268.44
 21
38.3579
  0
LINE
  8
0
 10
268.44
 20
38.3579
 11
268.295
 21
38.3258
  0
LINE
  8
0
 10
268.295
 20
38.3258
 11
268.148
 21
38.3065
  0
LINE
  8
0
 10
268.148
 20
38.3065
 11
268
 21
38.3
  0
LINE
  8
0
 10
268
 20
38.3
 11
267.852
 21
38.3065
  0
LINE
  8
0
 10
291.852
 20
38.3065
 11
291.705
 21
38.3258
  0
LINE
  8
0
 10
291.705
 20
38.3258
 11
291.56
 21
38.3579
  0
LINE
  8
0
 10
291.56
 20
38.3579
 11
291.419
 21
38.4025
  0
LINE
  8
0
 10
291.419
 20
38.4025
 11
291.282
 21
38.4593
  0
LINE
  8
0
 10
291.282
 20
38.4593
 11
291.15
 21
38.5278
  0
LINE
  8
0
 10
291.15
 20
38.5278
 11
291.025
 21
38.6075
  0
LINE
  8
0
 10
291.025
 20
38.6075
 11
290.907
 21
38.6977
  0
LINE
  8
0
 10
290.907
 20
38.6977
 11
290.798
 21
38.7979
  0
LINE
  8
0
 10
290.798
 20
38.7979
 11
290.698
 21
38.9073
  0
LINE
  8
0
 10
290.698
 20
38.9073
 11
290.607
 21
39.0249
  0
LINE
  8
0
 10
290.607
 20
39.0249
 11
290.528
 21
39.15
  0
LINE
  8
0
 10
290.528
 20
39.15
 11
290.459
 21
39.2816
  0
LINE
  8
0
 10
290.459
 20
39.2816
 11
290.403
 21
39.4186
  0
LINE
  8
0
 10
290.403
 20
39.4186
 11
290.358
 21
39.56
  0
LINE
  8
0
 10
290.358
 20
39.56
 11
290.326
 21
39.7048
  0
LINE
  8
0
 10
290.326
 20
39.7048
 11
290.306
 21
39.8518
  0
LINE
  8
0
 10
290.306
 20
39.8518
 11
290.3
 21
40
  0
LINE
  8
0
 10
290.3
 20
40
 11
290.306
 21
40.1482
  0
LINE
  8
0
 10
290.306
 20
40.1482
 11
290.326
 21
40.2952
  0
LINE
  8
0
 10
290.326
 20
40.2952
 11
290.358
 21
40.44
  0
LINE
  8
0
 10
290.358
 20
40.44
 11
290.403
 21
40.5814
  0
LINE
  8
0
 10
290.403
 20
40.5814
 11
290.459
 21
40.7184
  0
LINE
  8
0
 10
290.459
 20
40.7184
 11
290.528
 21
40.85
  0
LINE
  8
0
 10
290.528
 20
40.85
 11
290.607
 21
40.9751
  0
LINE
  8
0
 10
290.607
 20
40.9751
 11
290.698
 21
41.0927
  0
LINE
  8
0
 10
290.698
 20
41.0927
 11
290.798
 21
41.2021
  0
LINE
  8
0
 10
290.798
 20
41.2021
 11
290.907
 21
41.3023
  0
LINE
  8
0
 10
290.907
 20
41.3023
 11
291.025
 21
41.3925
  0
LINE
  8
0
 10
291.025
 20
41.3925
 11
291.15
 21
41.4722
  0
LINE
  8
0
 10
291.15
 20
41.4722
 11
291.282
 21
41.5407
  0
LINE
  8
0
 10
291.282
 20
41.5407
 11
291.419
 21
41.5975
  0
LINE
  8
0
 10
291.419
 20
41.5975
 11
291.56
 21
41.6421
  0
LINE
  8
0
 10
291.56
 20
41.6421
 11
291.705
 21
41.6742
  0
LINE
  8
0
 10
291.705
 20
41.6742
 11
291.852
 21
41.6935
  0
LINE
  8
0
 10
291.852
 20
41.6935
 11
292
 21
41.7
  0
LINE
  8
0
 10
292
 20
41.7
 11
292.148
 21
41.6935
  0
LINE
  8
0
 10
292.148
 20
41.6935
 11
292.295
 21
41.6742
  0
LINE
  8
0
 10
292.295
 20
41.6742
 11
292.44
 21
41.6421
  0
LINE
  8
0
 10
292.44
 20
41.6421
 11
292.581
 21
41.5975
  0
LINE
  8
0
 10
292.581
 20
41.5975
 11
292.718
 21
41.5407
  0
LINE
  8
0
 10
292.718
 20
41.5407
 11
292.85
 21
41.4722
  0
LINE
  8
0
 10
292.85
 20
41.4722
 11
292.975
 21
41.3925
  0
LINE
  8
0
 10
292.975
 20
41.3925
 11
293.093
 21
41.3023
  0
LINE
  8
0
 10
293.093
 20
41.3023
 11
293.202
 21
41.2021
  0
LINE
  8
0
 10
293.202
 20
41.2021
 11
293.302
 21
41.0927
  0
LINE
  8
0
 10
293.302
 20
41.0927
 11
293.393
 21
40.9751
  0
LINE
  8
0
 10
293.393
 20
40.9751
 11
293.472
 21
40.85
  0
LINE
  8
0
 10
293.472
 20
40.85
 11
293.541
 21
40.7184
  0
LINE
  8
0
 10
293.541
 20
40.7184
 11
293.597
 21
40.5814
  0
LINE
  8
0
 10
293.597
 20
40.5814
 11
293.642
 21
40.44
  0
LINE
  8
0
 10
293.642
 20
40.44
 11
293.674
 21
40.2952
  0
LINE
  8
0
 10
293.674
 20
40.2952
 11
293.694
 21
40.1482
  0
LINE
  8
0
 10
293.694
 20
40.1482
 11
293.7
 21
40
  0
LINE
  8
0
 10
293.7
 20
40
 11
293.694
 21
39.8518
  0
LINE
  8
0
 10
293.694
 20
39.8518
 11
293.674
 21
39.7048
  0
LINE
  8
0
 10
293.674
 20
39.7048
 11
293.642
 21
39.56
  0
LINE
  8
0
 10
293.642
 20
39.56
 11
293.597
 21
39.4186
  0
LINE
  8
0
 10
293.597
 20
39.4186
 11
293.541
 21
39.2816
  0
LINE
  8
0
 10
293.541
 20
39.2816
 11
293.472
 21
39.15
  0
LINE
  8
0
 10
293.472
 20
39.15
 11
293.393
 21
39.0249
  0
LINE
  8
0
 10
293.393
 20
39.0249
 11
293.302
 21
38.9073
  0
LINE
  8
0
 10
293.302
 20
38.9073
 11
293.202
 21
38.7979
  0
LINE
  8
0
 10
293.202
 20
38.7979
 11
293.093
 21
38.6977
  0
LINE
  8
0
 10
293.093
 20
38.6977
 11
292.975
 21
38.6075
  0
LINE
  8
0
 10
292.975
 20
38.6075
 11
292.85
 21
38.5278
  0
LINE
  8
0
 10
292.85
 20
38.5278
 11
292.718
 21
38.4593
  0
LINE
  8
0
 10
292.718
 20
38.4593
 11
292.581
 21
38.4025
  0
LINE
  8
0
 10
292.581
 20
38.4025
 11
292.44
 21
38.3579
  0
LINE
  8
0
 10
292.44
 20
38.3579
 11
292.295
 21
38.3258
  0
LINE
  8
0
 10
292.295
 20
38.3258
 11
292.148
 21
38.3065
  0
LINE
  8
0
 10
292.148
 20
38.3065
 11
292
 21
38.3
  0
LINE
  8
0
 10
292
 20
38.3
 11
291.852
 21
38.3065
  0
LINE
  8
0
 10
307.852
 20
38.3065
 11
307.705
 21
38.3258
  0
LINE
  8
0
 10
307.705
 20
38.3258
 11
307.56
 21
38.3579
  0
LINE
  8
0
 10
307.56
 20
38.3579
 11
307.419
 21
38.4025
  0
LINE
  8
0
 10
307.419
 20
38.4025
 11
307.282
 21
38.4593
  0
LINE
  8
0
 10
307.282
 20
38.4593
 11
307.15
 21
38.5278
  0
LINE
  8
0
 10
307.15
 20
38.5278
 11
307.025
 21
38.6075
  0
LINE
  8
0
 10
307.025
 20
38.6075
 11
306.907
 21
38.6977
  0
LINE
  8
0
 10
306.907
 20
38.6977
 11
306.798
 21
38.7979
  0
LINE
  8
0
 10
306.798
 20
38.7979
 11
306.698
 21
38.9073
  0
LINE
  8
0
 10
306.698
 20
38.9073
 11
306.607
 21
39.0249
  0
LINE
  8
0
 10
306.607
 20
39.0249
 11
306.528
 21
39.15
  0
LINE
  8
0
 10
306.528
 20
39.15
 11
306.459
 21
39.2816
  0
LINE
  8
0
 10
306.459
 20
39.2816
 11
306.403
 21
39.4186
  0
LINE
  8
0
 10
306.403
 20
39.4186
 11
306.358
 21
39.56
  0
LINE
  8
0
 10
306.358
 20
39.56
 11
306.326
 21
39.7048
  0
LINE
  8
0
 10
306.326
 20
39.7048
 11
306.306
 21
39.8518
  0
LINE
  8
0
 10
306.306
 20
39.8518
 11
306.3
 21
40
  0
LINE
  8
0
 10
306.3
 20
40
 11
306.306
 21
40.1482
  0
LINE
  8
0
 10
306.306
 20
40.1482
 11
306.326
 21
40.2952
  0
LINE
  8
0
 10
306.326
 20
40.2952
 11
306.358
 21
40.44
  0
LINE
  8
0
 10
306.358
 20
40.44
 11
306.403
 21
40.5814
  0
LINE
  8
0
 10
306.403
 20
40.5814
 11
306.459
 21
40.7184
  0
LINE
  8
0
 10
306.459
 20
40.7184
 11
306.528
 21
40.85
  0
LINE
  8
0
 10
306.528
 20
40.85
 11
306.607
 21
40.9751
  0
LINE
  8
0
 10
306.607
 20
40.9751
 11
306.698
 21
41.0927
  0
LINE
  8
0
 10
306.698
 20
41.0927
 11
306.798
 21
41.2021
  0
LINE
  8
0
 10
306.798
 20
41.2021
 11
306.907
 21
41.3023
  0
LINE
  8
0
 10
306.907
 20
41.3023
 11
307.025
 21
41.3925
  0
LINE
  8
0
 10
307.025
 20
41.3925
 11
307.15
 21
41.4722
  0
LINE
  8
0
 10
307.15
 20
41.4722
 11
307.282
 21
41.5407
  0
LINE
  8
0
 10
307.282
 20
41.5407
 11
307.419
 21
41.5975
  0
LINE
  8
0
 10
307.419
 20
41.5975
 11
307.56
 21
41.6421
  0
LINE
  8
0
 10
307.56
 20
41.6421
 11
307.705
 21
41.6742
  0
LINE
  8
0
 10
307.705
 20
41.6742
 11
307.852
 21
41.6935
  0
LINE
  8
0
 10
307.852
 20
41.6935
 11
308
 21
41.7
  0
LINE
  8
0
 10
308
 20
41.7
 11
308.148
 21
41.6935
  0
LINE
  8
0
 10
308.148
 20
41.6935
 11
308.295
 21
41.6742
  0
LINE
  8
0
 10
308.295
 20
41.6742
 11
308.44
 21
41.6421
  0
LINE
  8
0
 10
308.44
 20
41.6421
 11
308.581
 21
41.5975
  0
LINE
  8
0
 10
308.581
 20
41.5975
 11
308.718
 21
41.5407
  0
LINE
  8
0
 10
308.718
 20
41.5407
 11
308.85
 21
41.4722
  0
LINE
  8
0
 10
308.85
 20
41.4722
 11
308.975
 21
41.3925
  0
LINE
  8
0
 10
308.975
 20
41.3925
 11
309.093
 21
41.3023
  0
LINE
  8
0
 10
309.093
 20
41.3023
 11
309.202
 21
41.2021
  0
LINE
  8
0
 10
309.202
 20
41.2021
 11
309.302
 21
41.0927
  0
LINE
  8
0
 10
309.302
 20
41.0927
 11
309.393
 21
40.9751
  0
LINE
  8
0
 10
309.393
 20
40.9751
 11
309.472
 21
40.85
  0
LINE
  8
0
 10
309.472
 20
40.85
 11
309.541
 21
40.7184
  0
LINE
  8
0
 10
309.541
 20
40.7184
 11
309.597
 21
40.5814
  0
LINE
  8
0
 10
309.597
 20
40.5814
 11
309.642
 21
40.44
  0
LINE
  8
0
 10
309.642
 20
40.44
 11
309.674
 21
40.2952
  0
LINE
  8
0
 10
309.674
 20
40.2952
 11
309.694
 21
40.1482
  0
LINE
  8
0
 10
309.694
 20
40.1482
 11
309.7
 21
40
  0
LINE
  8
0
 10
309.7
 20
40
 11
309.694
 21
39.8518
  0
LINE
  8
0
 10
309.694
 20
39.8518
 11
309.674
 21
39.7048
  0
LINE
  8
0
 10
309.674
 20
39.7048
 11
309.642
 21
39.56
  0
LINE
  8
0
 10
309.642
 20
39.56
 11
309.597
 21
39.4186
  0
LINE
  8
0
 10
309.597
 20
39.4186
 11
309.541
 21
39.2816
  0
LINE
  8
0
 10
309.541
 20
39.2816
 11
309.472
 21
39.15
  0
LINE
  8
0
 10
309.472
 20
39.15
 11
309.393
 21
39.0249
  0
LINE
  8
0
 10
309.393
 20
39.0249
 11
309.302
 21
38.9073
  0
LINE
  8
0
 10
309.302
 20
38.9073
 11
309.202
 21
38.7979
  0
LINE
  8
0
 10
309.202
 20
38.7979
 11
309.093
 21
38.6977
  0
LINE
  8
0
 10
309.093
 20
38.6977
 11
308.975
 21
38.6075
  0
LINE
  8
0
 10
308.975
 20
38.6075
 11
308.85
 21
38.5278
  0
LINE
  8
0
 10
308.85
 20
38.5278
 11
308.718
 21
38.4593
  0
LINE
  8
0
 10
308.718
 20
38.4593
 11
308.581
 21
38.4025
  0
LINE
  8
0
 10
308.581
 20
38.4025
 11
308.44
 21
38.3579
  0
LINE
  8
0
 10
308.44
 20
38.3579
 11
308.295
 21
38.3258
  0
LINE
  8
0
 10
308.295
 20
38.3258
 11
308.148
 21
38.3065
  0
LINE
  8
0
 10
308.148
 20
38.3065
 11
308
 21
38.3
  0
LINE
  8
0
 10
308
 20
38.3
 11
307.852
 21
38.3065
  0
LINE
  8
0
 10
331.852
 20
38.3065
 11
331.705
 21
38.3258
  0
LINE
  8
0
 10
331.705
 20
38.3258
 11
331.56
 21
38.3579
  0
LINE
  8
0
 10
331.56
 20
38.3579
 11
331.419
 21
38.4025
  0
LINE
  8
0
 10
331.419
 20
38.4025
 11
331.282
 21
38.4593
  0
LINE
  8
0
 10
331.282
 20
38.4593
 11
331.15
 21
38.5278
  0
LINE
  8
0
 10
331.15
 20
38.5278
 11
331.025
 21
38.6075
  0
LINE
  8
0
 10
331.025
 20
38.6075
 11
330.907
 21
38.6977
  0
LINE
  8
0
 10
330.907
 20
38.6977
 11
330.798
 21
38.7979
  0
LINE
  8
0
 10
330.798
 20
38.7979
 11
330.698
 21
38.9073
  0
LINE
  8
0
 10
330.698
 20
38.9073
 11
330.607
 21
39.0249
  0
LINE
  8
0
 10
330.607
 20
39.0249
 11
330.528
 21
39.15
  0
LINE
  8
0
 10
330.528
 20
39.15
 11
330.459
 21
39.2816
  0
LINE
  8
0
 10
330.459
 20
39.2816
 11
330.403
 21
39.4186
  0
LINE
  8
0
 10
330.403
 20
39.4186
 11
330.358
 21
39.56
  0
LINE
  8
0
 10
330.358
 20
39.56
 11
330.326
 21
39.7048
  0
LINE
  8
0
 10
330.326
 20
39.7048
 11
330.306
 21
39.8518
  0
LINE
  8
0
 10
330.306
 20
39.8518
 11
330.3
 21
40
  0
LINE
  8
0
 10
330.3
 20
40
 11
330.306
 21
40.1482
  0
LINE
  8
0
 10
330.306
 20
40.1482
 11
330.326
 21
40.2952
  0
LINE
  8
0
 10
330.326
 20
40.2952
 11
330.358
 21
40.44
  0
LINE
  8
0
 10
330.358
 20
40.44
 11
330.403
 21
40.5814
  0
LINE
  8
0
 10
330.403
 20
40.5814
 11
330.459
 21
40.7184
  0
LINE
  8
0
 10
330.459
 20
40.7184
 11
330.528
 21
40.85
  0
LINE
  8
0
 10
330.528
 20
40.85
 11
330.607
 21
40.9751
  0
LINE
  8
0
 10
330.607
 20
40.9751
 11
330.698
 21
41.0927
  0
LINE
  8
0
 10
330.698
 20
41.0927
 11
330.798
 21
41.2021
  0
LINE
  8
0
 10
330.798
 20
41.2021
 11
330.907
 21
41.3023
  0
LINE
  8
0
 10
330.907
 20
41.3023
 11
331.025
 21
41.3925
  0
LINE
  8
0
 10
331.025
 20
41.3925
 11
331.15
 21
41.4722
  0
LINE
  8
0
 10
331.15
 20
41.4722
 11
331.282
 21
41.5407
  0
LINE
  8
0
 10
331.282
 20
41.5407
 11
331.419
 21
41.5975
  0
LINE
  8
0
 10
331.419
 20
41.5975
 11
331.56
 21
41.6421
  0
LINE
  8
0
 10
331.56
 20
41.6421
 11
331.705
 21
41.6742
  0
LINE
  8
0
 10
331.705
 20
41.6742
 11
331.852
 21
41.6935
  0
LINE
  8
0
 10
331.852
 20
41.6935
 11
332
 21
41.7
  0
LINE
  8
0
 10
332
 20
41.7
 11
332.148
 21
41.6935
  0
LINE
  8
0
 10
332.148
 20
41.6935
 11
332.295
 21
41.6742
  0
LINE
  8
0
 10
332.295
 20
41.6742
 11
332.44
 21
41.6421
  0
LINE
  8
0
 10
332.44
 20
41.6421
 11
332.581
 21
41.5975
  0
LINE
  8
0
 10
332.581
 20
41.5975
 11
332.718
 21
41.5407
  0
LINE
  8
0
 10
332.718
 20
41.5407
 11
332.85
 21
41.4722
  0
LINE
  8
0
 10
332.85
 20
41.4722
 11
332.975
 21
41.3925
  0
LINE
  8
0
 10
332.975
 20
41.3925
 11
333.093
 21
41.3023
  0
LINE
  8
0
 10
333.093
 20
41.3023
 11
333.202
 21
41.2021
  0
LINE
  8
0
 10
333.202
 20
41.2021
 11
333.302
 21
41.0927
  0
LINE
  8
0
 10
333.302
 20
41.0927
 11
333.393
 21
40.9751
  0
LINE
  8
0
 10
333.393
 20
40.9751
 11
333.472
 21
40.85
  0
LINE
  8
0
 10
333.472
 20
40.85
 11
333.541
 21
40.7184
  0
LINE
  8
0
 10
333.541
 20
40.7184
 11
333.597
 21
40.5814
  0
LINE
  8
0
 10
333.597
 20
40.5814
 11
333.642
 21
40.44
  0
LINE
  8
0
 10
333.642
 20
40.44
 11
333.674
 21
40.2952
  0
LINE
  8
0
 10
333.674
 20
40.2952
 11
333.694
 21
40.1482
  0
LINE
  8
0
 10
333.694
 20
40.1482
 11
333.7
 21
40
  0
LINE
  8
0
 10
333.7
 20
40
 11
333.694
 21
39.8518
  0
LINE
  8
0
 10
333.694
 20
39.8518
 11
333.674
 21
39.7048
  0
LINE
  8
0
 10
333.674
 20
39.7048
 11
333.642
 21
39.56
  0
LINE
  8
0
 10
333.642
 20
39.56
 11
333.597
 21
39.4186
  0
LINE
  8
0
 10
333.597
 20
39.4186
 11
333.541
 21
39.2816
  0
LINE
  8
0
 10
333.541
 20
39.2816
 11
333.472
 21
39.15
  0
LINE
  8
0
 10
333.472
 20
39.15
 11
333.393
 21
39.0249
  0
LINE
  8
0
 10
333.393
 20
39.0249
 11
333.302
 21
38.9073
  0
LINE
  8
0
 10
333.302
 20
38.9073
 11
333.202
 21
38.7979
  0
LINE
  8
0
 10
333.202
 20
38.7979
 11
333.093
 21
38.6977
  0
LINE
  8
0
 10
333.093
 20
38.6977
 11
332.975
 21
38.6075
  0
LINE
  8
0
 10
332.975
 20
38.6075
 11
332.85
 21
38.5278
  0
LINE
  8
0
 10
332.85
 20
38.5278
 11
332.718
 21
38.4593
  0
LINE
  8
0
 10
332.718
 20
38.4593
 11
332.581
 21
38.4025
  0
LINE
  8
0
 10
332.581
 20
38.4025
 11
332.44
 21
38.3579
  0
LINE
  8
0
 10
332.44
 20
38.3579
 11
332.295
 21
38.3258
  0
LINE
  8
0
 10
332.295
 20
38.3258
 11
332.148
 21
38.3065
  0
LINE
  8
0
 10
332.148
 20
38.3065
 11
332
 21
38.3
  0
LINE
  8
0
 10
332
 20
38.3
 11
331.852
 21
38.3065
  0
LINE
  8
0
 10
347.852
 20
38.3065
 11
347.705
 21
38.3258
  0
LINE
  8
0
 10
347.705
 20
38.3258
 11
347.56
 21
38.3579
  0
LINE
  8
0
 10
347.56
 20
38.3579
 11
347.419
 21
38.4025
  0
LINE
  8
0
 10
347.419
 20
38.4025
 11
347.282
 21
38.4593
  0
LINE
  8
0
 10
347.282
 20
38.4593
 11
347.15
 21
38.5278
  0
LINE
  8
0
 10
347.15
 20
38.5278
 11
347.025
 21
38.6075
  0
LINE
  8
0
 10
347.025
 20
38.6075
 11
346.907
 21
38.6977
  0
LINE
  8
0
 10
346.907
 20
38.6977
 11
346.798
 21
38.7979
  0
LINE
  8
0
 10
346.798
 20
38.7979
 11
346.698
 21
38.9073
  0
LINE
  8
0
 10
346.698
 20
38.9073
 11
346.607
 21
39.0249
  0
LINE
  8
0
 10
346.607
 20
39.0249
 11
346.528
 21
39.15
  0
LINE
  8
0
 10
346.528
 20
39.15
 11
346.459
 21
39.2816
  0
LINE
  8
0
 10
346.459
 20
39.2816
 11
346.403
 21
39.4186
  0
LINE
  8
0
 10
346.403
 20
39.4186
 11
346.358
 21
39.56
  0
LINE
  8
0
 10
346.358
 20
39.56
 11
346.326
 21
39.7048
  0
LINE
  8
0
 10
346.326
 20
39.7048
 11
346.306
 21
39.8518
  0
LINE
  8
0
 10
346.306
 20
39.8518
 11
346.3
 21
40
  0
LINE
  8
0
 10
346.3
 20
40
 11
346.306
 21
40.1482
  0
LINE
  8
0
 10
346.306
 20
40.1482
 11
346.326
 21
40.2952
  0
LINE
  8
0
 10
346.326
 20
40.2952
 11
346.358
 21
40.44
  0
LINE
  8
0
 10
346.358
 20
40.44
 11
346.403
 21
40.5814
  0
LINE
  8
0
 10
346.403
 20
40.5814
 11
346.459
 21
40.7184
  0
LINE
  8
0
 10
346.459
 20
40.7184
 11
346.528
 21
40.85
  0
LINE
  8
0
 10
346.528
 20
40.85
 11
346.607
 21
40.9751
  0
LINE
  8
0
 10
346.607
 20
40.9751
 11
346.698
 21
41.0927
  0
LINE
  8
0
 10
346.698
 20
41.0927
 11
346.798
 21
41.2021
  0
LINE
  8
0
 10
346.798
 20
41.2021
 11
346.907
 21
41.3023
  0
LINE
  8
0
 10
346.907
 20
41.3023
 11
347.025
 21
41.3925
  0
LINE
  8
0
 10
347.025
 20
41.3925
 11
347.15
 21
41.4722
  0
LINE
  8
0
 10
347.15
 20
41.4722
 11
347.282
 21
41.5407
  0
LINE
  8
0
 10
347.282
 20
41.5407
 11
347.419
 21
41.5975
  0
LINE
  8
0
 10
347.419
 20
41.5975
 11
347.56
 21
41.6421
  0
LINE
  8
0
 10
347.56
 20
41.6421
 11
347.705
 21
41.6742
  0
LINE
  8
0
 10
347.705
 20
41.6742
 11
347.852
 21
41.6935
  0
LINE
  8
0
 10
347.852
 20
41.6935
 11
348
 21
41.7
  0
LINE
  8
0
 10
348
 20
41.7
 11
348.148
 21
41.6935
  0
LINE
  8
0
 10
348.148
 20
41.6935
 11
348.295
 21
41.6742
  0
LINE
  8
0
 10
348.295
 20
41.6742
 11
348.44
 21
41.6421
  0
LINE
  8
0
 10
348.44
 20
41.6421
 11
348.581
 21
41.5975
  0
LINE
  8
0
 10
348.581
 20
41.5975
 11
348.718
 21
41.5407
  0
LINE
  8
0
 10
348.718
 20
41.5407
 11
348.85
 21
41.4722
  0
LINE
  8
0
 10
348.85
 20
41.4722
 11
348.975
 21
41.3925
  0
LINE
  8
0
 10
348.975
 20
41.3925
 11
349.093
 21
41.3023
  0
LINE
  8
0
 10
349.093
 20
41.3023
 11
349.202
 21
41.2021
  0
LINE
  8
0
 10
349.202
 20
41.2021
 11
349.302
 21
41.0927
  0
LINE
  8
0
 10
349.302
 20
41.0927
 11
349.393
 21
40.9751
  0
LINE
  8
0
 10
349.393
 20
40.9751
 11
349.472
 21
40.85
  0
LINE
  8
0
 10
349.472
 20
40.85
 11
349.541
 21
40.7184
  0
LINE
  8
0
 10
349.541
 20
40.7184
 11
349.597
 21
40.5814
  0
LINE
  8
0
 10
349.597
 20
40.5814
 11
349.642
 21
40.44
  0
LINE
  8
0
 10
349.642
 20
40.44
 11
349.674
 21
40.2952
  0
LINE
  8
0
 10
349.674
 20
40.2952
 11
349.694
 21
40.1482
  0
LINE
  8
0
 10
349.694
 20
40.1482
 11
349.7
 21
40
  0
LINE
  8
0
 10
349.7
 20
40
 11
349.694
 21
39.8518
  0
LINE
  8
0
 10
349.694
 20
39.8518
 11
349.674
 21
39.7048
  0
LINE
  8
0
 10
349.674
 20
39.7048
 11
349.642
 21
39.56
  0
LINE
  8
0
 10
349.642
 20
39.56
 11
349.597
 21
39.4186
  0
LINE
  8
0
 10
349.597
 20
39.4186
 11
349.541
 21
39.2816
  0
LINE
  8
0
 10
349.541
 20
39.2816
 11
349.472
 21
39.15
  0
LINE
  8
0
 10
349.472
 20
39.15
 11
349.393
 21
39.0249
  0
LINE
  8
0
 10
349.393
 20
39.0249
 11
349.302
 21
38.9073
  0
LINE
  8
0
 10
349.302
 20
38.9073
 11
349.202
 21
38.7979
  0
LINE
  8
0
 10
349.202
 20
38.7979
 11
349.093
 21
38.6977
  0
LINE
  8
0
 10
349.093
 20
38.6977
 11
348.975
 21
38.6075
  0
LINE
  8
0
 10
348.975
 20
38.6075
 11
348.85
 21
38.5278
  0
LINE
  8
0
 10
348.85
 20
38.5278
 11
348.718
 21
38.4593
  0
LINE
  8
0
 10
348.718
 20
38.4593
 11
348.581
 21
38.4025
  0
LINE
  8
0
 10
348.581
 20
38.4025
 11
348.44
 21
38.3579
  0
LINE
  8
0
 10
348.44
 20
38.3579
 11
348.295
 21
38.3258
  0
LINE
  8
0
 10
348.295
 20
38.3258
 11
348.148
 21
38.3065
  0
LINE
  8
0
 10
348.148
 20
38.3065
 11
348
 21
38.3
  0
LINE
  8
0
 10
348
 20
38.3
 11
347.852
 21
38.3065
  0
LINE
  8
0
 10
371.852
 20
38.3065
 11
371.705
 21
38.3258
  0
LINE
  8
0
 10
371.705
 20
38.3258
 11
371.56
 21
38.3579
  0
LINE
  8
0
 10
371.56
 20
38.3579
 11
371.419
 21
38.4025
  0
LINE
  8
0
 10
371.419
 20
38.4025
 11
371.282
 21
38.4593
  0
LINE
  8
0
 10
371.282
 20
38.4593
 11
371.15
 21
38.5278
  0
LINE
  8
0
 10
371.15
 20
38.5278
 11
371.025
 21
38.6075
  0
LINE
  8
0
 10
371.025
 20
38.6075
 11
370.907
 21
38.6977
  0
LINE
  8
0
 10
370.907
 20
38.6977
 11
370.798
 21
38.7979
  0
LINE
  8
0
 10
370.798
 20
38.7979
 11
370.698
 21
38.9073
  0
LINE
  8
0
 10
370.698
 20
38.9073
 11
370.607
 21
39.0249
  0
LINE
  8
0
 10
370.607
 20
39.0249
 11
370.528
 21
39.15
  0
LINE
  8
0
 10
370.528
 20
39.15
 11
370.459
 21
39.2816
  0
LINE
  8
0
 10
370.459
 20
39.2816
 11
370.403
 21
39.4186
  0
LINE
  8
0
 10
370.403
 20
39.4186
 11
370.358
 21
39.56
  0
LINE
  8
0
 10
370.358
 20
39.56
 11
370.326
 21
39.7048
  0
LINE
  8
0
 10
370.326
 20
39.7048
 11
370.306
 21
39.8518
  0
LINE
  8
0
 10
370.306
 20
39.8518
 11
370.3
 21
40
  0
LINE
  8
0
 10
370.3
 20
40
 11
370.306
 21
40.1482
  0
LINE
  8
0
 10
370.306
 20
40.1482
 11
370.326
 21
40.2952
  0
LINE
  8
0
 10
370.326
 20
40.2952
 11
370.358
 21
40.44
  0
LINE
  8
0
 10
370.358
 20
40.44
 11
370.403
 21
40.5814
  0
LINE
  8
0
 10
370.403
 20
40.5814
 11
370.459
 21
40.7184
  0
LINE
  8
0
 10
370.459
 20
40.7184
 11
370.528
 21
40.85
  0
LINE
  8
0
 10
370.528
 20
40.85
 11
370.607
 21
40.9751
  0
LINE
  8
0
 10
370.607
 20
40.9751
 11
370.698
 21
41.0927
  0
LINE
  8
0
 10
370.698
 20
41.0927
 11
370.798
 21
41.2021
  0
LINE
  8
0
 10
370.798
 20
41.2021
 11
370.907
 21
41.3023
  0
LINE
  8
0
 10
370.907
 20
41.3023
 11
371.025
 21
41.3925
  0
LINE
  8
0
 10
371.025
 20
41.3925
 11
371.15
 21
41.4722
  0
LINE
  8
0
 10
371.15
 20
41.4722
 11
371.282
 21
41.5407
  0
LINE
  8
0
 10
371.282
 20
41.5407
 11
371.419
 21
41.5975
  0
LINE
  8
0
 10
371.419
 20
41.5975
 11
371.56
 21
41.6421
  0
LINE
  8
0
 10
371.56
 20
41.6421
 11
371.705
 21
41.6742
  0
LINE
  8
0
 10
371.705
 20
41.6742
 11
371.852
 21
41.6935
  0
LINE
  8
0
 10
371.852
 20
41.6935
 11
372
 21
41.7
  0
LINE
  8
0
 10
372
 20
41.7
 11
372.148
 21
41.6935
  0
LINE
  8
0
 10
372.148
 20
41.6935
 11
372.295
 21
41.6742
  0
LINE
  8
0
 10
372.295
 20
41.6742
 11
372.44
 21
41.6421
  0
LINE
  8
0
 10
372.44
 20
41.6421
 11
372.581
 21
41.5975
  0
LINE
  8
0
 10
372.581
 20
41.5975
 11
372.718
 21
41.5407
  0
LINE
  8
0
 10
372.718
 20
41.5407
 11
372.85
 21
41.4722
  0
LINE
  8
0
 10
372.85
 20
41.4722
 11
372.975
 21
41.3925
  0
LINE
  8
0
 10
372.975
 20
41.3925
 11
373.093
 21
41.3023
  0
LINE
  8
0
 10
373.093
 20
41.3023
 11
373.202
 21
41.2021
  0
LINE
  8
0
 10
373.202
 20
41.2021
 11
373.302
 21
41.0927
  0
LINE
  8
0
 10
373.302
 20
41.0927
 11
373.393
 21
40.9751
  0
LINE
  8
0
 10
373.393
 20
40.9751
 11
373.472
 21
40.85
  0
LINE
  8
0
 10
373.472
 20
40.85
 11
373.541
 21
40.7184
  0
LINE
  8
0
 10
373.541
 20
40.7184
 11
373.597
 21
40.5814
  0
LINE
  8
0
 10
373.597
 20
40.5814
 11
373.642
 21
40.44
  0
LINE
  8
0
 10
373.642
 20
40.44
 11
373.674
 21
40.2952
  0
LINE
  8
0
 10
373.674
 20
40.2952
 11
373.694
 21
40.1482
  0
LINE
  8
0
 10
373.694
 20
40.1482
 11
373.7
 21
40
  0
LINE
  8
0
 10
373.7
 20
40
 11
373.694
 21
39.8518
  0
LINE
  8
0
 10
373.694
 20
39.8518
 11
373.674
 21
39.7048
  0
LINE
  8
0
 10
373.674
 20
39.7048
 11
373.642
 21
39.56
  0
LINE
  8
0
 10
373.642
 20
39.56
 11
373.597
 21
39.4186
  0
LINE
  8
0
 10
373.597
 20
39.4186
 11
373.541
 21
39.2816
  0
LINE
  8
0
 10
373.541
 20
39.2816
 11
373.472
 21
39.15
  0
LINE
  8
0
 10
373.472
 20
39.15
 11
373.393
 21
39.0249
  0
LINE
  8
0
 10
373.393
 20
39.0249
 11
373.302
 21
38.9073
  0
LINE
  8
0
 10
373.302
 20
38.9073
 11
373.202
 21
38.7979
  0
LINE
  8
0
 10
373.202
 20
38.7979
 11
373.093
 21
38.6977
  0
LINE
  8
0
 10
373.093
 20
38.6977
 11
372.975
 21
38.6075
  0
LINE
  8
0
 10
372.975
 20
38.6075
 11
372.85
 21
38.5278
  0
LINE
  8
0
 10
372.85
 20
38.5278
 11
372.718
 21
38.4593
  0
LINE
  8
0
 10
372.718
 20
38.4593
 11
372.581
 21
38.4025
  0
LINE
  8
0
 10
372.581
 20
38.4025
 11
372.44
 21
38.3579
  0
LINE
  8
0
 10
372.44
 20
38.3579
 11
372.295
 21
38.3258
  0
LINE
  8
0
 10
372.295
 20
38.3258
 11
372.148
 21
38.3065
  0
LINE
  8
0
 10
372.148
 20
38.3065
 11
372
 21
38.3
  0
LINE
  8
0
 10
372
 20
38.3
 11
371.852
 21
38.3065
  0
LINE
  8
0
 10
67.8518
 20
38.3065
 11
67.7048
 21
38.3258
  0
LINE
  8
0
 10
67.7048
 20
38.3258
 11
67.56
 21
38.3579
  0
LINE
  8
0
 10
67.56
 20
38.3579
 11
67.4186
 21
38.4025
  0
LINE
  8
0
 10
67.4186
 20
38.4025
 11
67.2816
 21
38.4593
  0
LINE
  8
0
 10
67.2816
 20
38.4593
 11
67.15
 21
38.5278
  0
LINE
  8
0
 10
67.15
 20
38.5278
 11
67.0249
 21
38.6075
  0
LINE
  8
0
 10
67.0249
 20
38.6075
 11
66.9073
 21
38.6977
  0
LINE
  8
0
 10
66.9073
 20
38.6977
 11
66.7979
 21
38.7979
  0
LINE
  8
0
 10
66.7979
 20
38.7979
 11
66.6977
 21
38.9073
  0
LINE
  8
0
 10
66.6977
 20
38.9073
 11
66.6075
 21
39.0249
  0
LINE
  8
0
 10
66.6075
 20
39.0249
 11
66.5278
 21
39.15
  0
LINE
  8
0
 10
66.5278
 20
39.15
 11
66.4593
 21
39.2816
  0
LINE
  8
0
 10
66.4593
 20
39.2816
 11
66.4025
 21
39.4186
  0
LINE
  8
0
 10
66.4025
 20
39.4186
 11
66.3579
 21
39.56
  0
LINE
  8
0
 10
66.3579
 20
39.56
 11
66.3258
 21
39.7048
  0
LINE
  8
0
 10
66.3258
 20
39.7048
 11
66.3065
 21
39.8518
  0
LINE
  8
0
 10
66.3065
 20
39.8518
 11
66.3
 21
40
  0
LINE
  8
0
 10
66.3
 20
40
 11
66.3065
 21
40.1482
  0
LINE
  8
0
 10
66.3065
 20
40.1482
 11
66.3258
 21
40.2952
  0
LINE
  8
0
 10
66.3258
 20
40.2952
 11
66.3579
 21
40.44
  0
LINE
  8
0
 10
66.3579
 20
40.44
 11
66.4025
 21
40.5814
  0
LINE
  8
0
 10
66.4025
 20
40.5814
 11
66.4593
 21
40.7184
  0
LINE
  8
0
 10
66.4593
 20
40.7184
 11
66.5278
 21
40.85
  0
LINE
  8
0
 10
66.5278
 20
40.85
 11
66.6075
 21
40.9751
  0
LINE
  8
0
 10
66.6075
 20
40.9751
 11
66.6977
 21
41.0927
  0
LINE
  8
0
 10
66.6977
 20
41.0927
 11
66.7979
 21
41.2021
  0
LINE
  8
0
 10
66.7979
 20
41.2021
 11
66.9073
 21
41.3023
  0
LINE
  8
0
 10
66.9073
 20
41.3023
 11
67.0249
 21
41.3925
  0
LINE
  8
0
 10
67.0249
 20
41.3925
 11
67.15
 21
41.4722
  0
LINE
  8
0
 10
67.15
 20
41.4722
 11
67.2816
 21
41.5407
  0
LINE
  8
0
 10
67.2816
 20
41.5407
 11
67.4186
 21
41.5975
  0
LINE
  8
0
 10
67.4186
 20
41.5975
 11
67.56
 21
41.6421
  0
LINE
  8
0
 10
67.56
 20
41.6421
 11
67.7048
 21
41.6742
  0
LINE
  8
0
 10
67.7048
 20
41.6742
 11
67.8518
 21
41.6935
  0
LINE
  8
0
 10
67.8518
 20
41.6935
 11
68
 21
41.7
  0
LINE
  8
0
 10
68
 20
41.7
 11
68.1482
 21
41.6935
  0
LINE
  8
0
 10
68.1482
 20
41.6935
 11
68.2952
 21
41.6742
  0
LINE
  8
0
 10
68.2952
 20
41.6742
 11
68.44
 21
41.6421
  0
LINE
  8
0
 10
68.44
 20
41.6421
 11
68.5814
 21
41.5975
  0
LINE
  8
0
 10
68.5814
 20
41.5975
 11
68.7185
 21
41.5407
  0
LINE
  8
0
 10
68.7185
 20
41.5407
 11
68.85
 21
41.4722
  0
LINE
  8
0
 10
68.85
 20
41.4722
 11
68.9751
 21
41.3925
  0
LINE
  8
0
 10
68.9751
 20
41.3925
 11
69.0927
 21
41.3023
  0
LINE
  8
0
 10
69.0927
 20
41.3023
 11
69.2021
 21
41.2021
  0
LINE
  8
0
 10
69.2021
 20
41.2021
 11
69.3023
 21
41.0927
  0
LINE
  8
0
 10
69.3023
 20
41.0927
 11
69.3926
 21
40.9751
  0
LINE
  8
0
 10
69.3926
 20
40.9751
 11
69.4722
 21
40.85
  0
LINE
  8
0
 10
69.4722
 20
40.85
 11
69.5407
 21
40.7184
  0
LINE
  8
0
 10
69.5407
 20
40.7184
 11
69.5975
 21
40.5814
  0
LINE
  8
0
 10
69.5975
 20
40.5814
 11
69.6421
 21
40.44
  0
LINE
  8
0
 10
69.6421
 20
40.44
 11
69.6742
 21
40.2952
  0
LINE
  8
0
 10
69.6742
 20
40.2952
 11
69.6935
 21
40.1482
  0
LINE
  8
0
 10
69.6935
 20
40.1482
 11
69.7
 21
40
  0
LINE
  8
0
 10
69.7
 20
40
 11
69.6935
 21
39.8518
  0
LINE
  8
0
 10
69.6935
 20
39.8518
 11
69.6742
 21
39.7048
  0
LINE
  8
0
 10
69.6742
 20
39.7048
 11
69.6421
 21
39.56
  0
LINE
  8
0
 10
69.6421
 20
39.56
 11
69.5975
 21
39.4186
  0
LINE
  8
0
 10
69.5975
 20
39.4186
 11
69.5407
 21
39.2816
  0
LINE
  8
0
 10
69.5407
 20
39.2816
 11
69.4722
 21
39.15
  0
LINE
  8
0
 10
69.4722
 20
39.15
 11
69.3926
 21
39.0249
  0
LINE
  8
0
 10
69.3926
 20
39.0249
 11
69.3023
 21
38.9073
  0
LINE
  8
0
 10
69.3023
 20
38.9073
 11
69.2021
 21
38.7979
  0
LINE
  8
0
 10
69.2021
 20
38.7979
 11
69.0927
 21
38.6977
  0
LINE
  8
0
 10
69.0927
 20
38.6977
 11
68.9751
 21
38.6075
  0
LINE
  8
0
 10
68.9751
 20
38.6075
 11
68.85
 21
38.5278
  0
LINE
  8
0
 10
68.85
 20
38.5278
 11
68.7185
 21
38.4593
  0
LINE
  8
0
 10
68.7185
 20
38.4593
 11
68.5814
 21
38.4025
  0
LINE
  8
0
 10
68.5814
 20
38.4025
 11
68.44
 21
38.3579
  0
LINE
  8
0
 10
68.44
 20
38.3579
 11
68.2952
 21
38.3258
  0
LINE
  8
0
 10
68.2952
 20
38.3258
 11
68.1482
 21
38.3065
  0
LINE
  8
0
 10
68.1482
 20
38.3065
 11
68
 21
38.3
  0
LINE
  8
0
 10
68
 20
38.3
 11
67.8518
 21
38.3065
  0
LINE
  8
0
 10
427.852
 20
38.3065
 11
427.705
 21
38.3258
  0
LINE
  8
0
 10
427.705
 20
38.3258
 11
427.56
 21
38.3579
  0
LINE
  8
0
 10
427.56
 20
38.3579
 11
427.419
 21
38.4025
  0
LINE
  8
0
 10
427.419
 20
38.4025
 11
427.282
 21
38.4593
  0
LINE
  8
0
 10
427.282
 20
38.4593
 11
427.15
 21
38.5278
  0
LINE
  8
0
 10
427.15
 20
38.5278
 11
427.025
 21
38.6075
  0
LINE
  8
0
 10
427.025
 20
38.6075
 11
426.907
 21
38.6977
  0
LINE
  8
0
 10
426.907
 20
38.6977
 11
426.798
 21
38.7979
  0
LINE
  8
0
 10
426.798
 20
38.7979
 11
426.698
 21
38.9073
  0
LINE
  8
0
 10
426.698
 20
38.9073
 11
426.607
 21
39.0249
  0
LINE
  8
0
 10
426.607
 20
39.0249
 11
426.528
 21
39.15
  0
LINE
  8
0
 10
426.528
 20
39.15
 11
426.459
 21
39.2816
  0
LINE
  8
0
 10
426.459
 20
39.2816
 11
426.403
 21
39.4186
  0
LINE
  8
0
 10
426.403
 20
39.4186
 11
426.358
 21
39.56
  0
LINE
  8
0
 10
426.358
 20
39.56
 11
426.326
 21
39.7048
  0
LINE
  8
0
 10
426.326
 20
39.7048
 11
426.306
 21
39.8518
  0
LINE
  8
0
 10
426.306
 20
39.8518
 11
426.3
 21
40
  0
LINE
  8
0
 10
426.3
 20
40
 11
426.306
 21
40.1482
  0
LINE
  8
0
 10
426.306
 20
40.1482
 11
426.326
 21
40.2952
  0
LINE
  8
0
 10
426.326
 20
40.2952
 11
426.358
 21
40.44
  0
LINE
  8
0
 10
426.358
 20
40.44
 11
426.403
 21
40.5814
  0
LINE
  8
0
 10
426.403
 20
40.5814
 11
426.459
 21
40.7184
  0
LINE
  8
0
 10
426.459
 20
40.7184
 11
426.528
 21
40.85
  0
LINE
  8
0
 10
426.528
 20
40.85
 11
426.607
 21
40.9751
  0
LINE
  8
0
 10
426.607
 20
40.9751
 11
426.698
 21
41.0927
  0
LINE
  8
0
 10
426.698
 20
41.0927
 11
426.798
 21
41.2021
  0
LINE
  8
0
 10
426.798
 20
41.2021
 11
426.907
 21
41.3023
  0
LINE
  8
0
 10
426.907
 20
41.3023
 11
427.025
 21
41.3925
  0
LINE
  8
0
 10
427.025
 20
41.3925
 11
427.15
 21
41.4722
  0
LINE
  8
0
 10
427.15
 20
41.4722
 11
427.282
 21
41.5407
  0
LINE
  8
0
 10
427.282
 20
41.5407
 11
427.419
 21
41.5975
  0
LINE
  8
0
 10
427.419
 20
41.5975
 11
427.56
 21
41.6421
  0
LINE
  8
0
 10
427.56
 20
41.6421
 11
427.705
 21
41.6742
  0
LINE
  8
0
 10
427.705
 20
41.6742
 11
427.852
 21
41.6935
  0
LINE
  8
0
 10
427.852
 20
41.6935
 11
428
 21
41.7
  0
LINE
  8
0
 10
428
 20
41.7
 11
428.148
 21
41.6935
  0
LINE
  8
0
 10
428.148
 20
41.6935
 11
428.295
 21
41.6742
  0
LINE
  8
0
 10
428.295
 20
41.6742
 11
428.44
 21
41.6421
  0
LINE
  8
0
 10
428.44
 20
41.6421
 11
428.581
 21
41.5975
  0
LINE
  8
0
 10
428.581
 20
41.5975
 11
428.718
 21
41.5407
  0
LINE
  8
0
 10
428.718
 20
41.5407
 11
428.85
 21
41.4722
  0
LINE
  8
0
 10
428.85
 20
41.4722
 11
428.975
 21
41.3925
  0
LINE
  8
0
 10
428.975
 20
41.3925
 11
429.093
 21
41.3023
  0
LINE
  8
0
 10
429.093
 20
41.3023
 11
429.202
 21
41.2021
  0
LINE
  8
0
 10
429.202
 20
41.2021
 11
429.302
 21
41.0927
  0
LINE
  8
0
 10
429.302
 20
41.0927
 11
429.393
 21
40.9751
  0
LINE
  8
0
 10
429.393
 20
40.9751
 11
429.472
 21
40.85
  0
LINE
  8
0
 10
429.472
 20
40.85
 11
429.541
 21
40.7184
  0
LINE
  8
0
 10
429.541
 20
40.7184
 11
429.597
 21
40.5814
  0
LINE
  8
0
 10
429.597
 20
40.5814
 11
429.642
 21
40.44
  0
LINE
  8
0
 10
429.642
 20
40.44
 11
429.674
 21
40.2952
  0
LINE
  8
0
 10
429.674
 20
40.2952
 11
429.694
 21
40.1482
  0
LINE
  8
0
 10
429.694
 20
40.1482
 11
429.7
 21
40
  0
LINE
  8
0
 10
429.7
 20
40
 11
429.694
 21
39.8518
  0
LINE
  8
0
 10
429.694
 20
39.8518
 11
429.674
 21
39.7048
  0
LINE
  8
0
 10
429.674
 20
39.7048
 11
429.642
 21
39.56
  0
LINE
  8
0
 10
429.642
 20
39.56
 11
429.597
 21
39.4186
  0
LINE
  8
0
 10
429.597
 20
39.4186
 11
429.541
 21
39.2816
  0
LINE
  8
0
 10
429.541
 20
39.2816
 11
429.472
 21
39.15
  0
LINE
  8
0
 10
429.472
 20
39.15
 11
429.393
 21
39.0249
  0
LINE
  8
0
 10
429.393
 20
39.0249
 11
429.302
 21
38.9073
  0
LINE
  8
0
 10
429.302
 20
38.9073
 11
429.202
 21
38.7979
  0
LINE
  8
0
 10
429.202
 20
38.7979
 11
429.093
 21
38.6977
  0
LINE
  8
0
 10
429.093
 20
38.6977
 11
428.975
 21
38.6075
  0
LINE
  8
0
 10
428.975
 20
38.6075
 11
428.85
 21
38.5278
  0
LINE
  8
0
 10
428.85
 20
38.5278
 11
428.718
 21
38.4593
  0
LINE
  8
0
 10
428.718
 20
38.4593
 11
428.581
 21
38.4025
  0
LINE
  8
0
 10
428.581
 20
38.4025
 11
428.44
 21
38.3579
  0
LINE
  8
0
 10
428.44
 20
38.3579
 11
428.295
 21
38.3258
  0
LINE
  8
0
 10
428.295
 20
38.3258
 11
428.148
 21
38.3065
  0
LINE
  8
0
 10
428.148
 20
38.3065
 11
428
 21
38.3
  0
LINE
  8
0
 10
428
 20
38.3
 11
427.852
 21
38.3065
  0
LINE
  8
0
 10
451.852
 20
38.3065
 11
451.705
 21
38.3258
  0
LINE
  8
0
 10
451.705
 20
38.3258
 11
451.56
 21
38.3579
  0
LINE
  8
0
 10
451.56
 20
38.3579
 11
451.419
 21
38.4025
  0
LINE
  8
0
 10
451.419
 20
38.4025
 11
451.282
 21
38.4593
  0
LINE
  8
0
 10
451.282
 20
38.4593
 11
451.15
 21
38.5278
  0
LINE
  8
0
 10
451.15
 20
38.5278
 11
451.025
 21
38.6075
  0
LINE
  8
0
 10
451.025
 20
38.6075
 11
450.907
 21
38.6977
  0
LINE
  8
0
 10
450.907
 20
38.6977
 11
450.798
 21
38.7979
  0
LINE
  8
0
 10
450.798
 20
38.7979
 11
450.698
 21
38.9073
  0
LINE
  8
0
 10
450.698
 20
38.9073
 11
450.607
 21
39.0249
  0
LINE
  8
0
 10
450.607
 20
39.0249
 11
450.528
 21
39.15
  0
LINE
  8
0
 10
450.528
 20
39.15
 11
450.459
 21
39.2816
  0
LINE
  8
0
 10
450.459
 20
39.2816
 11
450.403
 21
39.4186
  0
LINE
  8
0
 10
450.403
 20
39.4186
 11
450.358
 21
39.56
  0
LINE
  8
0
 10
450.358
 20
39.56
 11
450.326
 21
39.7048
  0
LINE
  8
0
 10
450.326
 20
39.7048
 11
450.306
 21
39.8518
  0
LINE
  8
0
 10
450.306
 20
39.8518
 11
450.3
 21
40
  0
LINE
  8
0
 10
450.3
 20
40
 11
450.306
 21
40.1482
  0
LINE
  8
0
 10
450.306
 20
40.1482
 11
450.326
 21
40.2952
  0
LINE
  8
0
 10
450.326
 20
40.2952
 11
450.358
 21
40.44
  0
LINE
  8
0
 10
450.358
 20
40.44
 11
450.403
 21
40.5814
  0
LINE
  8
0
 10
450.403
 20
40.5814
 11
450.459
 21
40.7184
  0
LINE
  8
0
 10
450.459
 20
40.7184
 11
450.528
 21
40.85
  0
LINE
  8
0
 10
450.528
 20
40.85
 11
450.607
 21
40.9751
  0
LINE
  8
0
 10
450.607
 20
40.9751
 11
450.698
 21
41.0927
  0
LINE
  8
0
 10
450.698
 20
41.0927
 11
450.798
 21
41.2021
  0
LINE
  8
0
 10
450.798
 20
41.2021
 11
450.907
 21
41.3023
  0
LINE
  8
0
 10
450.907
 20
41.3023
 11
451.025
 21
41.3925
  0
LINE
  8
0
 10
451.025
 20
41.3925
 11
451.15
 21
41.4722
  0
LINE
  8
0
 10
451.15
 20
41.4722
 11
451.282
 21
41.5407
  0
LINE
  8
0
 10
451.282
 20
41.5407
 11
451.419
 21
41.5975
  0
LINE
  8
0
 10
451.419
 20
41.5975
 11
451.56
 21
41.6421
  0
LINE
  8
0
 10
451.56
 20
41.6421
 11
451.705
 21
41.6742
  0
LINE
  8
0
 10
451.705
 20
41.6742
 11
451.852
 21
41.6935
  0
LINE
  8
0
 10
451.852
 20
41.6935
 11
452
 21
41.7
  0
LINE
  8
0
 10
452
 20
41.7
 11
452.148
 21
41.6935
  0
LINE
  8
0
 10
452.148
 20
41.6935
 11
452.295
 21
41.6742
  0
LINE
  8
0
 10
452.295
 20
41.6742
 11
452.44
 21
41.6421
  0
LINE
  8
0
 10
452.44
 20
41.6421
 11
452.581
 21
41.5975
  0
LINE
  8
0
 10
452.581
 20
41.5975
 11
452.718
 21
41.5407
  0
LINE
  8
0
 10
452.718
 20
41.5407
 11
452.85
 21
41.4722
  0
LINE
  8
0
 10
452.85
 20
41.4722
 11
452.975
 21
41.3925
  0
LINE
  8
0
 10
452.975
 20
41.3925
 11
453.093
 21
41.3023
  0
LINE
  8
0
 10
453.093
 20
41.3023
 11
453.202
 21
41.2021
  0
LINE
  8
0
 10
453.202
 20
41.2021
 11
453.302
 21
41.0927
  0
LINE
  8
0
 10
453.302
 20
41.0927
 11
453.393
 21
40.9751
  0
LINE
  8
0
 10
453.393
 20
40.9751
 11
453.472
 21
40.85
  0
LINE
  8
0
 10
453.472
 20
40.85
 11
453.541
 21
40.7184
  0
LINE
  8
0
 10
453.541
 20
40.7184
 11
453.597
 21
40.5814
  0
LINE
  8
0
 10
453.597
 20
40.5814
 11
453.642
 21
40.44
  0
LINE
  8
0
 10
453.642
 20
40.44
 11
453.674
 21
40.2952
  0
LINE
  8
0
 10
453.674
 20
40.2952
 11
453.694
 21
40.1482
  0
LINE
  8
0
 10
453.694
 20
40.1482
 11
453.7
 21
40
  0
LINE
  8
0
 10
453.7
 20
40
 11
453.694
 21
39.8518
  0
LINE
  8
0
 10
453.694
 20
39.8518
 11
453.674
 21
39.7048
  0
LINE
  8
0
 10
453.674
 20
39.7048
 11
453.642
 21
39.56
  0
LINE
  8
0
 10
453.642
 20
39.56
 11
453.597
 21
39.4186
  0
LINE
  8
0
 10
453.597
 20
39.4186
 11
453.541
 21
39.2816
  0
LINE
  8
0
 10
453.541
 20
39.2816
 11
453.472
 21
39.15
  0
LINE
  8
0
 10
453.472
 20
39.15
 11
453.393
 21
39.0249
  0
LINE
  8
0
 10
453.393
 20
39.0249
 11
453.302
 21
38.9073
  0
LINE
  8
0
 10
453.302
 20
38.9073
 11
453.202
 21
38.7979
  0
LINE
  8
0
 10
453.202
 20
38.7979
 11
453.093
 21
38.6977
  0
LINE
  8
0
 10
453.093
 20
38.6977
 11
452.975
 21
38.6075
  0
LINE
  8
0
 10
452.975
 20
38.6075
 11
452.85
 21
38.5278
  0
LINE
  8
0
 10
452.85
 20
38.5278
 11
452.718
 21
38.4593
  0
LINE
  8
0
 10
452.718
 20
38.4593
 11
452.581
 21
38.4025
  0
LINE
  8
0
 10
452.581
 20
38.4025
 11
452.44
 21
38.3579
  0
LINE
  8
0
 10
452.44
 20
38.3579
 11
452.295
 21
38.3258
  0
LINE
  8
0
 10
452.295
 20
38.3258
 11
452.148
 21
38.3065
  0
LINE
  8
0
 10
452.148
 20
38.3065
 11
452
 21
38.3
  0
LINE
  8
0
 10
452
 20
38.3
 11
451.852
 21
38.3065
  0
LINE
  8
0
 10
651.852
 20
38.3065
 11
651.705
 21
38.3258
  0
LINE
  8
0
 10
651.705
 20
38.3258
 11
651.56
 21
38.3579
  0
LINE
  8
0
 10
651.56
 20
38.3579
 11
651.419
 21
38.4025
  0
LINE
  8
0
 10
651.419
 20
38.4025
 11
651.282
 21
38.4593
  0
LINE
  8
0
 10
651.282
 20
38.4593
 11
651.15
 21
38.5278
  0
LINE
  8
0
 10
651.15
 20
38.5278
 11
651.025
 21
38.6075
  0
LINE
  8
0
 10
651.025
 20
38.6075
 11
650.907
 21
38.6977
  0
LINE
  8
0
 10
650.907
 20
38.6977
 11
650.798
 21
38.7979
  0
LINE
  8
0
 10
650.798
 20
38.7979
 11
650.698
 21
38.9073
  0
LINE
  8
0
 10
650.698
 20
38.9073
 11
650.607
 21
39.0249
  0
LINE
  8
0
 10
650.607
 20
39.0249
 11
650.528
 21
39.15
  0
LINE
  8
0
 10
650.528
 20
39.15
 11
650.459
 21
39.2816
  0
LINE
  8
0
 10
650.459
 20
39.2816
 11
650.403
 21
39.4186
  0
LINE
  8
0
 10
650.403
 20
39.4186
 11
650.358
 21
39.56
  0
LINE
  8
0
 10
650.358
 20
39.56
 11
650.326
 21
39.7048
  0
LINE
  8
0
 10
650.326
 20
39.7048
 11
650.306
 21
39.8518
  0
LINE
  8
0
 10
650.306
 20
39.8518
 11
650.3
 21
40
  0
LINE
  8
0
 10
650.3
 20
40
 11
650.306
 21
40.1482
  0
LINE
  8
0
 10
650.306
 20
40.1482
 11
650.326
 21
40.2952
  0
LINE
  8
0
 10
650.326
 20
40.2952
 11
650.358
 21
40.44
  0
LINE
  8
0
 10
650.358
 20
40.44
 11
650.403
 21
40.5814
  0
LINE
  8
0
 10
650.403
 20
40.5814
 11
650.459
 21
40.7184
  0
LINE
  8
0
 10
650.459
 20
40.7184
 11
650.528
 21
40.85
  0
LINE
  8
0
 10
650.528
 20
40.85
 11
650.607
 21
40.9751
  0
LINE
  8
0
 10
650.607
 20
40.9751
 11
650.698
 21
41.0927
  0
LINE
  8
0
 10
650.698
 20
41.0927
 11
650.798
 21
41.2021
  0
LINE
  8
0
 10
650.798
 20
41.2021
 11
650.907
 21
41.3023
  0
LINE
  8
0
 10
650.907
 20
41.3023
 11
651.025
 21
41.3925
  0
LINE
  8
0
 10
651.025
 20
41.3925
 11
651.15
 21
41.4722
  0
LINE
  8
0
 10
651.15
 20
41.4722
 11
651.282
 21
41.5407
  0
LINE
  8
0
 10
651.282
 20
41.5407
 11
651.419
 21
41.5975
  0
LINE
  8
0
 10
651.419
 20
41.5975
 11
651.56
 21
41.6421
  0
LINE
  8
0
 10
651.56
 20
41.6421
 11
651.705
 21
41.6742
  0
LINE
  8
0
 10
651.705
 20
41.6742
 11
651.852
 21
41.6935
  0
LINE
  8
0
 10
651.852
 20
41.6935
 11
652
 21
41.7
  0
LINE
  8
0
 10
652
 20
41.7
 11
652.148
 21
41.6935
  0
LINE
  8
0
 10
652.148
 20
41.6935
 11
652.295
 21
41.6742
  0
LINE
  8
0
 10
652.295
 20
41.6742
 11
652.44
 21
41.6421
  0
LINE
  8
0
 10
652.44
 20
41.6421
 11
652.581
 21
41.5975
  0
LINE
  8
0
 10
652.581
 20
41.5975
 11
652.718
 21
41.5407
  0
LINE
  8
0
 10
652.718
 20
41.5407
 11
652.85
 21
41.4722
  0
LINE
  8
0
 10
652.85
 20
41.4722
 11
652.975
 21
41.3925
  0
LINE
  8
0
 10
652.975
 20
41.3925
 11
653.093
 21
41.3023
  0
LINE
  8
0
 10
653.093
 20
41.3023
 11
653.202
 21
41.2021
  0
LINE
  8
0
 10
653.202
 20
41.2021
 11
653.302
 21
41.0927
  0
LINE
  8
0
 10
653.302
 20
41.0927
 11
653.393
 21
40.9751
  0
LINE
  8
0
 10
653.393
 20
40.9751
 11
653.472
 21
40.85
  0
LINE
  8
0
 10
653.472
 20
40.85
 11
653.541
 21
40.7184
  0
LINE
  8
0
 10
653.541
 20
40.7184
 11
653.597
 21
40.5814
  0
LINE
  8
0
 10
653.597
 20
40.5814
 11
653.642
 21
40.44
  0
LINE
  8
0
 10
653.642
 20
40.44
 11
653.674
 21
40.2952
  0
LINE
  8
0
 10
653.674
 20
40.2952
 11
653.694
 21
40.1482
  0
LINE
  8
0
 10
653.694
 20
40.1482
 11
653.7
 21
40
  0
LINE
  8
0
 10
653.7
 20
40
 11
653.694
 21
39.8518
  0
LINE
  8
0
 10
653.694
 20
39.8518
 11
653.674
 21
39.7048
  0
LINE
  8
0
 10
653.674
 20
39.7048
 11
653.642
 21
39.56
  0
LINE
  8
0
 10
653.642
 20
39.56
 11
653.597
 21
39.4186
  0
LINE
  8
0
 10
653.597
 20
39.4186
 11
653.541
 21
39.2816
  0
LINE
  8
0
 10
653.541
 20
39.2816
 11
653.472
 21
39.15
  0
LINE
  8
0
 10
653.472
 20
39.15
 11
653.393
 21
39.0249
  0
LINE
  8
0
 10
653.393
 20
39.0249
 11
653.302
 21
38.9073
  0
LINE
  8
0
 10
653.302
 20
38.9073
 11
653.202
 21
38.7979
  0
LINE
  8
0
 10
653.202
 20
38.7979
 11
653.093
 21
38.6977
  0
LINE
  8
0
 10
653.093
 20
38.6977
 11
652.975
 21
38.6075
  0
LINE
  8
0
 10
652.975
 20
38.6075
 11
652.85
 21
38.5278
  0
LINE
  8
0
 10
652.85
 20
38.5278
 11
652.718
 21
38.4593
  0
LINE
  8
0
 10
652.718
 20
38.4593
 11
652.581
 21
38.4025
  0
LINE
  8
0
 10
652.581
 20
38.4025
 11
652.44
 21
38.3579
  0
LINE
  8
0
 10
652.44
 20
38.3579
 11
652.295
 21
38.3258
  0
LINE
  8
0
 10
652.295
 20
38.3258
 11
652.148
 21
38.3065
  0
LINE
  8
0
 10
652.148
 20
38.3065
 11
652
 21
38.3
  0
LINE
  8
0
 10
652
 20
38.3
 11
651.852
 21
38.3065
  0
LINE
  8
0
 10
411.852
 20
38.3065
 11
411.705
 21
38.3258
  0
LINE
  8
0
 10
411.705
 20
38.3258
 11
411.56
 21
38.3579
  0
LINE
  8
0
 10
411.56
 20
38.3579
 11
411.419
 21
38.4025
  0
LINE
  8
0
 10
411.419
 20
38.4025
 11
411.282
 21
38.4593
  0
LINE
  8
0
 10
411.282
 20
38.4593
 11
411.15
 21
38.5278
  0
LINE
  8
0
 10
411.15
 20
38.5278
 11
411.025
 21
38.6075
  0
LINE
  8
0
 10
411.025
 20
38.6075
 11
410.907
 21
38.6977
  0
LINE
  8
0
 10
410.907
 20
38.6977
 11
410.798
 21
38.7979
  0
LINE
  8
0
 10
410.798
 20
38.7979
 11
410.698
 21
38.9073
  0
LINE
  8
0
 10
410.698
 20
38.9073
 11
410.607
 21
39.0249
  0
LINE
  8
0
 10
410.607
 20
39.0249
 11
410.528
 21
39.15
  0
LINE
  8
0
 10
410.528
 20
39.15
 11
410.459
 21
39.2816
  0
LINE
  8
0
 10
410.459
 20
39.2816
 11
410.403
 21
39.4186
  0
LINE
  8
0
 10
410.403
 20
39.4186
 11
410.358
 21
39.56
  0
LINE
  8
0
 10
410.358
 20
39.56
 11
410.326
 21
39.7048
  0
LINE
  8
0
 10
410.326
 20
39.7048
 11
410.306
 21
39.8518
  0
LINE
  8
0
 10
410.306
 20
39.8518
 11
410.3
 21
40
  0
LINE
  8
0
 10
410.3
 20
40
 11
410.306
 21
40.1482
  0
LINE
  8
0
 10
410.306
 20
40.1482
 11
410.326
 21
40.2952
  0
LINE
  8
0
 10
410.326
 20
40.2952
 11
410.358
 21
40.44
  0
LINE
  8
0
 10
410.358
 20
40.44
 11
410.403
 21
40.5814
  0
LINE
  8
0
 10
410.403
 20
40.5814
 11
410.459
 21
40.7184
  0
LINE
  8
0
 10
410.459
 20
40.7184
 11
410.528
 21
40.85
  0
LINE
  8
0
 10
410.528
 20
40.85
 11
410.607
 21
40.9751
  0
LINE
  8
0
 10
410.607
 20
40.9751
 11
410.698
 21
41.0927
  0
LINE
  8
0
 10
410.698
 20
41.0927
 11
410.798
 21
41.2021
  0
LINE
  8
0
 10
410.798
 20
41.2021
 11
410.907
 21
41.3023
  0
LINE
  8
0
 10
410.907
 20
41.3023
 11
411.025
 21
41.3925
  0
LINE
  8
0
 10
411.025
 20
41.3925
 11
411.15
 21
41.4722
  0
LINE
  8
0
 10
411.15
 20
41.4722
 11
411.282
 21
41.5407
  0
LINE
  8
0
 10
411.282
 20
41.5407
 11
411.419
 21
41.5975
  0
LINE
  8
0
 10
411.419
 20
41.5975
 11
411.56
 21
41.6421
  0
LINE
  8
0
 10
411.56
 20
41.6421
 11
411.705
 21
41.6742
  0
LINE
  8
0
 10
411.705
 20
41.6742
 11
411.852
 21
41.6935
  0
LINE
  8
0
 10
411.852
 20
41.6935
 11
412
 21
41.7
  0
LINE
  8
0
 10
412
 20
41.7
 11
412.148
 21
41.6935
  0
LINE
  8
0
 10
412.148
 20
41.6935
 11
412.295
 21
41.6742
  0
LINE
  8
0
 10
412.295
 20
41.6742
 11
412.44
 21
41.6421
  0
LINE
  8
0
 10
412.44
 20
41.6421
 11
412.581
 21
41.5975
  0
LINE
  8
0
 10
412.581
 20
41.5975
 11
412.718
 21
41.5407
  0
LINE
  8
0
 10
412.718
 20
41.5407
 11
412.85
 21
41.4722
  0
LINE
  8
0
 10
412.85
 20
41.4722
 11
412.975
 21
41.3925
  0
LINE
  8
0
 10
412.975
 20
41.3925
 11
413.093
 21
41.3023
  0
LINE
  8
0
 10
413.093
 20
41.3023
 11
413.202
 21
41.2021
  0
LINE
  8
0
 10
413.202
 20
41.2021
 11
413.302
 21
41.0927
  0
LINE
  8
0
 10
413.302
 20
41.0927
 11
413.393
 21
40.9751
  0
LINE
  8
0
 10
413.393
 20
40.9751
 11
413.472
 21
40.85
  0
LINE
  8
0
 10
413.472
 20
40.85
 11
413.541
 21
40.7184
  0
LINE
  8
0
 10
413.541
 20
40.7184
 11
413.597
 21
40.5814
  0
LINE
  8
0
 10
413.597
 20
40.5814
 11
413.642
 21
40.44
  0
LINE
  8
0
 10
413.642
 20
40.44
 11
413.674
 21
40.2952
  0
LINE
  8
0
 10
413.674
 20
40.2952
 11
413.694
 21
40.1482
  0
LINE
  8
0
 10
413.694
 20
40.1482
 11
413.7
 21
40
  0
LINE
  8
0
 10
413.7
 20
40
 11
413.694
 21
39.8518
  0
LINE
  8
0
 10
413.694
 20
39.8518
 11
413.674
 21
39.7048
  0
LINE
  8
0
 10
413.674
 20
39.7048
 11
413.642
 21
39.56
  0
LINE
  8
0
 10
413.642
 20
39.56
 11
413.597
 21
39.4186
  0
LINE
  8
0
 10
413.597
 20
39.4186
 11
413.541
 21
39.2816
  0
LINE
  8
0
 10
413.541
 20
39.2816
 11
413.472
 21
39.15
  0
LINE
  8
0
 10
413.472
 20
39.15
 11
413.393
 21
39.0249
  0
LINE
  8
0
 10
413.393
 20
39.0249
 11
413.302
 21
38.9073
  0
LINE
  8
0
 10
413.302
 20
38.9073
 11
413.202
 21
38.7979
  0
LINE
  8
0
 10
413.202
 20
38.7979
 11
413.093
 21
38.6977
  0
LINE
  8
0
 10
413.093
 20
38.6977
 11
412.975
 21
38.6075
  0
LINE
  8
0
 10
412.975
 20
38.6075
 11
412.85
 21
38.5278
  0
LINE
  8
0
 10
412.85
 20
38.5278
 11
412.718
 21
38.4593
  0
LINE
  8
0
 10
412.718
 20
38.4593
 11
412.581
 21
38.4025
  0
LINE
  8
0
 10
412.581
 20
38.4025
 11
412.44
 21
38.3579
  0
LINE
  8
0
 10
412.44
 20
38.3579
 11
412.295
 21
38.3258
  0
LINE
  8
0
 10
412.295
 20
38.3258
 11
412.148
 21
38.3065
  0
LINE
  8
0
 10
412.148
 20
38.3065
 11
412
 21
38.3
  0
LINE
  8
0
 10
412
 20
38.3
 11
411.852
 21
38.3065
  0
LINE
  8
0
 10
467.852
 20
38.3065
 11
467.705
 21
38.3258
  0
LINE
  8
0
 10
467.705
 20
38.3258
 11
467.56
 21
38.3579
  0
LINE
  8
0
 10
467.56
 20
38.3579
 11
467.419
 21
38.4025
  0
LINE
  8
0
 10
467.419
 20
38.4025
 11
467.282
 21
38.4593
  0
LINE
  8
0
 10
467.282
 20
38.4593
 11
467.15
 21
38.5278
  0
LINE
  8
0
 10
467.15
 20
38.5278
 11
467.025
 21
38.6075
  0
LINE
  8
0
 10
467.025
 20
38.6075
 11
466.907
 21
38.6977
  0
LINE
  8
0
 10
466.907
 20
38.6977
 11
466.798
 21
38.7979
  0
LINE
  8
0
 10
466.798
 20
38.7979
 11
466.698
 21
38.9073
  0
LINE
  8
0
 10
466.698
 20
38.9073
 11
466.607
 21
39.0249
  0
LINE
  8
0
 10
466.607
 20
39.0249
 11
466.528
 21
39.15
  0
LINE
  8
0
 10
466.528
 20
39.15
 11
466.459
 21
39.2816
  0
LINE
  8
0
 10
466.459
 20
39.2816
 11
466.403
 21
39.4186
  0
LINE
  8
0
 10
466.403
 20
39.4186
 11
466.358
 21
39.56
  0
LINE
  8
0
 10
466.358
 20
39.56
 11
466.326
 21
39.7048
  0
LINE
  8
0
 10
466.326
 20
39.7048
 11
466.306
 21
39.8518
  0
LINE
  8
0
 10
466.306
 20
39.8518
 11
466.3
 21
40
  0
LINE
  8
0
 10
466.3
 20
40
 11
466.306
 21
40.1482
  0
LINE
  8
0
 10
466.306
 20
40.1482
 11
466.326
 21
40.2952
  0
LINE
  8
0
 10
466.326
 20
40.2952
 11
466.358
 21
40.44
  0
LINE
  8
0
 10
466.358
 20
40.44
 11
466.403
 21
40.5814
  0
LINE
  8
0
 10
466.403
 20
40.5814
 11
466.459
 21
40.7184
  0
LINE
  8
0
 10
466.459
 20
40.7184
 11
466.528
 21
40.85
  0
LINE
  8
0
 10
466.528
 20
40.85
 11
466.607
 21
40.9751
  0
LINE
  8
0
 10
466.607
 20
40.9751
 11
466.698
 21
41.0927
  0
LINE
  8
0
 10
466.698
 20
41.0927
 11
466.798
 21
41.2021
  0
LINE
  8
0
 10
466.798
 20
41.2021
 11
466.907
 21
41.3023
  0
LINE
  8
0
 10
466.907
 20
41.3023
 11
467.025
 21
41.3925
  0
LINE
  8
0
 10
467.025
 20
41.3925
 11
467.15
 21
41.4722
  0
LINE
  8
0
 10
467.15
 20
41.4722
 11
467.282
 21
41.5407
  0
LINE
  8
0
 10
467.282
 20
41.5407
 11
467.419
 21
41.5975
  0
LINE
  8
0
 10
467.419
 20
41.5975
 11
467.56
 21
41.6421
  0
LINE
  8
0
 10
467.56
 20
41.6421
 11
467.705
 21
41.6742
  0
LINE
  8
0
 10
467.705
 20
41.6742
 11
467.852
 21
41.6935
  0
LINE
  8
0
 10
467.852
 20
41.6935
 11
468
 21
41.7
  0
LINE
  8
0
 10
468
 20
41.7
 11
468.148
 21
41.6935
  0
LINE
  8
0
 10
468.148
 20
41.6935
 11
468.295
 21
41.6742
  0
LINE
  8
0
 10
468.295
 20
41.6742
 11
468.44
 21
41.6421
  0
LINE
  8
0
 10
468.44
 20
41.6421
 11
468.581
 21
41.5975
  0
LINE
  8
0
 10
468.581
 20
41.5975
 11
468.718
 21
41.5407
  0
LINE
  8
0
 10
468.718
 20
41.5407
 11
468.85
 21
41.4722
  0
LINE
  8
0
 10
468.85
 20
41.4722
 11
468.975
 21
41.3925
  0
LINE
  8
0
 10
468.975
 20
41.3925
 11
469.093
 21
41.3023
  0
LINE
  8
0
 10
469.093
 20
41.3023
 11
469.202
 21
41.2021
  0
LINE
  8
0
 10
469.202
 20
41.2021
 11
469.302
 21
41.0927
  0
LINE
  8
0
 10
469.302
 20
41.0927
 11
469.393
 21
40.9751
  0
LINE
  8
0
 10
469.393
 20
40.9751
 11
469.472
 21
40.85
  0
LINE
  8
0
 10
469.472
 20
40.85
 11
469.541
 21
40.7184
  0
LINE
  8
0
 10
469.541
 20
40.7184
 11
469.597
 21
40.5814
  0
LINE
  8
0
 10
469.597
 20
40.5814
 11
469.642
 21
40.44
  0
LINE
  8
0
 10
469.642
 20
40.44
 11
469.674
 21
40.2952
  0
LINE
  8
0
 10
469.674
 20
40.2952
 11
469.694
 21
40.1482
  0
LINE
  8
0
 10
469.694
 20
40.1482
 11
469.7
 21
40
  0
LINE
  8
0
 10
469.7
 20
40
 11
469.694
 21
39.8518
  0
LINE
  8
0
 10
469.694
 20
39.8518
 11
469.674
 21
39.7048
  0
LINE
  8
0
 10
469.674
 20
39.7048
 11
469.642
 21
39.56
  0
LINE
  8
0
 10
469.642
 20
39.56
 11
469.597
 21
39.4186
  0
LINE
  8
0
 10
469.597
 20
39.4186
 11
469.541
 21
39.2816
  0
LINE
  8
0
 10
469.541
 20
39.2816
 11
469.472
 21
39.15
  0
LINE
  8
0
 10
469.472
 20
39.15
 11
469.393
 21
39.0249
  0
LINE
  8
0
 10
469.393
 20
39.0249
 11
469.302
 21
38.9073
  0
LINE
  8
0
 10
469.302
 20
38.9073
 11
469.202
 21
38.7979
  0
LINE
  8
0
 10
469.202
 20
38.7979
 11
469.093
 21
38.6977
  0
LINE
  8
0
 10
469.093
 20
38.6977
 11
468.975
 21
38.6075
  0
LINE
  8
0
 10
468.975
 20
38.6075
 11
468.85
 21
38.5278
  0
LINE
  8
0
 10
468.85
 20
38.5278
 11
468.718
 21
38.4593
  0
LINE
  8
0
 10
468.718
 20
38.4593
 11
468.581
 21
38.4025
  0
LINE
  8
0
 10
468.581
 20
38.4025
 11
468.44
 21
38.3579
  0
LINE
  8
0
 10
468.44
 20
38.3579
 11
468.295
 21
38.3258
  0
LINE
  8
0
 10
468.295
 20
38.3258
 11
468.148
 21
38.3065
  0
LINE
  8
0
 10
468.148
 20
38.3065
 11
468
 21
38.3
  0
LINE
  8
0
 10
468
 20
38.3
 11
467.852
 21
38.3065
  0
LINE
  8
0
 10
491.852
 20
38.3065
 11
491.705
 21
38.3258
  0
LINE
  8
0
 10
491.705
 20
38.3258
 11
491.56
 21
38.3579
  0
LINE
  8
0
 10
491.56
 20
38.3579
 11
491.419
 21
38.4025
  0
LINE
  8
0
 10
491.419
 20
38.4025
 11
491.282
 21
38.4593
  0
LINE
  8
0
 10
491.282
 20
38.4593
 11
491.15
 21
38.5278
  0
LINE
  8
0
 10
491.15
 20
38.5278
 11
491.025
 21
38.6075
  0
LINE
  8
0
 10
491.025
 20
38.6075
 11
490.907
 21
38.6977
  0
LINE
  8
0
 10
490.907
 20
38.6977
 11
490.798
 21
38.7979
  0
LINE
  8
0
 10
490.798
 20
38.7979
 11
490.698
 21
38.9073
  0
LINE
  8
0
 10
490.698
 20
38.9073
 11
490.607
 21
39.0249
  0
LINE
  8
0
 10
490.607
 20
39.0249
 11
490.528
 21
39.15
  0
LINE
  8
0
 10
490.528
 20
39.15
 11
490.459
 21
39.2816
  0
LINE
  8
0
 10
490.459
 20
39.2816
 11
490.403
 21
39.4186
  0
LINE
  8
0
 10
490.403
 20
39.4186
 11
490.358
 21
39.56
  0
LINE
  8
0
 10
490.358
 20
39.56
 11
490.326
 21
39.7048
  0
LINE
  8
0
 10
490.326
 20
39.7048
 11
490.306
 21
39.8518
  0
LINE
  8
0
 10
490.306
 20
39.8518
 11
490.3
 21
40
  0
LINE
  8
0
 10
490.3
 20
40
 11
490.306
 21
40.1482
  0
LINE
  8
0
 10
490.306
 20
40.1482
 11
490.326
 21
40.2952
  0
LINE
  8
0
 10
490.326
 20
40.2952
 11
490.358
 21
40.44
  0
LINE
  8
0
 10
490.358
 20
40.44
 11
490.403
 21
40.5814
  0
LINE
  8
0
 10
490.403
 20
40.5814
 11
490.459
 21
40.7184
  0
LINE
  8
0
 10
490.459
 20
40.7184
 11
490.528
 21
40.85
  0
LINE
  8
0
 10
490.528
 20
40.85
 11
490.607
 21
40.9751
  0
LINE
  8
0
 10
490.607
 20
40.9751
 11
490.698
 21
41.0927
  0
LINE
  8
0
 10
490.698
 20
41.0927
 11
490.798
 21
41.2021
  0
LINE
  8
0
 10
490.798
 20
41.2021
 11
490.907
 21
41.3023
  0
LINE
  8
0
 10
490.907
 20
41.3023
 11
491.025
 21
41.3925
  0
LINE
  8
0
 10
491.025
 20
41.3925
 11
491.15
 21
41.4722
  0
LINE
  8
0
 10
491.15
 20
41.4722
 11
491.282
 21
41.5407
  0
LINE
  8
0
 10
491.282
 20
41.5407
 11
491.419
 21
41.5975
  0
LINE
  8
0
 10
491.419
 20
41.5975
 11
491.56
 21
41.6421
  0
LINE
  8
0
 10
491.56
 20
41.6421
 11
491.705
 21
41.6742
  0
LINE
  8
0
 10
491.705
 20
41.6742
 11
491.852
 21
41.6935
  0
LINE
  8
0
 10
491.852
 20
41.6935
 11
492
 21
41.7
  0
LINE
  8
0
 10
492
 20
41.7
 11
492.148
 21
41.6935
  0
LINE
  8
0
 10
492.148
 20
41.6935
 11
492.295
 21
41.6742
  0
LINE
  8
0
 10
492.295
 20
41.6742
 11
492.44
 21
41.6421
  0
LINE
  8
0
 10
492.44
 20
41.6421
 11
492.581
 21
41.5975
  0
LINE
  8
0
 10
492.581
 20
41.5975
 11
492.718
 21
41.5407
  0
LINE
  8
0
 10
492.718
 20
41.5407
 11
492.85
 21
41.4722
  0
LINE
  8
0
 10
492.85
 20
41.4722
 11
492.975
 21
41.3925
  0
LINE
  8
0
 10
492.975
 20
41.3925
 11
493.093
 21
41.3023
  0
LINE
  8
0
 10
493.093
 20
41.3023
 11
493.202
 21
41.2021
  0
LINE
  8
0
 10
493.202
 20
41.2021
 11
493.302
 21
41.0927
  0
LINE
  8
0
 10
493.302
 20
41.0927
 11
493.393
 21
40.9751
  0
LINE
  8
0
 10
493.393
 20
40.9751
 11
493.472
 21
40.85
  0
LINE
  8
0
 10
493.472
 20
40.85
 11
493.541
 21
40.7184
  0
LINE
  8
0
 10
493.541
 20
40.7184
 11
493.597
 21
40.5814
  0
LINE
  8
0
 10
493.597
 20
40.5814
 11
493.642
 21
40.44
  0
LINE
  8
0
 10
493.642
 20
40.44
 11
493.674
 21
40.2952
  0
LINE
  8
0
 10
493.674
 20
40.2952
 11
493.694
 21
40.1482
  0
LINE
  8
0
 10
493.694
 20
40.1482
 11
493.7
 21
40
  0
LINE
  8
0
 10
493.7
 20
40
 11
493.694
 21
39.8518
  0
LINE
  8
0
 10
493.694
 20
39.8518
 11
493.674
 21
39.7048
  0
LINE
  8
0
 10
493.674
 20
39.7048
 11
493.642
 21
39.56
  0
LINE
  8
0
 10
493.642
 20
39.56
 11
493.597
 21
39.4186
  0
LINE
  8
0
 10
493.597
 20
39.4186
 11
493.541
 21
39.2816
  0
LINE
  8
0
 10
493.541
 20
39.2816
 11
493.472
 21
39.15
  0
LINE
  8
0
 10
493.472
 20
39.15
 11
493.393
 21
39.0249
  0
LINE
  8
0
 10
493.393
 20
39.0249
 11
493.302
 21
38.9073
  0
LINE
  8
0
 10
493.302
 20
38.9073
 11
493.202
 21
38.7979
  0
LINE
  8
0
 10
493.202
 20
38.7979
 11
493.093
 21
38.6977
  0
LINE
  8
0
 10
493.093
 20
38.6977
 11
492.975
 21
38.6075
  0
LINE
  8
0
 10
492.975
 20
38.6075
 11
492.85
 21
38.5278
  0
LINE
  8
0
 10
492.85
 20
38.5278
 11
492.718
 21
38.4593
  0
LINE
  8
0
 10
492.718
 20
38.4593
 11
492.581
 21
38.4025
  0
LINE
  8
0
 10
492.581
 20
38.4025
 11
492.44
 21
38.3579
  0
LINE
  8
0
 10
492.44
 20
38.3579
 11
492.295
 21
38.3258
  0
LINE
  8
0
 10
492.295
 20
38.3258
 11
492.148
 21
38.3065
  0
LINE
  8
0
 10
492.148
 20
38.3065
 11
492
 21
38.3
  0
LINE
  8
0
 10
492
 20
38.3
 11
491.852
 21
38.3065
  0
LINE
  8
0
 10
507.852
 20
38.3065
 11
507.705
 21
38.3258
  0
LINE
  8
0
 10
507.705
 20
38.3258
 11
507.56
 21
38.3579
  0
LINE
  8
0
 10
507.56
 20
38.3579
 11
507.419
 21
38.4025
  0
LINE
  8
0
 10
507.419
 20
38.4025
 11
507.282
 21
38.4593
  0
LINE
  8
0
 10
507.282
 20
38.4593
 11
507.15
 21
38.5278
  0
LINE
  8
0
 10
507.15
 20
38.5278
 11
507.025
 21
38.6075
  0
LINE
  8
0
 10
507.025
 20
38.6075
 11
506.907
 21
38.6977
  0
LINE
  8
0
 10
506.907
 20
38.6977
 11
506.798
 21
38.7979
  0
LINE
  8
0
 10
506.798
 20
38.7979
 11
506.698
 21
38.9073
  0
LINE
  8
0
 10
506.698
 20
38.9073
 11
506.607
 21
39.0249
  0
LINE
  8
0
 10
506.607
 20
39.0249
 11
506.528
 21
39.15
  0
LINE
  8
0
 10
506.528
 20
39.15
 11
506.459
 21
39.2816
  0
LINE
  8
0
 10
506.459
 20
39.2816
 11
506.403
 21
39.4186
  0
LINE
  8
0
 10
506.403
 20
39.4186
 11
506.358
 21
39.56
  0
LINE
  8
0
 10
506.358
 20
39.56
 11
506.326
 21
39.7048
  0
LINE
  8
0
 10
506.326
 20
39.7048
 11
506.306
 21
39.8518
  0
LINE
  8
0
 10
506.306
 20
39.8518
 11
506.3
 21
40
  0
LINE
  8
0
 10
506.3
 20
40
 11
506.306
 21
40.1482
  0
LINE
  8
0
 10
506.306
 20
40.1482
 11
506.326
 21
40.2952
  0
LINE
  8
0
 10
506.326
 20
40.2952
 11
506.358
 21
40.44
  0
LINE
  8
0
 10
506.358
 20
40.44
 11
506.403
 21
40.5814
  0
LINE
  8
0
 10
506.403
 20
40.5814
 11
506.459
 21
40.7184
  0
LINE
  8
0
 10
506.459
 20
40.7184
 11
506.528
 21
40.85
  0
LINE
  8
0
 10
506.528
 20
40.85
 11
506.607
 21
40.9751
  0
LINE
  8
0
 10
506.607
 20
40.9751
 11
506.698
 21
41.0927
  0
LINE
  8
0
 10
506.698
 20
41.0927
 11
506.798
 21
41.2021
  0
LINE
  8
0
 10
506.798
 20
41.2021
 11
506.907
 21
41.3023
  0
LINE
  8
0
 10
506.907
 20
41.3023
 11
507.025
 21
41.3925
  0
LINE
  8
0
 10
507.025
 20
41.3925
 11
507.15
 21
41.4722
  0
LINE
  8
0
 10
507.15
 20
41.4722
 11
507.282
 21
41.5407
  0
LINE
  8
0
 10
507.282
 20
41.5407
 11
507.419
 21
41.5975
  0
LINE
  8
0
 10
507.419
 20
41.5975
 11
507.56
 21
41.6421
  0
LINE
  8
0
 10
507.56
 20
41.6421
 11
507.705
 21
41.6742
  0
LINE
  8
0
 10
507.705
 20
41.6742
 11
507.852
 21
41.6935
  0
LINE
  8
0
 10
507.852
 20
41.6935
 11
508
 21
41.7
  0
LINE
  8
0
 10
508
 20
41.7
 11
508.148
 21
41.6935
  0
LINE
  8
0
 10
508.148
 20
41.6935
 11
508.295
 21
41.6742
  0
LINE
  8
0
 10
508.295
 20
41.6742
 11
508.44
 21
41.6421
  0
LINE
  8
0
 10
508.44
 20
41.6421
 11
508.581
 21
41.5975
  0
LINE
  8
0
 10
508.581
 20
41.5975
 11
508.718
 21
41.5407
  0
LINE
  8
0
 10
508.718
 20
41.5407
 11
508.85
 21
41.4722
  0
LINE
  8
0
 10
508.85
 20
41.4722
 11
508.975
 21
41.3925
  0
LINE
  8
0
 10
508.975
 20
41.3925
 11
509.093
 21
41.3023
  0
LINE
  8
0
 10
509.093
 20
41.3023
 11
509.202
 21
41.2021
  0
LINE
  8
0
 10
509.202
 20
41.2021
 11
509.302
 21
41.0927
  0
LINE
  8
0
 10
509.302
 20
41.0927
 11
509.393
 21
40.9751
  0
LINE
  8
0
 10
509.393
 20
40.9751
 11
509.472
 21
40.85
  0
LINE
  8
0
 10
509.472
 20
40.85
 11
509.541
 21
40.7184
  0
LINE
  8
0
 10
509.541
 20
40.7184
 11
509.597
 21
40.5814
  0
LINE
  8
0
 10
509.597
 20
40.5814
 11
509.642
 21
40.44
  0
LINE
  8
0
 10
509.642
 20
40.44
 11
509.674
 21
40.2952
  0
LINE
  8
0
 10
509.674
 20
40.2952
 11
509.694
 21
40.1482
  0
LINE
  8
0
 10
509.694
 20
40.1482
 11
509.7
 21
40
  0
LINE
  8
0
 10
509.7
 20
40
 11
509.694
 21
39.8518
  0
LINE
  8
0
 10
509.694
 20
39.8518
 11
509.674
 21
39.7048
  0
LINE
  8
0
 10
509.674
 20
39.7048
 11
509.642
 21
39.56
  0
LINE
  8
0
 10
509.642
 20
39.56
 11
509.597
 21
39.4186
  0
LINE
  8
0
 10
509.597
 20
39.4186
 11
509.541
 21
39.2816
  0
LINE
  8
0
 10
509.541
 20
39.2816
 11
509.472
 21
39.15
  0
LINE
  8
0
 10
509.472
 20
39.15
 11
509.393
 21
39.0249
  0
LINE
  8
0
 10
509.393
 20
39.0249
 11
509.302
 21
38.9073
  0
LINE
  8
0
 10
509.302
 20
38.9073
 11
509.202
 21
38.7979
  0
LINE
  8
0
 10
509.202
 20
38.7979
 11
509.093
 21
38.6977
  0
LINE
  8
0
 10
509.093
 20
38.6977
 11
508.975
 21
38.6075
  0
LINE
  8
0
 10
508.975
 20
38.6075
 11
508.85
 21
38.5278
  0
LINE
  8
0
 10
508.85
 20
38.5278
 11
508.718
 21
38.4593
  0
LINE
  8
0
 10
508.718
 20
38.4593
 11
508.581
 21
38.4025
  0
LINE
  8
0
 10
508.581
 20
38.4025
 11
508.44
 21
38.3579
  0
LINE
  8
0
 10
508.44
 20
38.3579
 11
508.295
 21
38.3258
  0
LINE
  8
0
 10
508.295
 20
38.3258
 11
508.148
 21
38.3065
  0
LINE
  8
0
 10
508.148
 20
38.3065
 11
508
 21
38.3
  0
LINE
  8
0
 10
508
 20
38.3
 11
507.852
 21
38.3065
  0
LINE
  8
0
 10
531.852
 20
38.3065
 11
531.705
 21
38.3258
  0
LINE
  8
0
 10
531.705
 20
38.3258
 11
531.56
 21
38.3579
  0
LINE
  8
0
 10
531.56
 20
38.3579
 11
531.419
 21
38.4025
  0
LINE
  8
0
 10
531.419
 20
38.4025
 11
531.282
 21
38.4593
  0
LINE
  8
0
 10
531.282
 20
38.4593
 11
531.15
 21
38.5278
  0
LINE
  8
0
 10
531.15
 20
38.5278
 11
531.025
 21
38.6075
  0
LINE
  8
0
 10
531.025
 20
38.6075
 11
530.907
 21
38.6977
  0
LINE
  8
0
 10
530.907
 20
38.6977
 11
530.798
 21
38.7979
  0
LINE
  8
0
 10
530.798
 20
38.7979
 11
530.698
 21
38.9073
  0
LINE
  8
0
 10
530.698
 20
38.9073
 11
530.607
 21
39.0249
  0
LINE
  8
0
 10
530.607
 20
39.0249
 11
530.528
 21
39.15
  0
LINE
  8
0
 10
530.528
 20
39.15
 11
530.459
 21
39.2816
  0
LINE
  8
0
 10
530.459
 20
39.2816
 11
530.403
 21
39.4186
  0
LINE
  8
0
 10
530.403
 20
39.4186
 11
530.358
 21
39.56
  0
LINE
  8
0
 10
530.358
 20
39.56
 11
530.326
 21
39.7048
  0
LINE
  8
0
 10
530.326
 20
39.7048
 11
530.306
 21
39.8518
  0
LINE
  8
0
 10
530.306
 20
39.8518
 11
530.3
 21
40
  0
LINE
  8
0
 10
530.3
 20
40
 11
530.306
 21
40.1482
  0
LINE
  8
0
 10
530.306
 20
40.1482
 11
530.326
 21
40.2952
  0
LINE
  8
0
 10
530.326
 20
40.2952
 11
530.358
 21
40.44
  0
LINE
  8
0
 10
530.358
 20
40.44
 11
530.403
 21
40.5814
  0
LINE
  8
0
 10
530.403
 20
40.5814
 11
530.459
 21
40.7184
  0
LINE
  8
0
 10
530.459
 20
40.7184
 11
530.528
 21
40.85
  0
LINE
  8
0
 10
530.528
 20
40.85
 11
530.607
 21
40.9751
  0
LINE
  8
0
 10
530.607
 20
40.9751
 11
530.698
 21
41.0927
  0
LINE
  8
0
 10
530.698
 20
41.0927
 11
530.798
 21
41.2021
  0
LINE
  8
0
 10
530.798
 20
41.2021
 11
530.907
 21
41.3023
  0
LINE
  8
0
 10
530.907
 20
41.3023
 11
531.025
 21
41.3925
  0
LINE
  8
0
 10
531.025
 20
41.3925
 11
531.15
 21
41.4722
  0
LINE
  8
0
 10
531.15
 20
41.4722
 11
531.282
 21
41.5407
  0
LINE
  8
0
 10
531.282
 20
41.5407
 11
531.419
 21
41.5975
  0
LINE
  8
0
 10
531.419
 20
41.5975
 11
531.56
 21
41.6421
  0
LINE
  8
0
 10
531.56
 20
41.6421
 11
531.705
 21
41.6742
  0
LINE
  8
0
 10
531.705
 20
41.6742
 11
531.852
 21
41.6935
  0
LINE
  8
0
 10
531.852
 20
41.6935
 11
532
 21
41.7
  0
LINE
  8
0
 10
532
 20
41.7
 11
532.148
 21
41.6935
  0
LINE
  8
0
 10
532.148
 20
41.6935
 11
532.295
 21
41.6742
  0
LINE
  8
0
 10
532.295
 20
41.6742
 11
532.44
 21
41.6421
  0
LINE
  8
0
 10
532.44
 20
41.6421
 11
532.581
 21
41.5975
  0
LINE
  8
0
 10
532.581
 20
41.5975
 11
532.718
 21
41.5407
  0
LINE
  8
0
 10
532.718
 20
41.5407
 11
532.85
 21
41.4722
  0
LINE
  8
0
 10
532.85
 20
41.4722
 11
532.975
 21
41.3925
  0
LINE
  8
0
 10
532.975
 20
41.3925
 11
533.093
 21
41.3023
  0
LINE
  8
0
 10
533.093
 20
41.3023
 11
533.202
 21
41.2021
  0
LINE
  8
0
 10
533.202
 20
41.2021
 11
533.302
 21
41.0927
  0
LINE
  8
0
 10
533.302
 20
41.0927
 11
533.393
 21
40.9751
  0
LINE
  8
0
 10
533.393
 20
40.9751
 11
533.472
 21
40.85
  0
LINE
  8
0
 10
533.472
 20
40.85
 11
533.541
 21
40.7184
  0
LINE
  8
0
 10
533.541
 20
40.7184
 11
533.597
 21
40.5814
  0
LINE
  8
0
 10
533.597
 20
40.5814
 11
533.642
 21
40.44
  0
LINE
  8
0
 10
533.642
 20
40.44
 11
533.674
 21
40.2952
  0
LINE
  8
0
 10
533.674
 20
40.2952
 11
533.694
 21
40.1482
  0
LINE
  8
0
 10
533.694
 20
40.1482
 11
533.7
 21
40
  0
LINE
  8
0
 10
533.7
 20
40
 11
533.694
 21
39.8518
  0
LINE
  8
0
 10
533.694
 20
39.8518
 11
533.674
 21
39.7048
  0
LINE
  8
0
 10
533.674
 20
39.7048
 11
533.642
 21
39.56
  0
LINE
  8
0
 10
533.642
 20
39.56
 11
533.597
 21
39.4186
  0
LINE
  8
0
 10
533.597
 20
39.4186
 11
533.541
 21
39.2816
  0
LINE
  8
0
 10
533.541
 20
39.2816
 11
533.472
 21
39.15
  0
LINE
  8
0
 10
533.472
 20
39.15
 11
533.393
 21
39.0249
  0
LINE
  8
0
 10
533.393
 20
39.0249
 11
533.302
 21
38.9073
  0
LINE
  8
0
 10
533.302
 20
38.9073
 11
533.202
 21
38.7979
  0
LINE
  8
0
 10
533.202
 20
38.7979
 11
533.093
 21
38.6977
  0
LINE
  8
0
 10
533.093
 20
38.6977
 11
532.975
 21
38.6075
  0
LINE
  8
0
 10
532.975
 20
38.6075
 11
532.85
 21
38.5278
  0
LINE
  8
0
 10
532.85
 20
38.5278
 11
532.718
 21
38.4593
  0
LINE
  8
0
 10
532.718
 20
38.4593
 11
532.581
 21
38.4025
  0
LINE
  8
0
 10
532.581
 20
38.4025
 11
532.44
 21
38.3579
  0
LINE
  8
0
 10
532.44
 20
38.3579
 11
532.295
 21
38.3258
  0
LINE
  8
0
 10
532.295
 20
38.3258
 11
532.148
 21
38.3065
  0
LINE
  8
0
 10
532.148
 20
38.3065
 11
532
 21
38.3
  0
LINE
  8
0
 10
532
 20
38.3
 11
531.852
 21
38.3065
  0
LINE
  8
0
 10
547.852
 20
38.3065
 11
547.705
 21
38.3258
  0
LINE
  8
0
 10
547.705
 20
38.3258
 11
547.56
 21
38.3579
  0
LINE
  8
0
 10
547.56
 20
38.3579
 11
547.419
 21
38.4025
  0
LINE
  8
0
 10
547.419
 20
38.4025
 11
547.282
 21
38.4593
  0
LINE
  8
0
 10
547.282
 20
38.4593
 11
547.15
 21
38.5278
  0
LINE
  8
0
 10
547.15
 20
38.5278
 11
547.025
 21
38.6075
  0
LINE
  8
0
 10
547.025
 20
38.6075
 11
546.907
 21
38.6977
  0
LINE
  8
0
 10
546.907
 20
38.6977
 11
546.798
 21
38.7979
  0
LINE
  8
0
 10
546.798
 20
38.7979
 11
546.698
 21
38.9073
  0
LINE
  8
0
 10
546.698
 20
38.9073
 11
546.607
 21
39.0249
  0
LINE
  8
0
 10
546.607
 20
39.0249
 11
546.528
 21
39.15
  0
LINE
  8
0
 10
546.528
 20
39.15
 11
546.459
 21
39.2816
  0
LINE
  8
0
 10
546.459
 20
39.2816
 11
546.403
 21
39.4186
  0
LINE
  8
0
 10
546.403
 20
39.4186
 11
546.358
 21
39.56
  0
LINE
  8
0
 10
546.358
 20
39.56
 11
546.326
 21
39.7048
  0
LINE
  8
0
 10
546.326
 20
39.7048
 11
546.306
 21
39.8518
  0
LINE
  8
0
 10
546.306
 20
39.8518
 11
546.3
 21
40
  0
LINE
  8
0
 10
546.3
 20
40
 11
546.306
 21
40.1482
  0
LINE
  8
0
 10
546.306
 20
40.1482
 11
546.326
 21
40.2952
  0
LINE
  8
0
 10
546.326
 20
40.2952
 11
546.358
 21
40.44
  0
LINE
  8
0
 10
546.358
 20
40.44
 11
546.403
 21
40.5814
  0
LINE
  8
0
 10
546.403
 20
40.5814
 11
546.459
 21
40.7184
  0
LINE
  8
0
 10
546.459
 20
40.7184
 11
546.528
 21
40.85
  0
LINE
  8
0
 10
546.528
 20
40.85
 11
546.607
 21
40.9751
  0
LINE
  8
0
 10
546.607
 20
40.9751
 11
546.698
 21
41.0927
  0
LINE
  8
0
 10
546.698
 20
41.0927
 11
546.798
 21
41.2021
  0
LINE
  8
0
 10
546.798
 20
41.2021
 11
546.907
 21
41.3023
  0
LINE
  8
0
 10
546.907
 20
41.3023
 11
547.025
 21
41.3925
  0
LINE
  8
0
 10
547.025
 20
41.3925
 11
547.15
 21
41.4722
  0
LINE
  8
0
 10
547.15
 20
41.4722
 11
547.282
 21
41.5407
  0
LINE
  8
0
 10
547.282
 20
41.5407
 11
547.419
 21
41.5975
  0
LINE
  8
0
 10
547.419
 20
41.5975
 11
547.56
 21
41.6421
  0
LINE
  8
0
 10
547.56
 20
41.6421
 11
547.705
 21
41.6742
  0
LINE
  8
0
 10
547.705
 20
41.6742
 11
547.852
 21
41.6935
  0
LINE
  8
0
 10
547.852
 20
41.6935
 11
548
 21
41.7
  0
LINE
  8
0
 10
548
 20
41.7
 11
548.148
 21
41.6935
  0
LINE
  8
0
 10
548.148
 20
41.6935
 11
548.295
 21
41.6742
  0
LINE
  8
0
 10
548.295
 20
41.6742
 11
548.44
 21
41.6421
  0
LINE
  8
0
 10
548.44
 20
41.6421
 11
548.581
 21
41.5975
  0
LINE
  8
0
 10
548.581
 20
41.5975
 11
548.718
 21
41.5407
  0
LINE
  8
0
 10
548.718
 20
41.5407
 11
548.85
 21
41.4722
  0
LINE
  8
0
 10
548.85
 20
41.4722
 11
548.975
 21
41.3925
  0
LINE
  8
0
 10
548.975
 20
41.3925
 11
549.093
 21
41.3023
  0
LINE
  8
0
 10
549.093
 20
41.3023
 11
549.202
 21
41.2021
  0
LINE
  8
0
 10
549.202
 20
41.2021
 11
549.302
 21
41.0927
  0
LINE
  8
0
 10
549.302
 20
41.0927
 11
549.393
 21
40.9751
  0
LINE
  8
0
 10
549.393
 20
40.9751
 11
549.472
 21
40.85
  0
LINE
  8
0
 10
549.472
 20
40.85
 11
549.541
 21
40.7184
  0
LINE
  8
0
 10
549.541
 20
40.7184
 11
549.597
 21
40.5814
  0
LINE
  8
0
 10
549.597
 20
40.5814
 11
549.642
 21
40.44
  0
LINE
  8
0
 10
549.642
 20
40.44
 11
549.674
 21
40.2952
  0
LINE
  8
0
 10
549.674
 20
40.2952
 11
549.694
 21
40.1482
  0
LINE
  8
0
 10
549.694
 20
40.1482
 11
549.7
 21
40
  0
LINE
  8
0
 10
549.7
 20
40
 11
549.694
 21
39.8518
  0
LINE
  8
0
 10
549.694
 20
39.8518
 11
549.674
 21
39.7048
  0
LINE
  8
0
 10
549.674
 20
39.7048
 11
549.642
 21
39.56
  0
LINE
  8
0
 10
549.642
 20
39.56
 11
549.597
 21
39.4186
  0
LINE
  8
0
 10
549.597
 20
39.4186
 11
549.541
 21
39.2816
  0
LINE
  8
0
 10
549.541
 20
39.2816
 11
549.472
 21
39.15
  0
LINE
  8
0
 10
549.472
 20
39.15
 11
549.393
 21
39.0249
  0
LINE
  8
0
 10
549.393
 20
39.0249
 11
549.302
 21
38.9073
  0
LINE
  8
0
 10
549.302
 20
38.9073
 11
549.202
 21
38.7979
  0
LINE
  8
0
 10
549.202
 20
38.7979
 11
549.093
 21
38.6977
  0
LINE
  8
0
 10
549.093
 20
38.6977
 11
548.975
 21
38.6075
  0
LINE
  8
0
 10
548.975
 20
38.6075
 11
548.85
 21
38.5278
  0
LINE
  8
0
 10
548.85
 20
38.5278
 11
548.718
 21
38.4593
  0
LINE
  8
0
 10
548.718
 20
38.4593
 11
548.581
 21
38.4025
  0
LINE
  8
0
 10
548.581
 20
38.4025
 11
548.44
 21
38.3579
  0
LINE
  8
0
 10
548.44
 20
38.3579
 11
548.295
 21
38.3258
  0
LINE
  8
0
 10
548.295
 20
38.3258
 11
548.148
 21
38.3065
  0
LINE
  8
0
 10
548.148
 20
38.3065
 11
548
 21
38.3
  0
LINE
  8
0
 10
548
 20
38.3
 11
547.852
 21
38.3065
  0
LINE
  8
0
 10
587.852
 20
38.3065
 11
587.705
 21
38.3258
  0
LINE
  8
0
 10
587.705
 20
38.3258
 11
587.56
 21
38.3579
  0
LINE
  8
0
 10
587.56
 20
38.3579
 11
587.419
 21
38.4025
  0
LINE
  8
0
 10
587.419
 20
38.4025
 11
587.282
 21
38.4593
  0
LINE
  8
0
 10
587.282
 20
38.4593
 11
587.15
 21
38.5278
  0
LINE
  8
0
 10
587.15
 20
38.5278
 11
587.025
 21
38.6075
  0
LINE
  8
0
 10
587.025
 20
38.6075
 11
586.907
 21
38.6977
  0
LINE
  8
0
 10
586.907
 20
38.6977
 11
586.798
 21
38.7979
  0
LINE
  8
0
 10
586.798
 20
38.7979
 11
586.698
 21
38.9073
  0
LINE
  8
0
 10
586.698
 20
38.9073
 11
586.607
 21
39.0249
  0
LINE
  8
0
 10
586.607
 20
39.0249
 11
586.528
 21
39.15
  0
LINE
  8
0
 10
586.528
 20
39.15
 11
586.459
 21
39.2816
  0
LINE
  8
0
 10
586.459
 20
39.2816
 11
586.403
 21
39.4186
  0
LINE
  8
0
 10
586.403
 20
39.4186
 11
586.358
 21
39.56
  0
LINE
  8
0
 10
586.358
 20
39.56
 11
586.326
 21
39.7048
  0
LINE
  8
0
 10
586.326
 20
39.7048
 11
586.306
 21
39.8518
  0
LINE
  8
0
 10
586.306
 20
39.8518
 11
586.3
 21
40
  0
LINE
  8
0
 10
586.3
 20
40
 11
586.306
 21
40.1482
  0
LINE
  8
0
 10
586.306
 20
40.1482
 11
586.326
 21
40.2952
  0
LINE
  8
0
 10
586.326
 20
40.2952
 11
586.358
 21
40.44
  0
LINE
  8
0
 10
586.358
 20
40.44
 11
586.403
 21
40.5814
  0
LINE
  8
0
 10
586.403
 20
40.5814
 11
586.459
 21
40.7184
  0
LINE
  8
0
 10
586.459
 20
40.7184
 11
586.528
 21
40.85
  0
LINE
  8
0
 10
586.528
 20
40.85
 11
586.607
 21
40.9751
  0
LINE
  8
0
 10
586.607
 20
40.9751
 11
586.698
 21
41.0927
  0
LINE
  8
0
 10
586.698
 20
41.0927
 11
586.798
 21
41.2021
  0
LINE
  8
0
 10
586.798
 20
41.2021
 11
586.907
 21
41.3023
  0
LINE
  8
0
 10
586.907
 20
41.3023
 11
587.025
 21
41.3925
  0
LINE
  8
0
 10
587.025
 20
41.3925
 11
587.15
 21
41.4722
  0
LINE
  8
0
 10
587.15
 20
41.4722
 11
587.282
 21
41.5407
  0
LINE
  8
0
 10
587.282
 20
41.5407
 11
587.419
 21
41.5975
  0
LINE
  8
0
 10
587.419
 20
41.5975
 11
587.56
 21
41.6421
  0
LINE
  8
0
 10
587.56
 20
41.6421
 11
587.705
 21
41.6742
  0
LINE
  8
0
 10
587.705
 20
41.6742
 11
587.852
 21
41.6935
  0
LINE
  8
0
 10
587.852
 20
41.6935
 11
588
 21
41.7
  0
LINE
  8
0
 10
588
 20
41.7
 11
588.148
 21
41.6935
  0
LINE
  8
0
 10
588.148
 20
41.6935
 11
588.295
 21
41.6742
  0
LINE
  8
0
 10
588.295
 20
41.6742
 11
588.44
 21
41.6421
  0
LINE
  8
0
 10
588.44
 20
41.6421
 11
588.581
 21
41.5975
  0
LINE
  8
0
 10
588.581
 20
41.5975
 11
588.718
 21
41.5407
  0
LINE
  8
0
 10
588.718
 20
41.5407
 11
588.85
 21
41.4722
  0
LINE
  8
0
 10
588.85
 20
41.4722
 11
588.975
 21
41.3925
  0
LINE
  8
0
 10
588.975
 20
41.3925
 11
589.093
 21
41.3023
  0
LINE
  8
0
 10
589.093
 20
41.3023
 11
589.202
 21
41.2021
  0
LINE
  8
0
 10
589.202
 20
41.2021
 11
589.302
 21
41.0927
  0
LINE
  8
0
 10
589.302
 20
41.0927
 11
589.393
 21
40.9751
  0
LINE
  8
0
 10
589.393
 20
40.9751
 11
589.472
 21
40.85
  0
LINE
  8
0
 10
589.472
 20
40.85
 11
589.541
 21
40.7184
  0
LINE
  8
0
 10
589.541
 20
40.7184
 11
589.597
 21
40.5814
  0
LINE
  8
0
 10
589.597
 20
40.5814
 11
589.642
 21
40.44
  0
LINE
  8
0
 10
589.642
 20
40.44
 11
589.674
 21
40.2952
  0
LINE
  8
0
 10
589.674
 20
40.2952
 11
589.694
 21
40.1482
  0
LINE
  8
0
 10
589.694
 20
40.1482
 11
589.7
 21
40
  0
LINE
  8
0
 10
589.7
 20
40
 11
589.694
 21
39.8518
  0
LINE
  8
0
 10
589.694
 20
39.8518
 11
589.674
 21
39.7048
  0
LINE
  8
0
 10
589.674
 20
39.7048
 11
589.642
 21
39.56
  0
LINE
  8
0
 10
589.642
 20
39.56
 11
589.597
 21
39.4186
  0
LINE
  8
0
 10
589.597
 20
39.4186
 11
589.541
 21
39.2816
  0
LINE
  8
0
 10
589.541
 20
39.2816
 11
589.472
 21
39.15
  0
LINE
  8
0
 10
589.472
 20
39.15
 11
589.393
 21
39.0249
  0
LINE
  8
0
 10
589.393
 20
39.0249
 11
589.302
 21
38.9073
  0
LINE
  8
0
 10
589.302
 20
38.9073
 11
589.202
 21
38.7979
  0
LINE
  8
0
 10
589.202
 20
38.7979
 11
589.093
 21
38.6977
  0
LINE
  8
0
 10
589.093
 20
38.6977
 11
588.975
 21
38.6075
  0
LINE
  8
0
 10
588.975
 20
38.6075
 11
588.85
 21
38.5278
  0
LINE
  8
0
 10
588.85
 20
38.5278
 11
588.718
 21
38.4593
  0
LINE
  8
0
 10
588.718
 20
38.4593
 11
588.581
 21
38.4025
  0
LINE
  8
0
 10
588.581
 20
38.4025
 11
588.44
 21
38.3579
  0
LINE
  8
0
 10
588.44
 20
38.3579
 11
588.295
 21
38.3258
  0
LINE
  8
0
 10
588.295
 20
38.3258
 11
588.148
 21
38.3065
  0
LINE
  8
0
 10
588.148
 20
38.3065
 11
588
 21
38.3
  0
LINE
  8
0
 10
588
 20
38.3
 11
587.852
 21
38.3065
  0
LINE
  8
0
 10
611.852
 20
38.3065
 11
611.705
 21
38.3258
  0
LINE
  8
0
 10
611.705
 20
38.3258
 11
611.56
 21
38.3579
  0
LINE
  8
0
 10
611.56
 20
38.3579
 11
611.419
 21
38.4025
  0
LINE
  8
0
 10
611.419
 20
38.4025
 11
611.282
 21
38.4593
  0
LINE
  8
0
 10
611.282
 20
38.4593
 11
611.15
 21
38.5278
  0
LINE
  8
0
 10
611.15
 20
38.5278
 11
611.025
 21
38.6075
  0
LINE
  8
0
 10
611.025
 20
38.6075
 11
610.907
 21
38.6977
  0
LINE
  8
0
 10
610.907
 20
38.6977
 11
610.798
 21
38.7979
  0
LINE
  8
0
 10
610.798
 20
38.7979
 11
610.698
 21
38.9073
  0
LINE
  8
0
 10
610.698
 20
38.9073
 11
610.607
 21
39.0249
  0
LINE
  8
0
 10
610.607
 20
39.0249
 11
610.528
 21
39.15
  0
LINE
  8
0
 10
610.528
 20
39.15
 11
610.459
 21
39.2816
  0
LINE
  8
0
 10
610.459
 20
39.2816
 11
610.403
 21
39.4186
  0
LINE
  8
0
 10
610.403
 20
39.4186
 11
610.358
 21
39.56
  0
LINE
  8
0
 10
610.358
 20
39.56
 11
610.326
 21
39.7048
  0
LINE
  8
0
 10
610.326
 20
39.7048
 11
610.306
 21
39.8518
  0
LINE
  8
0
 10
610.306
 20
39.8518
 11
610.3
 21
40
  0
LINE
  8
0
 10
610.3
 20
40
 11
610.306
 21
40.1482
  0
LINE
  8
0
 10
610.306
 20
40.1482
 11
610.326
 21
40.2952
  0
LINE
  8
0
 10
610.326
 20
40.2952
 11
610.358
 21
40.44
  0
LINE
  8
0
 10
610.358
 20
40.44
 11
610.403
 21
40.5814
  0
LINE
  8
0
 10
610.403
 20
40.5814
 11
610.459
 21
40.7184
  0
LINE
  8
0
 10
610.459
 20
40.7184
 11
610.528
 21
40.85
  0
LINE
  8
0
 10
610.528
 20
40.85
 11
610.607
 21
40.9751
  0
LINE
  8
0
 10
610.607
 20
40.9751
 11
610.698
 21
41.0927
  0
LINE
  8
0
 10
610.698
 20
41.0927
 11
610.798
 21
41.2021
  0
LINE
  8
0
 10
610.798
 20
41.2021
 11
610.907
 21
41.3023
  0
LINE
  8
0
 10
610.907
 20
41.3023
 11
611.025
 21
41.3925
  0
LINE
  8
0
 10
611.025
 20
41.3925
 11
611.15
 21
41.4722
  0
LINE
  8
0
 10
611.15
 20
41.4722
 11
611.282
 21
41.5407
  0
LINE
  8
0
 10
611.282
 20
41.5407
 11
611.419
 21
41.5975
  0
LINE
  8
0
 10
611.419
 20
41.5975
 11
611.56
 21
41.6421
  0
LINE
  8
0
 10
611.56
 20
41.6421
 11
611.705
 21
41.6742
  0
LINE
  8
0
 10
611.705
 20
41.6742
 11
611.852
 21
41.6935
  0
LINE
  8
0
 10
611.852
 20
41.6935
 11
612
 21
41.7
  0
LINE
  8
0
 10
612
 20
41.7
 11
612.148
 21
41.6935
  0
LINE
  8
0
 10
612.148
 20
41.6935
 11
612.295
 21
41.6742
  0
LINE
  8
0
 10
612.295
 20
41.6742
 11
612.44
 21
41.6421
  0
LINE
  8
0
 10
612.44
 20
41.6421
 11
612.581
 21
41.5975
  0
LINE
  8
0
 10
612.581
 20
41.5975
 11
612.718
 21
41.5407
  0
LINE
  8
0
 10
612.718
 20
41.5407
 11
612.85
 21
41.4722
  0
LINE
  8
0
 10
612.85
 20
41.4722
 11
612.975
 21
41.3925
  0
LINE
  8
0
 10
612.975
 20
41.3925
 11
613.093
 21
41.3023
  0
LINE
  8
0
 10
613.093
 20
41.3023
 11
613.202
 21
41.2021
  0
LINE
  8
0
 10
613.202
 20
41.2021
 11
613.302
 21
41.0927
  0
LINE
  8
0
 10
613.302
 20
41.0927
 11
613.393
 21
40.9751
  0
LINE
  8
0
 10
613.393
 20
40.9751
 11
613.472
 21
40.85
  0
LINE
  8
0
 10
613.472
 20
40.85
 11
613.541
 21
40.7184
  0
LINE
  8
0
 10
613.541
 20
40.7184
 11
613.597
 21
40.5814
  0
LINE
  8
0
 10
613.597
 20
40.5814
 11
613.642
 21
40.44
  0
LINE
  8
0
 10
613.642
 20
40.44
 11
613.674
 21
40.2952
  0
LINE
  8
0
 10
613.674
 20
40.2952
 11
613.694
 21
40.1482
  0
LINE
  8
0
 10
613.694
 20
40.1482
 11
613.7
 21
40
  0
LINE
  8
0
 10
613.7
 20
40
 11
613.694
 21
39.8518
  0
LINE
  8
0
 10
613.694
 20
39.8518
 11
613.674
 21
39.7048
  0
LINE
  8
0
 10
613.674
 20
39.7048
 11
613.642
 21
39.56
  0
LINE
  8
0
 10
613.642
 20
39.56
 11
613.597
 21
39.4186
  0
LINE
  8
0
 10
613.597
 20
39.4186
 11
613.541
 21
39.2816
  0
LINE
  8
0
 10
613.541
 20
39.2816
 11
613.472
 21
39.15
  0
LINE
  8
0
 10
613.472
 20
39.15
 11
613.393
 21
39.0249
  0
LINE
  8
0
 10
613.393
 20
39.0249
 11
613.302
 21
38.9073
  0
LINE
  8
0
 10
613.302
 20
38.9073
 11
613.202
 21
38.7979
  0
LINE
  8
0
 10
613.202
 20
38.7979
 11
613.093
 21
38.6977
  0
LINE
  8
0
 10
613.093
 20
38.6977
 11
612.975
 21
38.6075
  0
LINE
  8
0
 10
612.975
 20
38.6075
 11
612.85
 21
38.5278
  0
LINE
  8
0
 10
612.85
 20
38.5278
 11
612.718
 21
38.4593
  0
LINE
  8
0
 10
612.718
 20
38.4593
 11
612.581
 21
38.4025
  0
LINE
  8
0
 10
612.581
 20
38.4025
 11
612.44
 21
38.3579
  0
LINE
  8
0
 10
612.44
 20
38.3579
 11
612.295
 21
38.3258
  0
LINE
  8
0
 10
612.295
 20
38.3258
 11
612.148
 21
38.3065
  0
LINE
  8
0
 10
612.148
 20
38.3065
 11
612
 21
38.3
  0
LINE
  8
0
 10
612
 20
38.3
 11
611.852
 21
38.3065
  0
LINE
  8
0
 10
627.852
 20
38.3065
 11
627.705
 21
38.3258
  0
LINE
  8
0
 10
627.705
 20
38.3258
 11
627.56
 21
38.3579
  0
LINE
  8
0
 10
627.56
 20
38.3579
 11
627.419
 21
38.4025
  0
LINE
  8
0
 10
627.419
 20
38.4025
 11
627.282
 21
38.4593
  0
LINE
  8
0
 10
627.282
 20
38.4593
 11
627.15
 21
38.5278
  0
LINE
  8
0
 10
627.15
 20
38.5278
 11
627.025
 21
38.6075
  0
LINE
  8
0
 10
627.025
 20
38.6075
 11
626.907
 21
38.6977
  0
LINE
  8
0
 10
626.907
 20
38.6977
 11
626.798
 21
38.7979
  0
LINE
  8
0
 10
626.798
 20
38.7979
 11
626.698
 21
38.9073
  0
LINE
  8
0
 10
626.698
 20
38.9073
 11
626.607
 21
39.0249
  0
LINE
  8
0
 10
626.607
 20
39.0249
 11
626.528
 21
39.15
  0
LINE
  8
0
 10
626.528
 20
39.15
 11
626.459
 21
39.2816
  0
LINE
  8
0
 10
626.459
 20
39.2816
 11
626.403
 21
39.4186
  0
LINE
  8
0
 10
626.403
 20
39.4186
 11
626.358
 21
39.56
  0
LINE
  8
0
 10
626.358
 20
39.56
 11
626.326
 21
39.7048
  0
LINE
  8
0
 10
626.326
 20
39.7048
 11
626.306
 21
39.8518
  0
LINE
  8
0
 10
626.306
 20
39.8518
 11
626.3
 21
40
  0
LINE
  8
0
 10
626.3
 20
40
 11
626.306
 21
40.1482
  0
LINE
  8
0
 10
626.306
 20
40.1482
 11
626.326
 21
40.2952
  0
LINE
  8
0
 10
626.326
 20
40.2952
 11
626.358
 21
40.44
  0
LINE
  8
0
 10
626.358
 20
40.44
 11
626.403
 21
40.5814
  0
LINE
  8
0
 10
626.403
 20
40.5814
 11
626.459
 21
40.7184
  0
LINE
  8
0
 10
626.459
 20
40.7184
 11
626.528
 21
40.85
  0
LINE
  8
0
 10
626.528
 20
40.85
 11
626.607
 21
40.9751
  0
LINE
  8
0
 10
626.607
 20
40.9751
 11
626.698
 21
41.0927
  0
LINE
  8
0
 10
626.698
 20
41.0927
 11
626.798
 21
41.2021
  0
LINE
  8
0
 10
626.798
 20
41.2021
 11
626.907
 21
41.3023
  0
LINE
  8
0
 10
626.907
 20
41.3023
 11
627.025
 21
41.3925
  0
LINE
  8
0
 10
627.025
 20
41.3925
 11
627.15
 21
41.4722
  0
LINE
  8
0
 10
627.15
 20
41.4722
 11
627.282
 21
41.5407
  0
LINE
  8
0
 10
627.282
 20
41.5407
 11
627.419
 21
41.5975
  0
LINE
  8
0
 10
627.419
 20
41.5975
 11
627.56
 21
41.6421
  0
LINE
  8
0
 10
627.56
 20
41.6421
 11
627.705
 21
41.6742
  0
LINE
  8
0
 10
627.705
 20
41.6742
 11
627.852
 21
41.6935
  0
LINE
  8
0
 10
627.852
 20
41.6935
 11
628
 21
41.7
  0
LINE
  8
0
 10
628
 20
41.7
 11
628.148
 21
41.6935
  0
LINE
  8
0
 10
628.148
 20
41.6935
 11
628.295
 21
41.6742
  0
LINE
  8
0
 10
628.295
 20
41.6742
 11
628.44
 21
41.6421
  0
LINE
  8
0
 10
628.44
 20
41.6421
 11
628.581
 21
41.5975
  0
LINE
  8
0
 10
628.581
 20
41.5975
 11
628.718
 21
41.5407
  0
LINE
  8
0
 10
628.718
 20
41.5407
 11
628.85
 21
41.4722
  0
LINE
  8
0
 10
628.85
 20
41.4722
 11
628.975
 21
41.3925
  0
LINE
  8
0
 10
628.975
 20
41.3925
 11
629.093
 21
41.3023
  0
LINE
  8
0
 10
629.093
 20
41.3023
 11
629.202
 21
41.2021
  0
LINE
  8
0
 10
629.202
 20
41.2021
 11
629.302
 21
41.0927
  0
LINE
  8
0
 10
629.302
 20
41.0927
 11
629.393
 21
40.9751
  0
LINE
  8
0
 10
629.393
 20
40.9751
 11
629.472
 21
40.85
  0
LINE
  8
0
 10
629.472
 20
40.85
 11
629.541
 21
40.7184
  0
LINE
  8
0
 10
629.541
 20
40.7184
 11
629.597
 21
40.5814
  0
LINE
  8
0
 10
629.597
 20
40.5814
 11
629.642
 21
40.44
  0
LINE
  8
0
 10
629.642
 20
40.44
 11
629.674
 21
40.2952
  0
LINE
  8
0
 10
629.674
 20
40.2952
 11
629.694
 21
40.1482
  0
LINE
  8
0
 10
629.694
 20
40.1482
 11
629.7
 21
40
  0
LINE
  8
0
 10
629.7
 20
40
 11
629.694
 21
39.8518
  0
LINE
  8
0
 10
629.694
 20
39.8518
 11
629.674
 21
39.7048
  0
LINE
  8
0
 10
629.674
 20
39.7048
 11
629.642
 21
39.56
  0
LINE
  8
0
 10
629.642
 20
39.56
 11
629.597
 21
39.4186
  0
LINE
  8
0
 10
629.597
 20
39.4186
 11
629.541
 21
39.2816
  0
LINE
  8
0
 10
629.541
 20
39.2816
 11
629.472
 21
39.15
  0
LINE
  8
0
 10
629.472
 20
39.15
 11
629.393
 21
39.0249
  0
LINE
  8
0
 10
629.393
 20
39.0249
 11
629.302
 21
38.9073
  0
LINE
  8
0
 10
629.302
 20
38.9073
 11
629.202
 21
38.7979
  0
LINE
  8
0
 10
629.202
 20
38.7979
 11
629.093
 21
38.6977
  0
LINE
  8
0
 10
629.093
 20
38.6977
 11
628.975
 21
38.6075
  0
LINE
  8
0
 10
628.975
 20
38.6075
 11
628.85
 21
38.5278
  0
LINE
  8
0
 10
628.85
 20
38.5278
 11
628.718
 21
38.4593
  0
LINE
  8
0
 10
628.718
 20
38.4593
 11
628.581
 21
38.4025
  0
LINE
  8
0
 10
628.581
 20
38.4025
 11
628.44
 21
38.3579
  0
LINE
  8
0
 10
628.44
 20
38.3579
 11
628.295
 21
38.3258
  0
LINE
  8
0
 10
628.295
 20
38.3258
 11
628.148
 21
38.3065
  0
LINE
  8
0
 10
628.148
 20
38.3065
 11
628
 21
38.3
  0
LINE
  8
0
 10
628
 20
38.3
 11
627.852
 21
38.3065
  0
LINE
  8
0
 10
211.852
 20
38.3065
 11
211.705
 21
38.3258
  0
LINE
  8
0
 10
211.705
 20
38.3258
 11
211.56
 21
38.3579
  0
LINE
  8
0
 10
211.56
 20
38.3579
 11
211.419
 21
38.4025
  0
LINE
  8
0
 10
211.419
 20
38.4025
 11
211.282
 21
38.4593
  0
LINE
  8
0
 10
211.282
 20
38.4593
 11
211.15
 21
38.5278
  0
LINE
  8
0
 10
211.15
 20
38.5278
 11
211.025
 21
38.6075
  0
LINE
  8
0
 10
211.025
 20
38.6075
 11
210.907
 21
38.6977
  0
LINE
  8
0
 10
210.907
 20
38.6977
 11
210.798
 21
38.7979
  0
LINE
  8
0
 10
210.798
 20
38.7979
 11
210.698
 21
38.9073
  0
LINE
  8
0
 10
210.698
 20
38.9073
 11
210.607
 21
39.0249
  0
LINE
  8
0
 10
210.607
 20
39.0249
 11
210.528
 21
39.15
  0
LINE
  8
0
 10
210.528
 20
39.15
 11
210.459
 21
39.2816
  0
LINE
  8
0
 10
210.459
 20
39.2816
 11
210.403
 21
39.4186
  0
LINE
  8
0
 10
210.403
 20
39.4186
 11
210.358
 21
39.56
  0
LINE
  8
0
 10
210.358
 20
39.56
 11
210.326
 21
39.7048
  0
LINE
  8
0
 10
210.326
 20
39.7048
 11
210.306
 21
39.8518
  0
LINE
  8
0
 10
210.306
 20
39.8518
 11
210.3
 21
40
  0
LINE
  8
0
 10
210.3
 20
40
 11
210.306
 21
40.1482
  0
LINE
  8
0
 10
210.306
 20
40.1482
 11
210.326
 21
40.2952
  0
LINE
  8
0
 10
210.326
 20
40.2952
 11
210.358
 21
40.44
  0
LINE
  8
0
 10
210.358
 20
40.44
 11
210.403
 21
40.5814
  0
LINE
  8
0
 10
210.403
 20
40.5814
 11
210.459
 21
40.7184
  0
LINE
  8
0
 10
210.459
 20
40.7184
 11
210.528
 21
40.85
  0
LINE
  8
0
 10
210.528
 20
40.85
 11
210.607
 21
40.9751
  0
LINE
  8
0
 10
210.607
 20
40.9751
 11
210.698
 21
41.0927
  0
LINE
  8
0
 10
210.698
 20
41.0927
 11
210.798
 21
41.2021
  0
LINE
  8
0
 10
210.798
 20
41.2021
 11
210.907
 21
41.3023
  0
LINE
  8
0
 10
210.907
 20
41.3023
 11
211.025
 21
41.3925
  0
LINE
  8
0
 10
211.025
 20
41.3925
 11
211.15
 21
41.4722
  0
LINE
  8
0
 10
211.15
 20
41.4722
 11
211.282
 21
41.5407
  0
LINE
  8
0
 10
211.282
 20
41.5407
 11
211.419
 21
41.5975
  0
LINE
  8
0
 10
211.419
 20
41.5975
 11
211.56
 21
41.6421
  0
LINE
  8
0
 10
211.56
 20
41.6421
 11
211.705
 21
41.6742
  0
LINE
  8
0
 10
211.705
 20
41.6742
 11
211.852
 21
41.6935
  0
LINE
  8
0
 10
211.852
 20
41.6935
 11
212
 21
41.7
  0
LINE
  8
0
 10
212
 20
41.7
 11
212.148
 21
41.6935
  0
LINE
  8
0
 10
212.148
 20
41.6935
 11
212.295
 21
41.6742
  0
LINE
  8
0
 10
212.295
 20
41.6742
 11
212.44
 21
41.6421
  0
LINE
  8
0
 10
212.44
 20
41.6421
 11
212.581
 21
41.5975
  0
LINE
  8
0
 10
212.581
 20
41.5975
 11
212.718
 21
41.5407
  0
LINE
  8
0
 10
212.718
 20
41.5407
 11
212.85
 21
41.4722
  0
LINE
  8
0
 10
212.85
 20
41.4722
 11
212.975
 21
41.3925
  0
LINE
  8
0
 10
212.975
 20
41.3925
 11
213.093
 21
41.3023
  0
LINE
  8
0
 10
213.093
 20
41.3023
 11
213.202
 21
41.2021
  0
LINE
  8
0
 10
213.202
 20
41.2021
 11
213.302
 21
41.0927
  0
LINE
  8
0
 10
213.302
 20
41.0927
 11
213.393
 21
40.9751
  0
LINE
  8
0
 10
213.393
 20
40.9751
 11
213.472
 21
40.85
  0
LINE
  8
0
 10
213.472
 20
40.85
 11
213.541
 21
40.7184
  0
LINE
  8
0
 10
213.541
 20
40.7184
 11
213.597
 21
40.5814
  0
LINE
  8
0
 10
213.597
 20
40.5814
 11
213.642
 21
40.44
  0
LINE
  8
0
 10
213.642
 20
40.44
 11
213.674
 21
40.2952
  0
LINE
  8
0
 10
213.674
 20
40.2952
 11
213.694
 21
40.1482
  0
LINE
  8
0
 10
213.694
 20
40.1482
 11
213.7
 21
40
  0
LINE
  8
0
 10
213.7
 20
40
 11
213.694
 21
39.8518
  0
LINE
  8
0
 10
213.694
 20
39.8518
 11
213.674
 21
39.7048
  0
LINE
  8
0
 10
213.674
 20
39.7048
 11
213.642
 21
39.56
  0
LINE
  8
0
 10
213.642
 20
39.56
 11
213.597
 21
39.4186
  0
LINE
  8
0
 10
213.597
 20
39.4186
 11
213.541
 21
39.2816
  0
LINE
  8
0
 10
213.541
 20
39.2816
 11
213.472
 21
39.15
  0
LINE
  8
0
 10
213.472
 20
39.15
 11
213.393
 21
39.0249
  0
LINE
  8
0
 10
213.393
 20
39.0249
 11
213.302
 21
38.9073
  0
LINE
  8
0
 10
213.302
 20
38.9073
 11
213.202
 21
38.7979
  0
LINE
  8
0
 10
213.202
 20
38.7979
 11
213.093
 21
38.6977
  0
LINE
  8
0
 10
213.093
 20
38.6977
 11
212.975
 21
38.6075
  0
LINE
  8
0
 10
212.975
 20
38.6075
 11
212.85
 21
38.5278
  0
LINE
  8
0
 10
212.85
 20
38.5278
 11
212.718
 21
38.4593
  0
LINE
  8
0
 10
212.718
 20
38.4593
 11
212.581
 21
38.4025
  0
LINE
  8
0
 10
212.581
 20
38.4025
 11
212.44
 21
38.3579
  0
LINE
  8
0
 10
212.44
 20
38.3579
 11
212.295
 21
38.3258
  0
LINE
  8
0
 10
212.295
 20
38.3258
 11
212.148
 21
38.3065
  0
LINE
  8
0
 10
212.148
 20
38.3065
 11
212
 21
38.3
  0
LINE
  8
0
 10
212
 20
38.3
 11
211.852
 21
38.3065
  0
LINE
  8
0
 10
27.8518
 20
38.3065
 11
27.7048
 21
38.3258
  0
LINE
  8
0
 10
27.7048
 20
38.3258
 11
27.56
 21
38.3579
  0
LINE
  8
0
 10
27.56
 20
38.3579
 11
27.4186
 21
38.4025
  0
LINE
  8
0
 10
27.4186
 20
38.4025
 11
27.2816
 21
38.4593
  0
LINE
  8
0
 10
27.2816
 20
38.4593
 11
27.15
 21
38.5278
  0
LINE
  8
0
 10
27.15
 20
38.5278
 11
27.0249
 21
38.6075
  0
LINE
  8
0
 10
27.0249
 20
38.6075
 11
26.9073
 21
38.6977
  0
LINE
  8
0
 10
26.9073
 20
38.6977
 11
26.7979
 21
38.7979
  0
LINE
  8
0
 10
26.7979
 20
38.7979
 11
26.6977
 21
38.9073
  0
LINE
  8
0
 10
26.6977
 20
38.9073
 11
26.6075
 21
39.0249
  0
LINE
  8
0
 10
26.6075
 20
39.0249
 11
26.5278
 21
39.15
  0
LINE
  8
0
 10
26.5278
 20
39.15
 11
26.4593
 21
39.2816
  0
LINE
  8
0
 10
26.4593
 20
39.2816
 11
26.4025
 21
39.4186
  0
LINE
  8
0
 10
26.4025
 20
39.4186
 11
26.3579
 21
39.56
  0
LINE
  8
0
 10
26.3579
 20
39.56
 11
26.3258
 21
39.7048
  0
LINE
  8
0
 10
26.3258
 20
39.7048
 11
26.3065
 21
39.8518
  0
LINE
  8
0
 10
26.3065
 20
39.8518
 11
26.3
 21
40
  0
LINE
  8
0
 10
26.3
 20
40
 11
26.3065
 21
40.1482
  0
LINE
  8
0
 10
26.3065
 20
40.1482
 11
26.3258
 21
40.2952
  0
LINE
  8
0
 10
26.3258
 20
40.2952
 11
26.3579
 21
40.44
  0
LINE
  8
0
 10
26.3579
 20
40.44
 11
26.4025
 21
40.5814
  0
LINE
  8
0
 10
26.4025
 20
40.5814
 11
26.4593
 21
40.7184
  0
LINE
  8
0
 10
26.4593
 20
40.7184
 11
26.5278
 21
40.85
  0
LINE
  8
0
 10
26.5278
 20
40.85
 11
26.6075
 21
40.9751
  0
LINE
  8
0
 10
26.6075
 20
40.9751
 11
26.6977
 21
41.0927
  0
LINE
  8
0
 10
26.6977
 20
41.0927
 11
26.7979
 21
41.2021
  0
LINE
  8
0
 10
26.7979
 20
41.2021
 11
26.9073
 21
41.3023
  0
LINE
  8
0
 10
26.9073
 20
41.3023
 11
27.0249
 21
41.3925
  0
LINE
  8
0
 10
27.0249
 20
41.3925
 11
27.15
 21
41.4722
  0
LINE
  8
0
 10
27.15
 20
41.4722
 11
27.2816
 21
41.5407
  0
LINE
  8
0
 10
27.2816
 20
41.5407
 11
27.4186
 21
41.5975
  0
LINE
  8
0
 10
27.4186
 20
41.5975
 11
27.56
 21
41.6421
  0
LINE
  8
0
 10
27.56
 20
41.6421
 11
27.7048
 21
41.6742
  0
LINE
  8
0
 10
27.7048
 20
41.6742
 11
27.8518
 21
41.6935
  0
LINE
  8
0
 10
27.8518
 20
41.6935
 11
28
 21
41.7
  0
LINE
  8
0
 10
28
 20
41.7
 11
28.1482
 21
41.6935
  0
LINE
  8
0
 10
28.1482
 20
41.6935
 11
28.2952
 21
41.6742
  0
LINE
  8
0
 10
28.2952
 20
41.6742
 11
28.44
 21
41.6421
  0
LINE
  8
0
 10
28.44
 20
41.6421
 11
28.5814
 21
41.5975
  0
LINE
  8
0
 10
28.5814
 20
41.5975
 11
28.7185
 21
41.5407
  0
LINE
  8
0
 10
28.7185
 20
41.5407
 11
28.85
 21
41.4722
  0
LINE
  8
0
 10
28.85
 20
41.4722
 11
28.9751
 21
41.3925
  0
LINE
  8
0
 10
28.9751
 20
41.3925
 11
29.0927
 21
41.3023
  0
LINE
  8
0
 10
29.0927
 20
41.3023
 11
29.2021
 21
41.2021
  0
LINE
  8
0
 10
29.2021
 20
41.2021
 11
29.3023
 21
41.0927
  0
LINE
  8
0
 10
29.3023
 20
41.0927
 11
29.3926
 21
40.9751
  0
LINE
  8
0
 10
29.3926
 20
40.9751
 11
29.4722
 21
40.85
  0
LINE
  8
0
 10
29.4722
 20
40.85
 11
29.5407
 21
40.7184
  0
LINE
  8
0
 10
29.5407
 20
40.7184
 11
29.5975
 21
40.5814
  0
LINE
  8
0
 10
29.5975
 20
40.5814
 11
29.6421
 21
40.44
  0
LINE
  8
0
 10
29.6421
 20
40.44
 11
29.6742
 21
40.2952
  0
LINE
  8
0
 10
29.6742
 20
40.2952
 11
29.6935
 21
40.1482
  0
LINE
  8
0
 10
29.6935
 20
40.1482
 11
29.7
 21
40
  0
LINE
  8
0
 10
29.7
 20
40
 11
29.6935
 21
39.8518
  0
LINE
  8
0
 10
29.6935
 20
39.8518
 11
29.6742
 21
39.7048
  0
LINE
  8
0
 10
29.6742
 20
39.7048
 11
29.6421
 21
39.56
  0
LINE
  8
0
 10
29.6421
 20
39.56
 11
29.5975
 21
39.4186
  0
LINE
  8
0
 10
29.5975
 20
39.4186
 11
29.5407
 21
39.2816
  0
LINE
  8
0
 10
29.5407
 20
39.2816
 11
29.4722
 21
39.15
  0
LINE
  8
0
 10
29.4722
 20
39.15
 11
29.3926
 21
39.0249
  0
LINE
  8
0
 10
29.3926
 20
39.0249
 11
29.3023
 21
38.9073
  0
LINE
  8
0
 10
29.3023
 20
38.9073
 11
29.2021
 21
38.7979
  0
LINE
  8
0
 10
29.2021
 20
38.7979
 11
29.0927
 21
38.6977
  0
LINE
  8
0
 10
29.0927
 20
38.6977
 11
28.9751
 21
38.6075
  0
LINE
  8
0
 10
28.9751
 20
38.6075
 11
28.85
 21
38.5278
  0
LINE
  8
0
 10
28.85
 20
38.5278
 11
28.7185
 21
38.4593
  0
LINE
  8
0
 10
28.7185
 20
38.4593
 11
28.5814
 21
38.4025
  0
LINE
  8
0
 10
28.5814
 20
38.4025
 11
28.44
 21
38.3579
  0
LINE
  8
0
 10
28.44
 20
38.3579
 11
28.2952
 21
38.3258
  0
LINE
  8
0
 10
28.2952
 20
38.3258
 11
28.1482
 21
38.3065
  0
LINE
  8
0
 10
28.1482
 20
38.3065
 11
28
 21
38.3
  0
LINE
  8
0
 10
28
 20
38.3
 11
27.8518
 21
38.3065
  0
LINE
  8
0
 10
51.8518
 20
38.3065
 11
51.7048
 21
38.3258
  0
LINE
  8
0
 10
51.7048
 20
38.3258
 11
51.56
 21
38.3579
  0
LINE
  8
0
 10
51.56
 20
38.3579
 11
51.4186
 21
38.4025
  0
LINE
  8
0
 10
51.4186
 20
38.4025
 11
51.2815
 21
38.4593
  0
LINE
  8
0
 10
51.2815
 20
38.4593
 11
51.15
 21
38.5278
  0
LINE
  8
0
 10
51.15
 20
38.5278
 11
51.0249
 21
38.6075
  0
LINE
  8
0
 10
51.0249
 20
38.6075
 11
50.9073
 21
38.6977
  0
LINE
  8
0
 10
50.9073
 20
38.6977
 11
50.7979
 21
38.7979
  0
LINE
  8
0
 10
50.7979
 20
38.7979
 11
50.6977
 21
38.9073
  0
LINE
  8
0
 10
50.6977
 20
38.9073
 11
50.6074
 21
39.0249
  0
LINE
  8
0
 10
50.6074
 20
39.0249
 11
50.5278
 21
39.15
  0
LINE
  8
0
 10
50.5278
 20
39.15
 11
50.4593
 21
39.2816
  0
LINE
  8
0
 10
50.4593
 20
39.2816
 11
50.4025
 21
39.4186
  0
LINE
  8
0
 10
50.4025
 20
39.4186
 11
50.3579
 21
39.56
  0
LINE
  8
0
 10
50.3579
 20
39.56
 11
50.3258
 21
39.7048
  0
LINE
  8
0
 10
50.3258
 20
39.7048
 11
50.3065
 21
39.8518
  0
LINE
  8
0
 10
50.3065
 20
39.8518
 11
50.3
 21
40
  0
LINE
  8
0
 10
50.3
 20
40
 11
50.3065
 21
40.1482
  0
LINE
  8
0
 10
50.3065
 20
40.1482
 11
50.3258
 21
40.2952
  0
LINE
  8
0
 10
50.3258
 20
40.2952
 11
50.3579
 21
40.44
  0
LINE
  8
0
 10
50.3579
 20
40.44
 11
50.4025
 21
40.5814
  0
LINE
  8
0
 10
50.4025
 20
40.5814
 11
50.4593
 21
40.7184
  0
LINE
  8
0
 10
50.4593
 20
40.7184
 11
50.5278
 21
40.85
  0
LINE
  8
0
 10
50.5278
 20
40.85
 11
50.6074
 21
40.9751
  0
LINE
  8
0
 10
50.6074
 20
40.9751
 11
50.6977
 21
41.0927
  0
LINE
  8
0
 10
50.6977
 20
41.0927
 11
50.7979
 21
41.2021
  0
LINE
  8
0
 10
50.7979
 20
41.2021
 11
50.9073
 21
41.3023
  0
LINE
  8
0
 10
50.9073
 20
41.3023
 11
51.0249
 21
41.3925
  0
LINE
  8
0
 10
51.0249
 20
41.3925
 11
51.15
 21
41.4722
  0
LINE
  8
0
 10
51.15
 20
41.4722
 11
51.2815
 21
41.5407
  0
LINE
  8
0
 10
51.2815
 20
41.5407
 11
51.4186
 21
41.5975
  0
LINE
  8
0
 10
51.4186
 20
41.5975
 11
51.56
 21
41.6421
  0
LINE
  8
0
 10
51.56
 20
41.6421
 11
51.7048
 21
41.6742
  0
LINE
  8
0
 10
51.7048
 20
41.6742
 11
51.8518
 21
41.6935
  0
LINE
  8
0
 10
51.8518
 20
41.6935
 11
52
 21
41.7
  0
LINE
  8
0
 10
52
 20
41.7
 11
52.1482
 21
41.6935
  0
LINE
  8
0
 10
52.1482
 20
41.6935
 11
52.2952
 21
41.6742
  0
LINE
  8
0
 10
52.2952
 20
41.6742
 11
52.44
 21
41.6421
  0
LINE
  8
0
 10
52.44
 20
41.6421
 11
52.5814
 21
41.5975
  0
LINE
  8
0
 10
52.5814
 20
41.5975
 11
52.7184
 21
41.5407
  0
LINE
  8
0
 10
52.7184
 20
41.5407
 11
52.85
 21
41.4722
  0
LINE
  8
0
 10
52.85
 20
41.4722
 11
52.9751
 21
41.3925
  0
LINE
  8
0
 10
52.9751
 20
41.3925
 11
53.0927
 21
41.3023
  0
LINE
  8
0
 10
53.0927
 20
41.3023
 11
53.2021
 21
41.2021
  0
LINE
  8
0
 10
53.2021
 20
41.2021
 11
53.3023
 21
41.0927
  0
LINE
  8
0
 10
53.3023
 20
41.0927
 11
53.3925
 21
40.9751
  0
LINE
  8
0
 10
53.3925
 20
40.9751
 11
53.4722
 21
40.85
  0
LINE
  8
0
 10
53.4722
 20
40.85
 11
53.5407
 21
40.7184
  0
LINE
  8
0
 10
53.5407
 20
40.7184
 11
53.5975
 21
40.5814
  0
LINE
  8
0
 10
53.5975
 20
40.5814
 11
53.6421
 21
40.44
  0
LINE
  8
0
 10
53.6421
 20
40.44
 11
53.6742
 21
40.2952
  0
LINE
  8
0
 10
53.6742
 20
40.2952
 11
53.6935
 21
40.1482
  0
LINE
  8
0
 10
53.6935
 20
40.1482
 11
53.7
 21
40
  0
LINE
  8
0
 10
53.7
 20
40
 11
53.6935
 21
39.8518
  0
LINE
  8
0
 10
53.6935
 20
39.8518
 11
53.6742
 21
39.7048
  0
LINE
  8
0
 10
53.6742
 20
39.7048
 11
53.6421
 21
39.56
  0
LINE
  8
0
 10
53.6421
 20
39.56
 11
53.5975
 21
39.4186
  0
LINE
  8
0
 10
53.5975
 20
39.4186
 11
53.5407
 21
39.2816
  0
LINE
  8
0
 10
53.5407
 20
39.2816
 11
53.4722
 21
39.15
  0
LINE
  8
0
 10
53.4722
 20
39.15
 11
53.3925
 21
39.0249
  0
LINE
  8
0
 10
53.3925
 20
39.0249
 11
53.3023
 21
38.9073
  0
LINE
  8
0
 10
53.3023
 20
38.9073
 11
53.2021
 21
38.7979
  0
LINE
  8
0
 10
53.2021
 20
38.7979
 11
53.0927
 21
38.6977
  0
LINE
  8
0
 10
53.0927
 20
38.6977
 11
52.9751
 21
38.6075
  0
LINE
  8
0
 10
52.9751
 20
38.6075
 11
52.85
 21
38.5278
  0
LINE
  8
0
 10
52.85
 20
38.5278
 11
52.7184
 21
38.4593
  0
LINE
  8
0
 10
52.7184
 20
38.4593
 11
52.5814
 21
38.4025
  0
LINE
  8
0
 10
52.5814
 20
38.4025
 11
52.44
 21
38.3579
  0
LINE
  8
0
 10
52.44
 20
38.3579
 11
52.2952
 21
38.3258
  0
LINE
  8
0
 10
52.2952
 20
38.3258
 11
52.1482
 21
38.3065
  0
LINE
  8
0
 10
52.1482
 20
38.3065
 11
52
 21
38.3
  0
LINE
  8
0
 10
52
 20
38.3
 11
51.8518
 21
38.3065
  0
LINE
  8
0
 10
91.8518
 20
38.3065
 11
91.7048
 21
38.3258
  0
LINE
  8
0
 10
91.7048
 20
38.3258
 11
91.56
 21
38.3579
  0
LINE
  8
0
 10
91.56
 20
38.3579
 11
91.4186
 21
38.4025
  0
LINE
  8
0
 10
91.4186
 20
38.4025
 11
91.2815
 21
38.4593
  0
LINE
  8
0
 10
91.2815
 20
38.4593
 11
91.15
 21
38.5278
  0
LINE
  8
0
 10
91.15
 20
38.5278
 11
91.0249
 21
38.6075
  0
LINE
  8
0
 10
91.0249
 20
38.6075
 11
90.9073
 21
38.6977
  0
LINE
  8
0
 10
90.9073
 20
38.6977
 11
90.7979
 21
38.7979
  0
LINE
  8
0
 10
90.7979
 20
38.7979
 11
90.6977
 21
38.9073
  0
LINE
  8
0
 10
90.6977
 20
38.9073
 11
90.6074
 21
39.0249
  0
LINE
  8
0
 10
90.6074
 20
39.0249
 11
90.5278
 21
39.15
  0
LINE
  8
0
 10
90.5278
 20
39.15
 11
90.4593
 21
39.2816
  0
LINE
  8
0
 10
90.4593
 20
39.2816
 11
90.4025
 21
39.4186
  0
LINE
  8
0
 10
90.4025
 20
39.4186
 11
90.3579
 21
39.56
  0
LINE
  8
0
 10
90.3579
 20
39.56
 11
90.3258
 21
39.7048
  0
LINE
  8
0
 10
90.3258
 20
39.7048
 11
90.3065
 21
39.8518
  0
LINE
  8
0
 10
90.3065
 20
39.8518
 11
90.3
 21
40
  0
LINE
  8
0
 10
90.3
 20
40
 11
90.3065
 21
40.1482
  0
LINE
  8
0
 10
90.3065
 20
40.1482
 11
90.3258
 21
40.2952
  0
LINE
  8
0
 10
90.3258
 20
40.2952
 11
90.3579
 21
40.44
  0
LINE
  8
0
 10
90.3579
 20
40.44
 11
90.4025
 21
40.5814
  0
LINE
  8
0
 10
90.4025
 20
40.5814
 11
90.4593
 21
40.7184
  0
LINE
  8
0
 10
90.4593
 20
40.7184
 11
90.5278
 21
40.85
  0
LINE
  8
0
 10
90.5278
 20
40.85
 11
90.6074
 21
40.9751
  0
LINE
  8
0
 10
90.6074
 20
40.9751
 11
90.6977
 21
41.0927
  0
LINE
  8
0
 10
90.6977
 20
41.0927
 11
90.7979
 21
41.2021
  0
LINE
  8
0
 10
90.7979
 20
41.2021
 11
90.9073
 21
41.3023
  0
LINE
  8
0
 10
90.9073
 20
41.3023
 11
91.0249
 21
41.3925
  0
LINE
  8
0
 10
91.0249
 20
41.3925
 11
91.15
 21
41.4722
  0
LINE
  8
0
 10
91.15
 20
41.4722
 11
91.2815
 21
41.5407
  0
LINE
  8
0
 10
91.2815
 20
41.5407
 11
91.4186
 21
41.5975
  0
LINE
  8
0
 10
91.4186
 20
41.5975
 11
91.56
 21
41.6421
  0
LINE
  8
0
 10
91.56
 20
41.6421
 11
91.7048
 21
41.6742
  0
LINE
  8
0
 10
91.7048
 20
41.6742
 11
91.8518
 21
41.6935
  0
LINE
  8
0
 10
91.8518
 20
41.6935
 11
92
 21
41.7
  0
LINE
  8
0
 10
92
 20
41.7
 11
92.1482
 21
41.6935
  0
LINE
  8
0
 10
92.1482
 20
41.6935
 11
92.2952
 21
41.6742
  0
LINE
  8
0
 10
92.2952
 20
41.6742
 11
92.44
 21
41.6421
  0
LINE
  8
0
 10
92.44
 20
41.6421
 11
92.5814
 21
41.5975
  0
LINE
  8
0
 10
92.5814
 20
41.5975
 11
92.7184
 21
41.5407
  0
LINE
  8
0
 10
92.7184
 20
41.5407
 11
92.85
 21
41.4722
  0
LINE
  8
0
 10
92.85
 20
41.4722
 11
92.9751
 21
41.3925
  0
LINE
  8
0
 10
92.9751
 20
41.3925
 11
93.0927
 21
41.3023
  0
LINE
  8
0
 10
93.0927
 20
41.3023
 11
93.2021
 21
41.2021
  0
LINE
  8
0
 10
93.2021
 20
41.2021
 11
93.3023
 21
41.0927
  0
LINE
  8
0
 10
93.3023
 20
41.0927
 11
93.3925
 21
40.9751
  0
LINE
  8
0
 10
93.3925
 20
40.9751
 11
93.4722
 21
40.85
  0
LINE
  8
0
 10
93.4722
 20
40.85
 11
93.5407
 21
40.7184
  0
LINE
  8
0
 10
93.5407
 20
40.7184
 11
93.5975
 21
40.5814
  0
LINE
  8
0
 10
93.5975
 20
40.5814
 11
93.6421
 21
40.44
  0
LINE
  8
0
 10
93.6421
 20
40.44
 11
93.6742
 21
40.2952
  0
LINE
  8
0
 10
93.6742
 20
40.2952
 11
93.6935
 21
40.1482
  0
LINE
  8
0
 10
93.6935
 20
40.1482
 11
93.7
 21
40
  0
LINE
  8
0
 10
93.7
 20
40
 11
93.6935
 21
39.8518
  0
LINE
  8
0
 10
93.6935
 20
39.8518
 11
93.6742
 21
39.7048
  0
LINE
  8
0
 10
93.6742
 20
39.7048
 11
93.6421
 21
39.56
  0
LINE
  8
0
 10
93.6421
 20
39.56
 11
93.5975
 21
39.4186
  0
LINE
  8
0
 10
93.5975
 20
39.4186
 11
93.5407
 21
39.2816
  0
LINE
  8
0
 10
93.5407
 20
39.2816
 11
93.4722
 21
39.15
  0
LINE
  8
0
 10
93.4722
 20
39.15
 11
93.3925
 21
39.0249
  0
LINE
  8
0
 10
93.3925
 20
39.0249
 11
93.3023
 21
38.9073
  0
LINE
  8
0
 10
93.3023
 20
38.9073
 11
93.2021
 21
38.7979
  0
LINE
  8
0
 10
93.2021
 20
38.7979
 11
93.0927
 21
38.6977
  0
LINE
  8
0
 10
93.0927
 20
38.6977
 11
92.9751
 21
38.6075
  0
LINE
  8
0
 10
92.9751
 20
38.6075
 11
92.85
 21
38.5278
  0
LINE
  8
0
 10
92.85
 20
38.5278
 11
92.7184
 21
38.4593
  0
LINE
  8
0
 10
92.7184
 20
38.4593
 11
92.5814
 21
38.4025
  0
LINE
  8
0
 10
92.5814
 20
38.4025
 11
92.44
 21
38.3579
  0
LINE
  8
0
 10
92.44
 20
38.3579
 11
92.2952
 21
38.3258
  0
LINE
  8
0
 10
92.2952
 20
38.3258
 11
92.1482
 21
38.3065
  0
LINE
  8
0
 10
92.1482
 20
38.3065
 11
92
 21
38.3
  0
LINE
  8
0
 10
92
 20
38.3
 11
91.8518
 21
38.3065
  0
LINE
  8
0
 10
7.76031
 20
5.26045
 11
7.52246
 21
5.29178
  0
LINE
  8
0
 10
7.52246
 20
5.29178
 11
7.28824
 21
5.34369
  0
LINE
  8
0
 10
7.28824
 20
5.34369
 11
7.05943
 21
5.41583
  0
LINE
  8
0
 10
7.05943
 20
5.41583
 11
6.8378
 21
5.50764
  0
LINE
  8
0
 10
6.8378
 20
5.50764
 11
6.625
 21
5.61842
  0
LINE
  8
0
 10
6.625
 20
5.61842
 11
6.42265
 21
5.74733
  0
LINE
  8
0
 10
6.42265
 20
5.74733
 11
6.23233
 21
5.89337
  0
LINE
  8
0
 10
6.23233
 20
5.89337
 11
6.05545
 21
6.05545
  0
LINE
  8
0
 10
6.05545
 20
6.05545
 11
5.89337
 21
6.23233
  0
LINE
  8
0
 10
5.89337
 20
6.23233
 11
5.74733
 21
6.42265
  0
LINE
  8
0
 10
5.74733
 20
6.42265
 11
5.61842
 21
6.625
  0
LINE
  8
0
 10
5.61842
 20
6.625
 11
5.50764
 21
6.8378
  0
LINE
  8
0
 10
5.50764
 20
6.8378
 11
5.41583
 21
7.05943
  0
LINE
  8
0
 10
5.41583
 20
7.05943
 11
5.34369
 21
7.28824
  0
LINE
  8
0
 10
5.34369
 20
7.28824
 11
5.29178
 21
7.52246
  0
LINE
  8
0
 10
5.29178
 20
7.52246
 11
5.26045
 21
7.76031
  0
LINE
  8
0
 10
5.26045
 20
7.76031
 11
5.25
 21
8
  0
LINE
  8
0
 10
5.25
 20
8
 11
5.26045
 21
8.23967
  0
LINE
  8
0
 10
5.26045
 20
8.23967
 11
5.29178
 21
8.47752
  0
LINE
  8
0
 10
5.29178
 20
8.47752
 11
5.34369
 21
8.71175
  0
LINE
  8
0
 10
5.34369
 20
8.71175
 11
5.41583
 21
8.94055
  0
LINE
  8
0
 10
5.41583
 20
8.94055
 11
5.50764
 21
9.16219
  0
LINE
  8
0
 10
5.50764
 20
9.16219
 11
5.61842
 21
9.375
  0
LINE
  8
0
 10
5.61842
 20
9.375
 11
5.74733
 21
9.57733
  0
LINE
  8
0
 10
5.74733
 20
9.57733
 11
5.89337
 21
9.76765
  0
LINE
  8
0
 10
5.89337
 20
9.76765
 11
6.05545
 21
9.94453
  0
LINE
  8
0
 10
6.05545
 20
9.94453
 11
6.23233
 21
10.1066
  0
LINE
  8
0
 10
6.23233
 20
10.1066
 11
6.42265
 21
10.2527
  0
LINE
  8
0
 10
6.42265
 20
10.2527
 11
6.625
 21
10.3816
  0
LINE
  8
0
 10
6.625
 20
10.3816
 11
6.8378
 21
10.4923
  0
LINE
  8
0
 10
6.8378
 20
10.4923
 11
7.05943
 21
10.5842
  0
LINE
  8
0
 10
7.05943
 20
10.5842
 11
7.28824
 21
10.6563
  0
LINE
  8
0
 10
7.28824
 20
10.6563
 11
7.52246
 21
10.7082
  0
LINE
  8
0
 10
7.52246
 20
10.7082
 11
7.76031
 21
10.7395
  0
LINE
  8
0
 10
7.76031
 20
10.7395
 11
8
 21
10.75
  0
LINE
  8
0
 10
8
 20
10.75
 11
8.23967
 21
10.7395
  0
LINE
  8
0
 10
8.23967
 20
10.7395
 11
8.47752
 21
10.7082
  0
LINE
  8
0
 10
8.47752
 20
10.7082
 11
8.71175
 21
10.6563
  0
LINE
  8
0
 10
8.71175
 20
10.6563
 11
8.94055
 21
10.5842
  0
LINE
  8
0
 10
8.94055
 20
10.5842
 11
9.16219
 21
10.4923
  0
LINE
  8
0
 10
9.16219
 20
10.4923
 11
9.375
 21
10.3816
  0
LINE
  8
0
 10
9.375
 20
10.3816
 11
9.57733
 21
10.2527
  0
LINE
  8
0
 10
9.57733
 20
10.2527
 11
9.76765
 21
10.1066
  0
LINE
  8
0
 10
9.76765
 20
10.1066
 11
9.94453
 21
9.94453
  0
LINE
  8
0
 10
9.94453
 20
9.94453
 11
10.1066
 21
9.76765
  0
LINE
  8
0
 10
10.1066
 20
9.76765
 11
10.2527
 21
9.57733
  0
LINE
  8
0
 10
10.2527
 20
9.57733
 11
10.3816
 21
9.375
  0
LINE
  8
0
 10
10.3816
 20
9.375
 11
10.4923
 21
9.16219
  0
LINE
  8
0
 10
10.4923
 20
9.16219
 11
10.5842
 21
8.94055
  0
LINE
  8
0
 10
10.5842
 20
8.94055
 11
10.6563
 21
8.71175
  0
LINE
  8
0
 10
10.6563
 20
8.71175
 11
10.7082
 21
8.47752
  0
LINE
  8
0
 10
10.7082
 20
8.47752
 11
10.7395
 21
8.23967
  0
LINE
  8
0
 10
10.7395
 20
8.23967
 11
10.75
 21
8
  0
LINE
  8
0
 10
10.75
 20
8
 11
10.7395
 21
7.76031
  0
LINE
  8
0
 10
10.7395
 20
7.76031
 11
10.7082
 21
7.52246
  0
LINE
  8
0
 10
10.7082
 20
7.52246
 11
10.6563
 21
7.28824
  0
LINE
  8
0
 10
10.6563
 20
7.28824
 11
10.5842
 21
7.05943
  0
LINE
  8
0
 10
10.5842
 20
7.05943
 11
10.4923
 21
6.8378
  0
LINE
  8
0
 10
10.4923
 20
6.8378
 11
10.3816
 21
6.625
  0
LINE
  8
0
 10
10.3816
 20
6.625
 11
10.2527
 21
6.42265
  0
LINE
  8
0
 10
10.2527
 20
6.42265
 11
10.1066
 21
6.23233
  0
LINE
  8
0
 10
10.1066
 20
6.23233
 11
9.94453
 21
6.05545
  0
LINE
  8
0
 10
9.94453
 20
6.05545
 11
9.76765
 21
5.89337
  0
LINE
  8
0
 10
9.76765
 20
5.89337
 11
9.57733
 21
5.74733
  0
LINE
  8
0
 10
9.57733
 20
5.74733
 11
9.375
 21
5.61842
  0
LINE
  8
0
 10
9.375
 20
5.61842
 11
9.16219
 21
5.50764
  0
LINE
  8
0
 10
9.16219
 20
5.50764
 11
8.94055
 21
5.41583
  0
LINE
  8
0
 10
8.94055
 20
5.41583
 11
8.71175
 21
5.34369
  0
LINE
  8
0
 10
8.71175
 20
5.34369
 11
8.47752
 21
5.29178
  0
LINE
  8
0
 10
8.47752
 20
5.29178
 11
8.23967
 21
5.26045
  0
LINE
  8
0
 10
8.23967
 20
5.26045
 11
8
 21
5.25
  0
LINE
  8
0
 10
8
 20
5.25
 11
7.76031
 21
5.26045
  0
LINE
  8
0
 10
671.76
 20
5.26045
 11
671.522
 21
5.29178
  0
LINE
  8
0
 10
671.522
 20
5.29178
 11
671.288
 21
5.34369
  0
LINE
  8
0
 10
671.288
 20
5.34369
 11
671.059
 21
5.41583
  0
LINE
  8
0
 10
671.059
 20
5.41583
 11
670.838
 21
5.50764
  0
LINE
  8
0
 10
670.838
 20
5.50764
 11
670.625
 21
5.61842
  0
LINE
  8
0
 10
670.625
 20
5.61842
 11
670.423
 21
5.74733
  0
LINE
  8
0
 10
670.423
 20
5.74733
 11
670.232
 21
5.89337
  0
LINE
  8
0
 10
670.232
 20
5.89337
 11
670.055
 21
6.05545
  0
LINE
  8
0
 10
670.055
 20
6.05545
 11
669.893
 21
6.23233
  0
LINE
  8
0
 10
669.893
 20
6.23233
 11
669.747
 21
6.42265
  0
LINE
  8
0
 10
669.747
 20
6.42265
 11
669.618
 21
6.625
  0
LINE
  8
0
 10
669.618
 20
6.625
 11
669.508
 21
6.8378
  0
LINE
  8
0
 10
669.508
 20
6.8378
 11
669.416
 21
7.05943
  0
LINE
  8
0
 10
669.416
 20
7.05943
 11
669.344
 21
7.28824
  0
LINE
  8
0
 10
669.344
 20
7.28824
 11
669.292
 21
7.52246
  0
LINE
  8
0
 10
669.292
 20
7.52246
 11
669.26
 21
7.76031
  0
LINE
  8
0
 10
669.26
 20
7.76031
 11
669.25
 21
8
  0
LINE
  8
0
 10
669.25
 20
8
 11
669.26
 21
8.23967
  0
LINE
  8
0
 10
669.26
 20
8.23967
 11
669.292
 21
8.47752
  0
LINE
  8
0
 10
669.292
 20
8.47752
 11
669.344
 21
8.71175
  0
LINE
  8
0
 10
669.344
 20
8.71175
 11
669.416
 21
8.94055
  0
LINE
  8
0
 10
669.416
 20
8.94055
 11
669.508
 21
9.16219
  0
LINE
  8
0
 10
669.508
 20
9.16219
 11
669.618
 21
9.375
  0
LINE
  8
0
 10
669.618
 20
9.375
 11
669.747
 21
9.57733
  0
LINE
  8
0
 10
669.747
 20
9.57733
 11
669.893
 21
9.76765
  0
LINE
  8
0
 10
669.893
 20
9.76765
 11
670.055
 21
9.94453
  0
LINE
  8
0
 10
670.055
 20
9.94453
 11
670.232
 21
10.1066
  0
LINE
  8
0
 10
670.232
 20
10.1066
 11
670.423
 21
10.2527
  0
LINE
  8
0
 10
670.423
 20
10.2527
 11
670.625
 21
10.3816
  0
LINE
  8
0
 10
670.625
 20
10.3816
 11
670.838
 21
10.4923
  0
LINE
  8
0
 10
670.838
 20
10.4923
 11
671.059
 21
10.5842
  0
LINE
  8
0
 10
671.059
 20
10.5842
 11
671.288
 21
10.6563
  0
LINE
  8
0
 10
671.288
 20
10.6563
 11
671.522
 21
10.7082
  0
LINE
  8
0
 10
671.522
 20
10.7082
 11
671.76
 21
10.7395
  0
LINE
  8
0
 10
671.76
 20
10.7395
 11
672
 21
10.75
  0
LINE
  8
0
 10
672
 20
10.75
 11
672.24
 21
10.7395
  0
LINE
  8
0
 10
672.24
 20
10.7395
 11
672.478
 21
10.7082
  0
LINE
  8
0
 10
672.478
 20
10.7082
 11
672.712
 21
10.6563
  0
LINE
  8
0
 10
672.712
 20
10.6563
 11
672.941
 21
10.5842
  0
LINE
  8
0
 10
672.941
 20
10.5842
 11
673.162
 21
10.4923
  0
LINE
  8
0
 10
673.162
 20
10.4923
 11
673.375
 21
10.3816
  0
LINE
  8
0
 10
673.375
 20
10.3816
 11
673.577
 21
10.2527
  0
LINE
  8
0
 10
673.577
 20
10.2527
 11
673.768
 21
10.1066
  0
LINE
  8
0
 10
673.768
 20
10.1066
 11
673.945
 21
9.94453
  0
LINE
  8
0
 10
673.945
 20
9.94453
 11
674.107
 21
9.76765
  0
LINE
  8
0
 10
674.107
 20
9.76765
 11
674.253
 21
9.57733
  0
LINE
  8
0
 10
674.253
 20
9.57733
 11
674.382
 21
9.375
  0
LINE
  8
0
 10
674.382
 20
9.375
 11
674.492
 21
9.16219
  0
LINE
  8
0
 10
674.492
 20
9.16219
 11
674.584
 21
8.94055
  0
LINE
  8
0
 10
674.584
 20
8.94055
 11
674.656
 21
8.71175
  0
LINE
  8
0
 10
674.656
 20
8.71175
 11
674.708
 21
8.47752
  0
LINE
  8
0
 10
674.708
 20
8.47752
 11
674.74
 21
8.23967
  0
LINE
  8
0
 10
674.74
 20
8.23967
 11
674.75
 21
8
  0
LINE
  8
0
 10
674.75
 20
8
 11
674.74
 21
7.76031
  0
LINE
  8
0
 10
674.74
 20
7.76031
 11
674.708
 21
7.52246
  0
LINE
  8
0
 10
674.708
 20
7.52246
 11
674.656
 21
7.28824
  0
LINE
  8
0
 10
674.656
 20
7.28824
 11
674.584
 21
7.05943
  0
LINE
  8
0
 10
674.584
 20
7.05943
 11
674.492
 21
6.8378
  0
LINE
  8
0
 10
674.492
 20
6.8378
 11
674.382
 21
6.625
  0
LINE
  8
0
 10
674.382
 20
6.625
 11
674.253
 21
6.42265
  0
LINE
  8
0
 10
674.253
 20
6.42265
 11
674.107
 21
6.23233
  0
LINE
  8
0
 10
674.107
 20
6.23233
 11
673.945
 21
6.05545
  0
LINE
  8
0
 10
673.945
 20
6.05545
 11
673.768
 21
5.89337
  0
LINE
  8
0
 10
673.768
 20
5.89337
 11
673.577
 21
5.74733
  0
LINE
  8
0
 10
673.577
 20
5.74733
 11
673.375
 21
5.61842
  0
LINE
  8
0
 10
673.375
 20
5.61842
 11
673.162
 21
5.50764
  0
LINE
  8
0
 10
673.162
 20
5.50764
 11
672.941
 21
5.41583
  0
LINE
  8
0
 10
672.941
 20
5.41583
 11
672.712
 21
5.34369
  0
LINE
  8
0
 10
672.712
 20
5.34369
 11
672.478
 21
5.29178
  0
LINE
  8
0
 10
672.478
 20
5.29178
 11
672.24
 21
5.26045
  0
LINE
  8
0
 10
672.24
 20
5.26045
 11
672
 21
5.25
  0
LINE
  8
0
 10
672
 20
5.25
 11
671.76
 21
5.26045
  0
ENDSEC
  0
SECTION
  2
OBJECTS
  0
DICTIONARY
  0
ENDSEC
  0
EOF
